<svg width="102" height="27" viewBox="0 0 102 27" fill="none" xmlns="http://www.w3.org/2000/svg">
<g clip-path="url(#clip0_514_3748)">
<path d="M11.3147 0.00952148H0.142578V26.7281L11.3147 0.00952148Z" fill="#FA0C00"/>
<path d="M19.1753 0.00918579H30.3329V26.7278L19.1753 0.00918579Z" fill="#FA0C00"/>
<path d="M15.2452 9.8569L22.3561 26.728H17.6907L15.5654 21.3566H10.3615L15.2452 9.8569Z" fill="#FA0C00"/>
<path d="M48.5597 17.0011L49.877 20.7785C49.9207 20.8732 49.9862 20.9168 50.1027 20.9168H52.6355C52.7738 20.9168 52.7956 20.8513 52.7738 20.713L47.5407 6.1783C47.5189 6.06184 47.497 6.04001 47.3806 6.04001H44.2363C44.149 6.04001 44.0981 6.10551 44.0981 6.20013C44.0544 6.96435 43.9889 7.19726 43.8943 7.42288L39.2289 20.6912C39.2071 20.8513 39.258 20.9168 39.389 20.9168H41.6526C41.7908 20.9168 41.8564 20.8732 41.9073 20.7349L43.1519 17.0011H48.5597ZM43.8724 14.5338C44.5566 12.4667 45.4591 9.81744 45.823 8.30356H45.8449C46.2961 9.89022 47.3587 13.0344 47.8391 14.5338H43.8724Z" fill="#FA0C00"/>
<path d="M59.5013 21.1423C60.8623 21.1423 62.3107 20.8949 63.7809 20.2616C63.8974 20.218 63.9192 20.167 63.9192 20.0579C63.8755 19.6503 63.8246 19.0607 63.8246 18.6095V4.9263C63.8246 4.83896 63.8246 4.79529 63.7154 4.79529H61.2481C61.1535 4.79529 61.1098 4.83896 61.1098 4.95541V9.59168C60.724 9.54801 60.4547 9.52617 60.1345 9.52617C56.1533 9.52617 53.7078 12.1536 53.7078 15.4361C53.7078 19.2427 56.2188 21.1423 59.5013 21.1423ZM61.1098 18.6095C60.7022 18.7405 60.2509 18.7914 59.7924 18.7914C57.9874 18.7914 56.5099 17.7725 56.5099 15.2979C56.5099 13.1071 58.0311 11.8116 60.0472 11.8116C60.4547 11.8116 60.8114 11.8552 61.1098 11.9717V18.6095Z" fill="#FA0C00"/>
<path d="M71.7905 9.52621C68.3915 9.52621 66.2881 12.1318 66.2881 15.3488C66.2881 18.2238 67.9621 21.1424 71.7395 21.1424C74.9347 21.1424 77.1764 18.7915 77.1764 15.2761C77.1764 12.1755 75.2768 9.52621 71.7905 9.52621ZM71.6522 11.8116C73.5736 11.8116 74.3888 13.4638 74.3888 15.3488C74.3888 17.6779 73.1879 18.8351 71.7905 18.8351C70.0655 18.8351 69.0466 17.3868 69.0466 15.2979C69.0466 13.1508 70.131 11.8116 71.6522 11.8116Z" fill="#FA0C00"/>
<path d="M79.7271 4.79529C79.6325 4.79529 79.567 4.83896 79.567 4.95541V20.4436C79.567 20.5091 79.6325 20.6256 79.7271 20.6474C80.8115 20.9822 81.947 21.1423 83.1188 21.1423C86.474 21.1423 89.7347 19.0607 89.7347 14.8684C89.7347 11.8334 87.6531 9.52617 84.3925 9.52617C83.6428 9.52617 82.9441 9.64263 82.3327 9.84642L82.3036 4.97724C82.3036 4.81712 82.2599 4.79529 82.0998 4.79529H79.7271ZM86.9471 15.145C86.9471 17.656 85.2295 18.8351 83.3735 18.8351C82.9878 18.8351 82.6457 18.8133 82.3327 18.7186V12.11C82.6893 11.9717 83.1188 11.8552 83.9121 11.8552C85.7026 11.8552 86.9471 12.9906 86.9471 15.145Z" fill="#FA0C00"/>
<path d="M98.9429 15.9602C100.049 15.9602 100.959 15.9384 101.272 15.8656C101.388 15.8438 101.432 15.8001 101.454 15.7055C101.519 15.458 101.549 14.9413 101.549 14.308C101.549 12.1537 100.253 9.52621 96.905 9.52621C93.4842 9.52621 91.5845 12.3138 91.5845 15.458C91.5845 18.2456 93.0547 21.1424 97.1743 21.1424C98.7173 21.1424 99.7144 20.8949 100.573 20.4873C100.661 20.4436 100.704 20.3709 100.704 20.2399V18.3548C100.704 18.2456 100.639 18.2238 100.573 18.2674C99.7144 18.6313 98.7828 18.8133 97.7638 18.8133C95.4566 18.8133 94.4085 17.5396 94.343 15.9602H98.9429ZM94.343 14.0096C94.525 12.9033 95.2237 11.7024 96.7885 11.7024C98.5135 11.7024 98.9647 13.1508 98.9647 13.8058C98.9647 13.8277 98.9647 13.9223 98.9647 13.9878C98.8701 14.0096 98.579 14.0096 97.7201 14.0096H94.343Z" fill="#FA0C00"/>
</g>
<defs>
<clipPath id="clip0_514_3748">
<rect width="101.406" height="26.7379" fill="white" transform="translate(0.142578)"/>
</clipPath>
</defs>
</svg>
