<svg width="43" height="43" viewBox="0 0 43 43" fill="none" xmlns="http://www.w3.org/2000/svg">
<rect width="43" height="43" rx="6" fill="#DEDEDE"/>
<mask id="mask0_181_382" style="mask-type:alpha" maskUnits="userSpaceOnUse" x="9" y="9" width="24" height="24">
<rect x="9" y="9" width="24" height="24" fill="#D9D9D9"/>
</mask>
<g mask="url(#mask0_181_382)">
<path d="M13 24C12.1667 24 11.4583 23.7083 10.875 23.125C10.2917 22.5417 10 21.8333 10 21C10 20.1667 10.2917 19.4583 10.875 18.875C11.4583 18.2917 12.1667 18 13 18V16C13 15.45 13.1958 14.9792 13.5875 14.5875C13.9792 14.1958 14.45 14 15 14H18C18 13.1667 18.2917 12.4583 18.875 11.875C19.4583 11.2917 20.1667 11 21 11C21.8333 11 22.5417 11.2917 23.125 11.875C23.7083 12.4583 24 13.1667 24 14H27C27.55 14 28.0208 14.1958 28.4125 14.5875C28.8042 14.9792 29 15.45 29 16V18C29.8333 18 30.5417 18.2917 31.125 18.875C31.7083 19.4583 32 20.1667 32 21C32 21.8333 31.7083 22.5417 31.125 23.125C30.5417 23.7083 29.8333 24 29 24V28C29 28.55 28.8042 29.0208 28.4125 29.4125C28.0208 29.8042 27.55 30 27 30H15C14.45 30 13.9792 29.8042 13.5875 29.4125C13.1958 29.0208 13 28.55 13 28V24ZM18 22C18.4167 22 18.7708 21.8542 19.0625 21.5625C19.3542 21.2708 19.5 20.9167 19.5 20.5C19.5 20.0833 19.3542 19.7292 19.0625 19.4375C18.7708 19.1458 18.4167 19 18 19C17.5833 19 17.2292 19.1458 16.9375 19.4375C16.6458 19.7292 16.5 20.0833 16.5 20.5C16.5 20.9167 16.6458 21.2708 16.9375 21.5625C17.2292 21.8542 17.5833 22 18 22ZM24 22C24.4167 22 24.7708 21.8542 25.0625 21.5625C25.3542 21.2708 25.5 20.9167 25.5 20.5C25.5 20.0833 25.3542 19.7292 25.0625 19.4375C24.7708 19.1458 24.4167 19 24 19C23.5833 19 23.2292 19.1458 22.9375 19.4375C22.6458 19.7292 22.5 20.0833 22.5 20.5C22.5 20.9167 22.6458 21.2708 22.9375 21.5625C23.2292 21.8542 23.5833 22 24 22ZM17 26H25V24H17V26Z" fill="#1C1B1F"/>
</g>
</svg>
