<svg width="43" height="43" viewBox="0 0 43 43" fill="none" xmlns="http://www.w3.org/2000/svg">
<rect width="43" height="43" rx="6" fill="#DEDEDE"/>
<mask id="mask0_181_961" style="mask-type:alpha" maskUnits="userSpaceOnUse" x="9" y="9" width="24" height="24">
<rect x="9" y="9" width="24" height="24" fill="#D9D9D9"/>
</mask>
<g mask="url(#mask0_181_961)">
<path d="M20 30.725L13 26.7C12.6833 26.5167 12.4375 26.275 12.2625 25.975C12.0875 25.675 12 25.3417 12 24.975V17.025C12 16.6583 12.0875 16.325 12.2625 16.025C12.4375 15.725 12.6833 15.4833 13 15.3L20 11.275C20.3167 11.0917 20.65 11 21 11C21.35 11 21.6833 11.0917 22 11.275L29 15.3C29.3167 15.4833 29.5625 15.725 29.7375 16.025C29.9125 16.325 30 16.6583 30 17.025V24.975C30 25.3417 29.9125 25.675 29.7375 25.975C29.5625 26.275 29.3167 26.5167 29 26.7L22 30.725C21.6833 30.9083 21.35 31 21 31C20.65 31 20.3167 30.9083 20 30.725ZM20 21.575V28.425L21 29L22 28.425V21.575L28 18.1V17.05L26.925 16.425L21 19.85L15.075 16.425L14 17.05V18.1L20 21.575Z" fill="black"/>
</g>
</svg>
