<svg width="173" height="18" viewBox="0 0 173 18" fill="none" xmlns="http://www.w3.org/2000/svg">
<g clip-path="url(#clip0_514_3759)">
<path d="M0.702448 17.3206L15.6607 7.93864H23.4472C23.7033 7.93864 23.9082 8.14483 23.9082 8.40258C23.9082 8.60878 23.8058 8.71188 23.7033 8.76343L16.3266 13.1967C15.8656 13.506 15.6607 14.073 15.6607 14.4854V17.2691H25.0352V1.031C25.0352 0.721706 24.7791 0.463959 24.4205 0.463959H15.507L0.548767 9.79442V17.3206H0.702448Z" fill="black"/>
<path d="M123.493 17.3206H136.966V13.6606H127.745V10.6192H135.173V6.9592H127.745V4.12397H136.966V0.463959H123.493V17.3206Z" fill="black"/>
<path d="M38.8664 0.463959L32.4118 17.3206H36.8173L37.9443 14.1761H45.1161L46.1918 17.3206H50.751L44.2964 0.463959H38.8664ZM39.225 10.5677L41.5814 3.96933L43.8866 10.5677H39.225Z" fill="black"/>
<path d="M69.0903 4.12397H74.4691V17.3206H78.7209V4.12397H84.0998V0.463959H69.0391V4.12397H69.0903Z" fill="black"/>
<path d="M62.8918 10.8251C62.8918 12.9902 61.5599 13.9181 59.2547 13.9181C57.052 13.9181 55.6176 12.9902 55.6176 10.8251V0.41214H51.3658V11.3406C51.3658 16.1863 55.6688 17.7328 59.3059 17.7328C62.8918 17.7328 67.1949 16.2378 67.1949 11.3406V0.41214H62.9431L62.8918 10.8251Z" fill="black"/>
<path d="M172.159 0.463959H167.087L160.991 7.32004V0.463959H156.739V17.3206H160.991V10.9285L166.78 17.3206H172.159L164.372 9.02118L172.159 0.463959Z" fill="black"/>
<path d="M113.453 0.463959H105.615V17.3206H113.453C119.446 17.3206 121.086 15.0525 121.086 8.76343C121.086 2.83524 119.498 0.463959 113.453 0.463959ZM113.248 13.6606H109.867V4.12397H113.248C115.912 4.12397 116.731 4.84567 116.731 8.76343C116.731 12.3203 115.86 13.6606 113.248 13.6606Z" fill="black"/>
<path d="M149.875 7.37161L145.982 6.90766C143.728 6.64992 143.113 6.08287 143.113 5.30963C143.113 4.43329 144.291 3.66005 146.545 3.66005C148.748 3.66005 149.875 4.48484 150.08 5.72203H154.281C154.076 2.21666 151.105 3.05176e-05 146.801 3.05176e-05C141.679 3.05176e-05 139.066 2.06201 139.066 5.72203C139.066 8.66035 140.808 10.1037 144.343 10.4646L148.287 10.877C149.773 11.0316 150.49 11.6502 150.49 12.3719C150.49 13.2483 149.465 14.0215 147.058 14.0215C144.24 14.0215 143.113 13.2998 142.959 11.8564H138.861C139.066 15.7226 141.576 17.7331 146.955 17.7331C151.873 17.7331 154.588 15.568 154.588 12.3204C154.537 9.43359 152.897 7.73246 149.875 7.37161Z" fill="black"/>
<path d="M94.0377 3.05176e-05C87.9417 3.05176e-05 84.8169 3.76314 84.8169 8.815C84.8169 13.9184 87.993 17.6815 94.0377 17.6815C100.134 17.6815 103.31 13.9184 103.31 8.815C103.31 3.76314 100.134 3.05176e-05 94.0377 3.05176e-05ZM94.0377 13.9184C90.8617 13.9184 89.1712 11.9595 89.1712 8.815C89.1712 5.72203 90.9129 3.76314 94.0377 3.76314C97.2138 3.76314 98.9043 5.72203 98.9043 8.815C98.9555 12.0111 97.2138 13.9184 94.0377 13.9184Z" fill="black"/>
</g>
<defs>
<clipPath id="clip0_514_3759">
<rect width="171.61" height="17.733" fill="white" transform="translate(0.548767)"/>
</clipPath>
</defs>
</svg>
