<svg width="62" height="62" viewBox="0 0 62 62" fill="none" xmlns="http://www.w3.org/2000/svg">
<rect x="0.5" y="0.5" width="61" height="61" rx="30.5" fill="#E9F8FF"/>
<rect x="0.5" y="0.5" width="61" height="61" rx="30.5" stroke="#CFF0FF"/>
<mask id="mask0_514_4259" style="mask-type:alpha" maskUnits="userSpaceOnUse" x="15" y="15" width="32" height="32">
<rect x="15" y="15" width="32" height="32" fill="#D9D9D9"/>
</mask>
<g mask="url(#mask0_514_4259)">
<path d="M41.6 43C38.8222 43 36.0778 42.3944 33.3667 41.1833C30.6556 39.9722 28.1889 38.2556 25.9667 36.0333C23.7444 33.8111 22.0278 31.3444 20.8167 28.6333C19.6056 25.9222 19 23.1778 19 20.4C19 20 19.1333 19.6667 19.4 19.4C19.6667 19.1333 20 19 20.4 19H25.8C26.1111 19 26.3889 19.1056 26.6333 19.3167C26.8778 19.5278 27.0222 19.7778 27.0667 20.0667L27.9333 24.7333C27.9778 25.0889 27.9667 25.3889 27.9 25.6333C27.8333 25.8778 27.7111 26.0889 27.5333 26.2667L24.3 29.5333C24.7444 30.3556 25.2722 31.15 25.8833 31.9167C26.4944 32.6833 27.1667 33.4222 27.9 34.1333C28.5889 34.8222 29.3111 35.4611 30.0667 36.05C30.8222 36.6389 31.6222 37.1778 32.4667 37.6667L35.6 34.5333C35.8 34.3333 36.0611 34.1833 36.3833 34.0833C36.7056 33.9833 37.0222 33.9556 37.3333 34L41.9333 34.9333C42.2444 35.0222 42.5 35.1833 42.7 35.4167C42.9 35.65 43 35.9111 43 36.2V41.6C43 42 42.8667 42.3333 42.6 42.6C42.3333 42.8667 42 43 41.6 43Z" fill="#21BCFF"/>
</g>
</svg>
