<svg width="43" height="43" viewBox="0 0 43 43" fill="none" xmlns="http://www.w3.org/2000/svg">
<rect width="43" height="43" rx="6" fill="#F4EDFF"/>
<mask id="mask0_181_357" style="mask-type:alpha" maskUnits="userSpaceOnUse" x="9" y="9" width="24" height="24">
<rect x="9" y="9" width="24" height="24" fill="#D9D9D9"/>
</mask>
<g mask="url(#mask0_181_357)">
<path d="M10.05 30V27.2C10.05 26.65 10.1917 26.1333 10.475 25.65C10.7583 25.1667 11.15 24.8 11.65 24.55C12.5 24.1167 13.4583 23.75 14.525 23.45C15.5917 23.15 16.7667 23 18.05 23C19.3333 23 20.5083 23.15 21.575 23.45C22.6417 23.75 23.6 24.1167 24.45 24.55C24.95 24.8 25.3417 25.1667 25.625 25.65C25.9083 26.1333 26.05 26.65 26.05 27.2V30H10.05ZM18.05 22C16.95 22 16.0083 21.6083 15.225 20.825C14.4417 20.0417 14.05 19.1 14.05 18H13.8C13.65 18 13.5292 17.9542 13.4375 17.8625C13.3458 17.7708 13.3 17.65 13.3 17.5C13.3 17.35 13.3458 17.2292 13.4375 17.1375C13.5292 17.0458 13.65 17 13.8 17H14.05C14.05 16.25 14.2333 15.575 14.6 14.975C14.9667 14.375 15.45 13.9 16.05 13.55V14.5C16.05 14.65 16.0958 14.7708 16.1875 14.8625C16.2792 14.9542 16.4 15 16.55 15C16.7 15 16.8208 14.9542 16.9125 14.8625C17.0042 14.7708 17.05 14.65 17.05 14.5V13.15C17.2 13.1 17.3583 13.0625 17.525 13.0375C17.6917 13.0125 17.8667 13 18.05 13C18.2333 13 18.4083 13.0125 18.575 13.0375C18.7417 13.0625 18.9 13.1 19.05 13.15V14.5C19.05 14.65 19.0958 14.7708 19.1875 14.8625C19.2792 14.9542 19.4 15 19.55 15C19.7 15 19.8208 14.9542 19.9125 14.8625C20.0042 14.7708 20.05 14.65 20.05 14.5V13.55C20.65 13.9 21.1333 14.375 21.5 14.975C21.8667 15.575 22.05 16.25 22.05 17H22.3C22.45 17 22.5708 17.0458 22.6625 17.1375C22.7542 17.2292 22.8 17.35 22.8 17.5C22.8 17.65 22.7542 17.7708 22.6625 17.8625C22.5708 17.9542 22.45 18 22.3 18H22.05C22.05 19.1 21.6583 20.0417 20.875 20.825C20.0917 21.6083 19.15 22 18.05 22ZM18.05 20C18.6 20 19.0708 19.8042 19.4625 19.4125C19.8542 19.0208 20.05 18.55 20.05 18H16.05C16.05 18.55 16.2458 19.0208 16.6375 19.4125C17.0292 19.8042 17.5 20 18.05 20ZM25.55 24L25.4 23.25C25.3 23.2167 25.2042 23.1792 25.1125 23.1375C25.0208 23.0958 24.9333 23.0333 24.85 22.95L24.15 23.2L23.65 22.3L24.2 21.8V21.2L23.65 20.7L24.15 19.8L24.85 20.05C24.9167 19.9833 25 19.925 25.1 19.875C25.2 19.825 25.3 19.7833 25.4 19.75L25.55 19H26.55L26.7 19.75C26.8 19.7833 26.9 19.825 27 19.875C27.1 19.925 27.1833 19.9833 27.25 20.05L27.95 19.8L28.45 20.7L27.9 21.2V21.8L28.45 22.3L27.95 23.2L27.25 22.95C27.1667 23.0333 27.0792 23.0958 26.9875 23.1375C26.8958 23.1792 26.8 23.2167 26.7 23.25L26.55 24H25.55ZM26.05 22.25C26.25 22.25 26.425 22.175 26.575 22.025C26.725 21.875 26.8 21.7 26.8 21.5C26.8 21.3 26.725 21.125 26.575 20.975C26.425 20.825 26.25 20.75 26.05 20.75C25.85 20.75 25.675 20.825 25.525 20.975C25.375 21.125 25.3 21.3 25.3 21.5C25.3 21.7 25.375 21.875 25.525 22.025C25.675 22.175 25.85 22.25 26.05 22.25ZM27.85 19L27.65 17.95C27.5 17.9 27.3625 17.8375 27.2375 17.7625C27.1125 17.6875 27 17.6 26.9 17.5L25.85 17.85L25.15 16.65L26 15.9C25.9667 15.8167 25.95 15.75 25.95 15.7V15.3C25.95 15.25 25.9667 15.1833 26 15.1L25.15 14.35L25.85 13.15L26.9 13.5C27 13.4 27.1125 13.3125 27.2375 13.2375C27.3625 13.1625 27.5 13.1 27.65 13.05L27.85 12H29.25L29.45 13.05C29.6 13.1 29.7375 13.1625 29.8625 13.2375C29.9875 13.3125 30.1 13.4 30.2 13.5L31.25 13.15L31.95 14.35L31.1 15.1C31.1333 15.1833 31.15 15.25 31.15 15.3V15.7C31.15 15.75 31.1333 15.8167 31.1 15.9L31.95 16.65L31.25 17.85L30.2 17.5C30.1 17.6 29.9875 17.6875 29.8625 17.7625C29.7375 17.8375 29.6 17.9 29.45 17.95L29.25 19H27.85ZM28.55 16.75C28.9 16.75 29.1958 16.6292 29.4375 16.3875C29.6792 16.1458 29.8 15.85 29.8 15.5C29.8 15.15 29.6792 14.8542 29.4375 14.6125C29.1958 14.3708 28.9 14.25 28.55 14.25C28.2 14.25 27.9042 14.3708 27.6625 14.6125C27.4208 14.8542 27.3 15.15 27.3 15.5C27.3 15.85 27.4208 16.1458 27.6625 16.3875C27.9042 16.6292 28.2 16.75 28.55 16.75Z" fill="#AA69FF"/>
</g>
</svg>
