<svg width="43" height="43" viewBox="0 0 43 43" fill="none" xmlns="http://www.w3.org/2000/svg">
<rect width="43" height="43" rx="6" fill="#DEDEDE"/>
<mask id="mask0_181_784" style="mask-type:alpha" maskUnits="userSpaceOnUse" x="9" y="9" width="24" height="24">
<rect x="9" y="9" width="24" height="24" fill="#D9D9D9"/>
</mask>
<g mask="url(#mask0_181_784)">
<path d="M20 29H15.5C13.9833 29 12.6875 28.475 11.6125 27.425C10.5375 26.375 10 25.0917 10 23.575C10 22.275 10.3917 21.1167 11.175 20.1C11.9583 19.0833 12.9833 18.4333 14.25 18.15C14.6667 16.6167 15.5 15.375 16.75 14.425C18 13.475 19.4167 13 21 13C22.95 13 24.6042 13.6792 25.9625 15.0375C27.3208 16.3958 28 18.05 28 20C29.15 20.1333 30.1042 20.6292 30.8625 21.4875C31.6208 22.3458 32 23.35 32 24.5C32 25.75 31.5625 26.8125 30.6875 27.6875C29.8125 28.5625 28.75 29 27.5 29H22V21.85L23.6 23.4L25 22L21 18L17 22L18.4 23.4L20 21.85V29Z" fill="black"/>
</g>
</svg>
