<svg width="22" height="18" viewBox="0 0 22 18" fill="none" xmlns="http://www.w3.org/2000/svg">
<path d="M1.13474 17.2307C0.921902 17.2307 0.743652 17.1589 0.599985 17.0152C0.456485 16.8717 0.384735 16.6935 0.384735 16.4807C0.384735 16.2679 0.456485 16.0897 0.599985 15.9462C0.743652 15.8025 0.921902 15.7307 1.13474 15.7307H20.8652C21.0781 15.7307 21.2563 15.8025 21.4 15.9462C21.5435 16.0897 21.6152 16.2679 21.6152 16.4807C21.6152 16.6935 21.5435 16.8717 21.4 17.0152C21.2563 17.1589 21.0781 17.2307 20.8652 17.2307H1.13474ZM3.30774 14.7307C2.80257 14.7307 2.37499 14.5557 2.02499 14.2057C1.67499 13.8557 1.49999 13.4281 1.49999 12.923V2.53846C1.49999 2.0333 1.67499 1.60571 2.02499 1.25571C2.37499 0.905713 2.80257 0.730713 3.30774 0.730713H18.6922C19.1974 0.730713 19.625 0.905713 19.975 1.25571C20.325 1.60571 20.5 2.0333 20.5 2.53846V12.923C20.5 13.4281 20.325 13.8557 19.975 14.2057C19.625 14.5557 19.1974 14.7307 18.6922 14.7307H3.30774ZM3.30774 13.2307H18.6922C18.7692 13.2307 18.8397 13.1987 18.9037 13.1347C18.9679 13.0705 19 13 19 12.923V2.53846C19 2.46146 18.9679 2.39096 18.9037 2.32696C18.8397 2.2628 18.7692 2.23071 18.6922 2.23071H3.30774C3.23074 2.23071 3.16024 2.2628 3.09624 2.32696C3.03207 2.39096 2.99999 2.46146 2.99999 2.53846V12.923C2.99999 13 3.03207 13.0705 3.09624 13.1347C3.16024 13.1987 3.23074 13.2307 3.30774 13.2307Z" fill="#818181"/>
</svg>
