<svg width="43" height="43" viewBox="0 0 43 43" fill="none" xmlns="http://www.w3.org/2000/svg">
<rect width="43" height="43" rx="6" fill="#EDB818" fill-opacity="0.16"/>
<path d="M29 12H13C11.897 12 11 12.897 11 14V28C11 29.103 11.897 30 13 30H29C30.103 30 31 29.103 31 28V14C31 12.897 30.103 12 29 12ZM13 28V16H29L29.002 28H13Z" fill="#EDB818"/>
<path d="M18.293 18.293L14.586 22L18.293 25.707L19.707 24.293L17.414 22L19.707 19.707L18.293 18.293ZM23.707 18.293L22.293 19.707L24.586 22L22.293 24.293L23.707 25.707L27.414 22L23.707 18.293Z" fill="#EDB818"/>
</svg>
