<svg width="43" height="43" viewBox="0 0 43 43" fill="none" xmlns="http://www.w3.org/2000/svg">
<rect width="43" height="43" rx="6" fill="#DEDEDE"/>
<mask id="mask0_181_394" style="mask-type:alpha" maskUnits="userSpaceOnUse" x="9" y="9" width="24" height="24">
<rect x="9" y="9" width="24" height="24" fill="#D9D9D9"/>
</mask>
<g mask="url(#mask0_181_394)">
<path d="M21 20C23.5 20 25.625 19.6083 27.375 18.825C29.125 18.0417 30 17.1 30 16C30 14.9 29.125 13.9583 27.375 13.175C25.625 12.3917 23.5 12 21 12C18.5 12 16.375 12.3917 14.625 13.175C12.875 13.9583 12 14.9 12 16C12 17.1 12.875 18.0417 14.625 18.825C16.375 19.6083 18.5 20 21 20ZM21 22.5C21.6833 22.5 22.5375 22.4292 23.5625 22.2875C24.5875 22.1458 25.575 21.9167 26.525 21.6C27.475 21.2833 28.2917 20.8708 28.975 20.3625C29.6583 19.8542 30 19.2333 30 18.5V21C30 21.7333 29.6583 22.3542 28.975 22.8625C28.2917 23.3708 27.475 23.7833 26.525 24.1C25.575 24.4167 24.5875 24.6458 23.5625 24.7875C22.5375 24.9292 21.6833 25 21 25C20.3167 25 19.4625 24.9292 18.4375 24.7875C17.4125 24.6458 16.425 24.4167 15.475 24.1C14.525 23.7833 13.7083 23.3708 13.025 22.8625C12.3417 22.3542 12 21.7333 12 21V18.5C12 19.2333 12.3417 19.8542 13.025 20.3625C13.7083 20.8708 14.525 21.2833 15.475 21.6C16.425 21.9167 17.4125 22.1458 18.4375 22.2875C19.4625 22.4292 20.3167 22.5 21 22.5ZM21 27.5C21.6833 27.5 22.5375 27.4292 23.5625 27.2875C24.5875 27.1458 25.575 26.9167 26.525 26.6C27.475 26.2833 28.2917 25.8708 28.975 25.3625C29.6583 24.8542 30 24.2333 30 23.5V26C30 26.7333 29.6583 27.3542 28.975 27.8625C28.2917 28.3708 27.475 28.7833 26.525 29.1C25.575 29.4167 24.5875 29.6458 23.5625 29.7875C22.5375 29.9292 21.6833 30 21 30C20.3167 30 19.4625 29.9292 18.4375 29.7875C17.4125 29.6458 16.425 29.4167 15.475 29.1C14.525 28.7833 13.7083 28.3708 13.025 27.8625C12.3417 27.3542 12 26.7333 12 26V23.5C12 24.2333 12.3417 24.8542 13.025 25.3625C13.7083 25.8708 14.525 26.2833 15.475 26.6C16.425 26.9167 17.4125 27.1458 18.4375 27.2875C19.4625 27.4292 20.3167 27.5 21 27.5Z" fill="black"/>
</g>
</svg>
