<svg width="16" height="4" viewBox="0 0 16 4" fill="none" xmlns="http://www.w3.org/2000/svg">
<path d="M2.23077 3.5C1.81827 3.5 1.46519 3.35308 1.17152 3.05925C0.877691 2.76558 0.730774 2.4125 0.730774 2C0.730774 1.5875 0.877691 1.23442 1.17152 0.94075C1.46519 0.646917 1.81827 0.5 2.23077 0.5C2.64327 0.5 2.99644 0.646917 3.29027 0.94075C3.58394 1.23442 3.73077 1.5875 3.73077 2C3.73077 2.4125 3.58394 2.76558 3.29027 3.05925C2.99644 3.35308 2.64327 3.5 2.23077 3.5ZM8.00002 3.5C7.58752 3.5 7.23444 3.35308 6.94077 3.05925C6.64694 2.76558 6.50002 2.4125 6.50002 2C6.50002 1.5875 6.64694 1.23442 6.94077 0.94075C7.23444 0.646917 7.58752 0.5 8.00002 0.5C8.41252 0.5 8.76561 0.646917 9.05927 0.94075C9.35311 1.23442 9.50002 1.5875 9.50002 2C9.50002 2.4125 9.35311 2.76558 9.05927 3.05925C8.76561 3.35308 8.41252 3.5 8.00002 3.5ZM13.7693 3.5C13.3568 3.5 13.0036 3.35308 12.7098 3.05925C12.4161 2.76558 12.2693 2.4125 12.2693 2C12.2693 1.5875 12.4161 1.23442 12.7098 0.94075C13.0036 0.646917 13.3568 0.5 13.7693 0.5C14.1818 0.5 14.5349 0.646917 14.8285 0.94075C15.1224 1.23442 15.2693 1.5875 15.2693 2C15.2693 2.4125 15.1224 2.76558 14.8285 3.05925C14.5349 3.35308 14.1818 3.5 13.7693 3.5Z" fill="#818181"/>
</svg>
