<svg width="11" height="8" viewBox="0 0 11 8" fill="none" xmlns="http://www.w3.org/2000/svg">
<path d="M5.12324 7.46912C5.16528 7.53019 5.22155 7.58012 5.28718 7.61462C5.35281 7.64911 5.42584 7.66714 5.49999 7.66714C5.57413 7.66714 5.64716 7.64911 5.7128 7.61462C5.77843 7.58012 5.83469 7.53019 5.87674 7.46912L10.0017 1.51079C10.0495 1.44207 10.0775 1.36157 10.0827 1.27805C10.0879 1.19453 10.0701 1.11118 10.0313 1.03705C9.99246 0.962927 9.93405 0.900861 9.86242 0.857599C9.79079 0.814337 9.70867 0.791533 9.62499 0.791665H1.37499C1.2915 0.79201 1.20968 0.815107 1.13834 0.858473C1.067 0.901838 1.00883 0.963832 0.97008 1.03779C0.931335 1.11174 0.913484 1.19486 0.918445 1.2782C0.923406 1.36154 0.950992 1.44195 0.998236 1.51079L5.12324 7.46912Z" fill="#878787"/>
</svg>
