<svg width="11" height="17" viewBox="0 0 11 17" fill="none" xmlns="http://www.w3.org/2000/svg">
<path d="M5.00001 13.1L8.44051 8.1345C8.47251 8.08333 8.47568 8.0305 8.45001 7.976C8.42434 7.9215 8.37951 7.89425 8.31551 7.89425H5.51351L7.26351 1.81725C7.28918 1.74042 7.27634 1.66833 7.22501 1.601C7.17368 1.53367 7.10959 1.5 7.03276 1.5H2.50001C2.41034 1.5 2.33659 1.52883 2.27876 1.5865C2.22109 1.64417 2.19226 1.71792 2.19226 1.80775V9.19225C2.19226 9.28208 2.22109 9.35583 2.27876 9.4135C2.33659 9.47117 2.41034 9.5 2.50001 9.5H5.00001V13.1ZM9.99026 8.5135L4.74051 16.1307C4.64684 16.2679 4.53051 16.3582 4.39151 16.4017C4.25234 16.4454 4.11418 16.4454 3.97701 16.4017C3.83984 16.3582 3.72601 16.2787 3.63551 16.1632C3.54518 16.0479 3.50001 15.9082 3.50001 15.7442V11H2.50001C2.00134 11 1.57543 10.8234 1.22226 10.4702C0.868928 10.1169 0.692261 9.69092 0.692261 9.19225V1.80775C0.692261 1.30908 0.868928 0.883083 1.22226 0.52975C1.57543 0.176583 2.00134 0 2.50001 0H7.34026C7.83526 0 8.23718 0.1875 8.54601 0.5625C8.85501 0.9375 8.94609 1.35258 8.81926 1.80775L7.50001 6.39425H8.86526C9.40759 6.39425 9.80859 6.63367 10.0683 7.1125C10.3279 7.59133 10.3019 8.05833 9.99026 8.5135Z" fill="#818181"/>
</svg>
