<svg width="14" height="15" viewBox="0 0 14 15" fill="none" xmlns="http://www.w3.org/2000/svg">
<path d="M14 7.50008C14 3.63408 10.866 0.500077 7 0.500077C3.134 0.500077 0 3.63408 0 7.50008C0 10.994 2.5598 13.8899 5.90625 14.415V9.52351H4.12891V7.50008H5.90625V5.95789C5.90625 4.20352 6.9513 3.23445 8.55025 3.23445C9.31611 3.23445 10.1172 3.37117 10.1172 3.37117V5.09383H9.2345C8.36493 5.09383 8.09375 5.63342 8.09375 6.18699V7.50008H10.0352L9.7248 9.52351H8.09375V14.415C11.4402 13.8899 14 10.994 14 7.50008Z" fill="#5A5A5A"/>
<path d="M9.72481 9.52344L10.0352 7.5H8.09375V6.18691C8.09375 5.63334 8.36493 5.09375 9.2345 5.09375H10.1172V3.37109C10.1172 3.37109 9.31611 3.23438 8.55025 3.23438C6.9513 3.23438 5.90625 4.20344 5.90625 5.95781V7.5H4.12891V9.52344H5.90625V14.415C6.26263 14.4709 6.62791 14.5 7 14.5C7.37209 14.5 7.73737 14.4709 8.09375 14.415V9.52344H9.72481Z" fill="white"/>
</svg>
