<svg width="105" height="32" viewBox="0 0 105 32" fill="none" xmlns="http://www.w3.org/2000/svg">
<g filter="url(#filter0_d_8_808)">
<rect width="103" height="24" transform="translate(2)" fill="#39BF71"/>
<path d="M11.73 17V8.761L9.84 9.916V8.054L11.73 6.92H13.452V17H11.73ZM21.7047 17.21C20.9907 17.21 20.3607 17.0583 19.8147 16.755C19.2687 16.447 18.8417 16.02 18.5337 15.474C18.2303 14.928 18.0787 14.298 18.0787 13.584V10.336C18.0787 9.622 18.2303 8.992 18.5337 8.446C18.8417 7.9 19.2687 7.47533 19.8147 7.172C20.3607 6.864 20.9907 6.71 21.7047 6.71C22.4187 6.71 23.0463 6.864 23.5877 7.172C24.1337 7.47533 24.5607 7.9 24.8687 8.446C25.1767 8.992 25.3307 9.622 25.3307 10.336V13.584C25.3307 14.298 25.1767 14.928 24.8687 15.474C24.5607 16.02 24.1337 16.447 23.5877 16.755C23.0463 17.0583 22.4187 17.21 21.7047 17.21ZM21.7047 15.607C22.0593 15.607 22.3813 15.523 22.6707 15.355C22.96 15.1823 23.1887 14.9537 23.3567 14.669C23.5247 14.3797 23.6087 14.0577 23.6087 13.703V10.21C23.6087 9.85067 23.5247 9.52867 23.3567 9.244C23.1887 8.95467 22.96 8.726 22.6707 8.558C22.3813 8.38533 22.0593 8.299 21.7047 8.299C21.35 8.299 21.028 8.38533 20.7387 8.558C20.4493 8.726 20.2207 8.95467 20.0527 9.244C19.8847 9.52867 19.8007 9.85067 19.8007 10.21V13.703C19.8007 14.0577 19.8847 14.3797 20.0527 14.669C20.2207 14.9537 20.4493 15.1823 20.7387 15.355C21.028 15.523 21.35 15.607 21.7047 15.607ZM32.8795 17.21C32.1655 17.21 31.5355 17.0583 30.9895 16.755C30.4435 16.447 30.0165 16.02 29.7085 15.474C29.4052 14.928 29.2535 14.298 29.2535 13.584V10.336C29.2535 9.622 29.4052 8.992 29.7085 8.446C30.0165 7.9 30.4435 7.47533 30.9895 7.172C31.5355 6.864 32.1655 6.71 32.8795 6.71C33.5935 6.71 34.2212 6.864 34.7625 7.172C35.3085 7.47533 35.7355 7.9 36.0435 8.446C36.3515 8.992 36.5055 9.622 36.5055 10.336V13.584C36.5055 14.298 36.3515 14.928 36.0435 15.474C35.7355 16.02 35.3085 16.447 34.7625 16.755C34.2212 17.0583 33.5935 17.21 32.8795 17.21ZM32.8795 15.607C33.2342 15.607 33.5562 15.523 33.8455 15.355C34.1348 15.1823 34.3635 14.9537 34.5315 14.669C34.6995 14.3797 34.7835 14.0577 34.7835 13.703V10.21C34.7835 9.85067 34.6995 9.52867 34.5315 9.244C34.3635 8.95467 34.1348 8.726 33.8455 8.558C33.5562 8.38533 33.2342 8.299 32.8795 8.299C32.5248 8.299 32.2028 8.38533 31.9135 8.558C31.6242 8.726 31.3955 8.95467 31.2275 9.244C31.0595 9.52867 30.9755 9.85067 30.9755 10.21V13.703C30.9755 14.0577 31.0595 14.3797 31.2275 14.669C31.3955 14.9537 31.6242 15.1823 31.9135 15.355C32.2028 15.523 32.5248 15.607 32.8795 15.607ZM41.8284 17L40.7084 15.88L49.6754 6.92L50.7954 8.047L41.8284 17ZM48.6954 17.21C48.2334 17.21 47.811 17.098 47.4284 16.874C47.0504 16.6453 46.747 16.342 46.5184 15.964C46.2897 15.5813 46.1754 15.1567 46.1754 14.69C46.1754 14.2327 46.292 13.8127 46.5254 13.43C46.7587 13.0473 47.0667 12.7417 47.4494 12.513C47.832 12.2843 48.2474 12.17 48.6954 12.17C49.1574 12.17 49.5797 12.2843 49.9624 12.513C50.345 12.737 50.6484 13.0403 50.8724 13.423C51.101 13.801 51.2154 14.2233 51.2154 14.69C51.2154 15.1567 51.101 15.5813 50.8724 15.964C50.6484 16.342 50.345 16.6453 49.9624 16.874C49.5797 17.098 49.1574 17.21 48.6954 17.21ZM48.6954 15.768C48.8867 15.768 49.064 15.719 49.2274 15.621C49.3954 15.523 49.5284 15.3923 49.6264 15.229C49.7244 15.0657 49.7734 14.886 49.7734 14.69C49.7734 14.494 49.7244 14.3143 49.6264 14.151C49.5284 13.9877 49.3954 13.857 49.2274 13.759C49.064 13.661 48.8867 13.612 48.6954 13.612C48.4994 13.612 48.3197 13.661 48.1564 13.759C47.993 13.857 47.86 13.9877 47.7574 14.151C47.6594 14.3143 47.6104 14.494 47.6104 14.69C47.6104 14.886 47.6594 15.0657 47.7574 15.229C47.86 15.3923 47.993 15.523 48.1564 15.621C48.3197 15.719 48.4994 15.768 48.6954 15.768ZM42.8084 11.75C42.3464 11.75 41.924 11.638 41.5414 11.414C41.1587 11.1853 40.853 10.882 40.6244 10.504C40.4004 10.1213 40.2884 9.69667 40.2884 9.23C40.2884 8.77267 40.405 8.35267 40.6384 7.97C40.8717 7.58733 41.1797 7.28167 41.5624 7.053C41.945 6.82433 42.3604 6.71 42.8084 6.71C43.2704 6.71 43.6904 6.82433 44.0684 7.053C44.451 7.277 44.7567 7.58033 44.9854 7.963C45.214 8.341 45.3284 8.76333 45.3284 9.23C45.3284 9.69667 45.214 10.1213 44.9854 10.504C44.7567 10.882 44.451 11.1853 44.0684 11.414C43.6904 11.638 43.2704 11.75 42.8084 11.75ZM42.8084 10.308C43.0044 10.308 43.184 10.259 43.3474 10.161C43.5107 10.063 43.6414 9.93233 43.7394 9.769C43.8374 9.60567 43.8864 9.426 43.8864 9.23C43.8864 9.034 43.8374 8.85433 43.7394 8.691C43.6414 8.52767 43.5107 8.397 43.3474 8.299C43.184 8.201 43.0044 8.152 42.8084 8.152C42.6124 8.152 42.4327 8.201 42.2694 8.299C42.106 8.397 41.9754 8.52767 41.8774 8.691C41.7794 8.85433 41.7304 9.034 41.7304 9.23C41.7304 9.426 41.7794 9.60567 41.8774 9.769C41.9754 9.93233 42.106 10.063 42.2694 10.161C42.4327 10.259 42.6124 10.308 42.8084 10.308ZM59.7566 17V6.92H65.8256V8.607H61.4436V11.12H64.9856V12.8H61.4436V17H59.7566ZM69.0447 17V6.92H73.2097C73.3077 6.92 73.4337 6.92467 73.5877 6.934C73.7417 6.93867 73.884 6.95267 74.0147 6.976C74.598 7.06467 75.0787 7.25833 75.4567 7.557C75.8394 7.85567 76.1217 8.23367 76.3037 8.691C76.4904 9.14367 76.5837 9.64767 76.5837 10.203C76.5837 11.0243 76.376 11.7313 75.9607 12.324C75.5454 12.912 74.9084 13.276 74.0497 13.416L73.3287 13.479H70.7317V17H69.0447ZM74.8337 17L72.8457 12.898L74.5607 12.52L76.7447 17H74.8337ZM70.7317 11.904H73.1397C73.233 11.904 73.338 11.8993 73.4547 11.89C73.5714 11.8807 73.6787 11.862 73.7767 11.834C74.0567 11.764 74.276 11.6403 74.4347 11.463C74.598 11.2857 74.7124 11.085 74.7777 10.861C74.8477 10.637 74.8827 10.4177 74.8827 10.203C74.8827 9.98833 74.8477 9.769 74.7777 9.545C74.7124 9.31633 74.598 9.11333 74.4347 8.936C74.276 8.75867 74.0567 8.635 73.7767 8.565C73.6787 8.537 73.5714 8.52067 73.4547 8.516C73.338 8.50667 73.233 8.502 73.1397 8.502H70.7317V11.904ZM80.2469 17V6.92H86.7569V8.502H81.9339V10.987H85.9169V12.569H81.9339V15.418H86.7569V17H80.2469ZM90.3963 17V6.92H96.9063V8.502H92.0833V10.987H96.0663V12.569H92.0833V15.418H96.9063V17H90.3963Z" fill="white"/>
</g>
<path d="M97 32L105 24H97V32Z" fill="#909090"/>
<defs>
<filter id="filter0_d_8_808" x="0" y="0" width="105" height="26" filterUnits="userSpaceOnUse" color-interpolation-filters="sRGB">
<feFlood flood-opacity="0" result="BackgroundImageFix"/>
<feColorMatrix in="SourceAlpha" type="matrix" values="0 0 0 0 0 0 0 0 0 0 0 0 0 0 0 0 0 0 127 0" result="hardAlpha"/>
<feOffset dx="-2" dy="2"/>
<feComposite in2="hardAlpha" operator="out"/>
<feColorMatrix type="matrix" values="0 0 0 0 0 0 0 0 0 0 0 0 0 0 0 0 0 0 1 0"/>
<feBlend mode="normal" in2="BackgroundImageFix" result="effect1_dropShadow_8_808"/>
<feBlend mode="normal" in="SourceGraphic" in2="effect1_dropShadow_8_808" result="shape"/>
</filter>
</defs>
</svg>
