<svg width="43" height="43" viewBox="0 0 43 43" fill="none" xmlns="http://www.w3.org/2000/svg">
<rect width="43" height="43" rx="6" fill="#DEDEDE"/>
<mask id="mask0_181_400" style="mask-type:alpha" maskUnits="userSpaceOnUse" x="9" y="9" width="24" height="24">
<rect x="9" y="9" width="24" height="24" fill="#D9D9D9"/>
</mask>
<g mask="url(#mask0_181_400)">
<path d="M18.25 31L17.85 27.8C17.6333 27.7167 17.4292 27.6167 17.2375 27.5C17.0458 27.3833 16.8583 27.2583 16.675 27.125L13.7 28.375L10.95 23.625L13.525 21.675C13.5083 21.5583 13.5 21.4458 13.5 21.3375V20.6625C13.5 20.5542 13.5083 20.4417 13.525 20.325L10.95 18.375L13.7 13.625L16.675 14.875C16.8583 14.7417 17.05 14.6167 17.25 14.5C17.45 14.3833 17.65 14.2833 17.85 14.2L18.25 11H23.75L24.15 14.2C24.3667 14.2833 24.5708 14.3833 24.7625 14.5C24.9542 14.6167 25.1417 14.7417 25.325 14.875L28.3 13.625L31.05 18.375L28.475 20.325C28.4917 20.4417 28.5 20.5542 28.5 20.6625V21.3375C28.5 21.4458 28.4833 21.5583 28.45 21.675L31.025 23.625L28.275 28.375L25.325 27.125C25.1417 27.2583 24.95 27.3833 24.75 27.5C24.55 27.6167 24.35 27.7167 24.15 27.8L23.75 31H18.25ZM21.05 24.5C22.0167 24.5 22.8417 24.1583 23.525 23.475C24.2083 22.7917 24.55 21.9667 24.55 21C24.55 20.0333 24.2083 19.2083 23.525 18.525C22.8417 17.8417 22.0167 17.5 21.05 17.5C20.0667 17.5 19.2375 17.8417 18.5625 18.525C17.8875 19.2083 17.55 20.0333 17.55 21C17.55 21.9667 17.8875 22.7917 18.5625 23.475C19.2375 24.1583 20.0667 24.5 21.05 24.5Z" fill="black"/>
</g>
</svg>
