<svg width="232" height="115" viewBox="0 0 232 115" fill="none" xmlns="http://www.w3.org/2000/svg">
<g filter="url(#filter0_d_8_969)">
<rect x="26" y="17" width="190.359" height="73.2013" rx="15.5859" fill="white"/>
<rect x="26.3711" y="17.3711" width="189.617" height="72.4591" rx="15.2148" stroke="#E5E5E5" stroke-width="0.742188"/>
<path d="M43.0035 42.4375V35.4906H45.7485C45.816 35.4906 45.8964 35.4938 45.9897 35.5003C46.083 35.5035 46.173 35.5131 46.2599 35.5292C46.6362 35.5871 46.9513 35.7158 47.2054 35.9152C47.4627 36.1146 47.6557 36.367 47.7843 36.6726C47.913 36.9749 47.9773 37.311 47.9773 37.6808C47.9773 38.2179 47.8374 38.6843 47.5576 39.0798C47.2778 39.4722 46.8677 39.7182 46.3274 39.8179L45.9994 39.871H43.8622V42.4375H43.0035ZM47.1379 42.4375L45.7678 39.6105L46.6169 39.35L48.122 42.4375H47.1379ZM43.8622 39.0557H45.7196C45.7807 39.0557 45.8498 39.0525 45.927 39.0461C46.0074 39.0396 46.083 39.0284 46.1537 39.0123C46.3756 38.9608 46.5557 38.8676 46.694 38.7325C46.8356 38.5942 46.9385 38.4334 47.0028 38.2501C47.0671 38.0635 47.0993 37.8738 47.0993 37.6808C47.0993 37.4879 47.0671 37.2997 47.0028 37.1164C46.9385 36.9299 46.8356 36.7674 46.694 36.6291C46.5557 36.4908 46.3756 36.3976 46.1537 36.3493C46.083 36.33 46.0074 36.3188 45.927 36.3156C45.8498 36.3091 45.7807 36.3059 45.7196 36.3059H43.8622V39.0557ZM50.5353 42.4375V35.4906H54.9254V36.3059H51.394V38.4816H54.3465V39.2969H51.394V41.6222H54.9254V42.4375H50.5353ZM59.134 42.4375L56.8087 35.4906H57.7012L59.7225 41.5257L61.7632 35.4906H62.6556L60.3304 42.4375H59.134ZM64.8286 42.4375V35.4906H65.6873V42.4375H64.8286ZM68.4856 42.4375V35.4906H72.8756V36.3059H69.3443V38.4816H72.2967V39.2969H69.3443V41.6222H72.8756V42.4375H68.4856ZM76.8671 42.4375L74.8554 35.4906H75.7527L77.2965 40.9854L78.8354 35.4954L79.7375 35.4906L81.2813 40.9854L82.8202 35.4906H83.7223L81.7106 42.4375H80.8519L79.2889 36.991L77.7258 42.4375H76.8671ZM85.8953 42.4375V35.4906H90.2854V36.3059H86.7541V38.4816H89.7065V39.2969H86.7541V41.6222H90.2854V42.4375H85.8953ZM92.7959 42.4375V35.4906H94.9378C95.0086 35.4906 95.1324 35.4922 95.3093 35.4954C95.4862 35.4987 95.655 35.5115 95.8158 35.534C96.3529 35.6048 96.8016 35.801 97.1618 36.1226C97.5252 36.441 97.7986 36.8462 97.9819 37.3383C98.1652 37.8304 98.2569 38.3723 98.2569 38.9641C98.2569 39.5558 98.1652 40.0978 97.9819 40.5898C97.7986 41.0819 97.5252 41.4887 97.1618 41.8104C96.8016 42.1287 96.3529 42.3233 95.8158 42.3941C95.655 42.4134 95.4846 42.4262 95.3045 42.4327C95.1276 42.4359 95.0054 42.4375 94.9378 42.4375H92.7959ZM93.6787 41.6174H94.9378C95.06 41.6174 95.1967 41.6142 95.3479 41.6077C95.499 41.5981 95.6309 41.5836 95.7435 41.5643C96.123 41.4936 96.4301 41.3344 96.6649 41.0867C96.8997 40.8391 97.0717 40.5303 97.1811 40.1605C97.2904 39.7906 97.3451 39.3918 97.3451 38.9641C97.3451 38.5267 97.2888 38.123 97.1762 37.7532C97.0669 37.3833 96.8948 37.0762 96.6601 36.8318C96.4253 36.5873 96.1197 36.4313 95.7435 36.3638C95.6309 36.3413 95.4974 36.3268 95.343 36.3204C95.1887 36.314 95.0536 36.3107 94.9378 36.3107H93.6787V41.6174ZM106.997 42.4375V41.1591H103.803V40.3438L106.095 35.4906H107.069L104.778 40.3438H106.997V38.39H107.865V40.3438H108.589V41.1591H107.865V42.4375H106.997ZM111.061 42.4375V41.492H112.006V42.4375H111.061ZM117.858 42.4375V41.1591H114.665V40.3438L116.956 35.4906H117.931L115.639 40.3438H117.858V38.39H118.727V40.3438H119.45V41.1591H118.727V42.4375H117.858ZM123.702 41.1591V39.3162H121.86V38.6071H123.702V36.769H124.412V38.6071H126.25V39.3162H124.412V41.1591H123.702Z" fill="black"/>
<mask id="mask0_8_969" style="mask-type:alpha" maskUnits="userSpaceOnUse" x="134" y="33" width="12" height="12">
<rect x="134.008" y="33" width="11.875" height="11.875" fill="#D9D9D9"/>
</mask>
<g mask="url(#mask0_8_969)">
<path d="M139.945 41.0594L138.045 42.1954C137.973 42.2291 137.908 42.2426 137.848 42.2359C137.789 42.2292 137.734 42.2091 137.684 42.1755C137.633 42.1419 137.597 42.0913 137.573 42.0237C137.55 41.9562 137.549 41.8897 137.57 41.8243L138.069 39.7129L136.394 38.2914C136.339 38.2445 136.305 38.1888 136.292 38.1244C136.278 38.06 136.281 37.9977 136.299 37.9374C136.317 37.8772 136.352 37.8274 136.402 37.7881C136.452 37.7487 136.512 37.7265 136.583 37.7214L138.776 37.5255L139.647 35.511C139.678 35.4425 139.72 35.3919 139.772 35.3593C139.824 35.3266 139.882 35.3103 139.945 35.3103C140.009 35.3103 140.066 35.3266 140.118 35.3593C140.171 35.3919 140.212 35.4425 140.244 35.511L141.115 37.5378L143.308 37.7214C143.378 37.7265 143.439 37.7508 143.489 37.7943C143.539 37.8377 143.573 37.8895 143.592 37.9497C143.61 38.01 143.61 38.0703 143.593 38.1306C143.576 38.1909 143.539 38.2445 143.484 38.2914L141.822 39.7129L142.32 41.8243C142.342 41.8897 142.341 41.9562 142.317 42.0237C142.294 42.0913 142.257 42.1419 142.207 42.1755C142.157 42.2091 142.102 42.2292 142.042 42.2359C141.983 42.2426 141.917 42.2291 141.845 42.1954L139.945 41.0594Z" fill="#FFC619"/>
</g>
<mask id="mask1_8_969" style="mask-type:alpha" maskUnits="userSpaceOnUse" x="145" y="33" width="13" height="12">
<rect x="145.883" y="33" width="11.875" height="11.875" fill="#D9D9D9"/>
</mask>
<g mask="url(#mask1_8_969)">
<path d="M151.82 41.0594L149.92 42.1954C149.848 42.2291 149.783 42.2426 149.723 42.2359C149.664 42.2292 149.609 42.2091 149.559 42.1755C149.508 42.1419 149.472 42.0913 149.448 42.0237C149.425 41.9562 149.424 41.8897 149.445 41.8243L149.944 39.7129L148.269 38.2914C148.214 38.2445 148.18 38.1888 148.167 38.1244C148.153 38.06 148.156 37.9977 148.174 37.9374C148.192 37.8772 148.227 37.8274 148.277 37.7881C148.327 37.7487 148.387 37.7265 148.458 37.7214L150.651 37.5255L151.522 35.511C151.553 35.4425 151.595 35.3919 151.647 35.3593C151.699 35.3266 151.757 35.3103 151.82 35.3103C151.884 35.3103 151.941 35.3266 151.993 35.3593C152.046 35.3919 152.087 35.4425 152.119 35.511L152.99 37.5378L155.183 37.7214C155.253 37.7265 155.314 37.7508 155.364 37.7943C155.414 37.8377 155.448 37.8895 155.467 37.9497C155.485 38.01 155.485 38.0703 155.468 38.1306C155.451 38.1909 155.414 38.2445 155.359 38.2914L153.697 39.7129L154.195 41.8243C154.217 41.8897 154.216 41.9562 154.192 42.0237C154.169 42.0913 154.132 42.1419 154.082 42.1755C154.032 42.2091 153.977 42.2292 153.917 42.2359C153.858 42.2426 153.792 42.2291 153.72 42.1954L151.82 41.0594Z" fill="#FFC619"/>
</g>
<mask id="mask2_8_969" style="mask-type:alpha" maskUnits="userSpaceOnUse" x="157" y="33" width="13" height="12">
<rect x="157.758" y="33" width="11.875" height="11.875" fill="#D9D9D9"/>
</mask>
<g mask="url(#mask2_8_969)">
<path d="M163.695 41.0594L161.795 42.1954C161.723 42.2291 161.658 42.2426 161.598 42.2359C161.539 42.2292 161.484 42.2091 161.434 42.1755C161.383 42.1419 161.347 42.0913 161.323 42.0237C161.3 41.9562 161.299 41.8897 161.32 41.8243L161.819 39.7129L160.144 38.2914C160.089 38.2445 160.055 38.1888 160.042 38.1244C160.028 38.06 160.031 37.9977 160.049 37.9374C160.067 37.8772 160.102 37.8274 160.152 37.7881C160.202 37.7487 160.262 37.7265 160.333 37.7214L162.526 37.5255L163.397 35.511C163.428 35.4425 163.47 35.3919 163.522 35.3593C163.574 35.3266 163.632 35.3103 163.695 35.3103C163.759 35.3103 163.816 35.3266 163.868 35.3593C163.921 35.3919 163.962 35.4425 163.994 35.511L164.865 37.5378L167.058 37.7214C167.128 37.7265 167.189 37.7508 167.239 37.7943C167.289 37.8377 167.323 37.8895 167.342 37.9497C167.36 38.01 167.36 38.0703 167.343 38.1306C167.326 38.1909 167.289 38.2445 167.234 38.2914L165.572 39.7129L166.07 41.8243C166.092 41.8897 166.091 41.9562 166.067 42.0237C166.044 42.0913 166.007 42.1419 165.957 42.1755C165.907 42.2091 165.852 42.2292 165.792 42.2359C165.733 42.2426 165.667 42.2291 165.595 42.1954L163.695 41.0594Z" fill="#FFC619"/>
</g>
<mask id="mask3_8_969" style="mask-type:alpha" maskUnits="userSpaceOnUse" x="169" y="33" width="13" height="12">
<rect x="169.633" y="33" width="11.875" height="11.875" fill="#D9D9D9"/>
</mask>
<g mask="url(#mask3_8_969)">
<path d="M175.57 41.0594L173.67 42.1954C173.598 42.2291 173.533 42.2426 173.473 42.2359C173.414 42.2292 173.359 42.2091 173.309 42.1755C173.258 42.1419 173.222 42.0913 173.198 42.0237C173.175 41.9562 173.174 41.8897 173.195 41.8243L173.694 39.7129L172.019 38.2914C171.964 38.2445 171.93 38.1888 171.917 38.1244C171.903 38.06 171.906 37.9977 171.924 37.9374C171.942 37.8772 171.977 37.8274 172.027 37.7881C172.077 37.7487 172.137 37.7265 172.208 37.7214L174.401 37.5255L175.272 35.511C175.303 35.4425 175.345 35.3919 175.397 35.3593C175.449 35.3266 175.507 35.3103 175.57 35.3103C175.634 35.3103 175.691 35.3266 175.743 35.3593C175.796 35.3919 175.837 35.4425 175.869 35.511L176.74 37.5378L178.933 37.7214C179.003 37.7265 179.064 37.7508 179.114 37.7943C179.164 37.8377 179.198 37.8895 179.217 37.9497C179.235 38.01 179.235 38.0703 179.218 38.1306C179.201 38.1909 179.164 38.2445 179.109 38.2914L177.447 39.7129L177.945 41.8243C177.967 41.8897 177.966 41.9562 177.942 42.0237C177.919 42.0913 177.882 42.1419 177.832 42.1755C177.782 42.2091 177.727 42.2292 177.667 42.2359C177.608 42.2426 177.542 42.2291 177.47 42.1954L175.57 41.0594Z" fill="#FFC619"/>
</g>
<mask id="mask4_8_969" style="mask-type:alpha" maskUnits="userSpaceOnUse" x="181" y="33" width="13" height="12">
<rect x="181.508" y="33" width="11.875" height="11.875" fill="#D9D9D9"/>
</mask>
<g mask="url(#mask4_8_969)">
<path d="M187.445 36.4388V40.3105L189.041 41.2506L188.62 39.4694L189.993 38.2942L188.175 38.1334L187.445 36.4388ZM187.445 41.0594L185.545 42.1954C185.473 42.2291 185.408 42.2426 185.348 42.2359C185.289 42.2292 185.234 42.2091 185.184 42.1755C185.133 42.1419 185.097 42.0913 185.073 42.0237C185.05 41.9562 185.049 41.8897 185.07 41.8243L185.569 39.7129L183.894 38.2914C183.839 38.2445 183.805 38.1888 183.792 38.1244C183.778 38.06 183.781 37.9977 183.799 37.9374C183.817 37.8772 183.852 37.8274 183.902 37.7881C183.952 37.7487 184.012 37.7265 184.083 37.7214L186.276 37.5255L187.147 35.511C187.178 35.4425 187.22 35.3919 187.272 35.3593C187.324 35.3266 187.382 35.3103 187.445 35.3103C187.509 35.3103 187.566 35.3266 187.618 35.3593C187.671 35.3919 187.712 35.4425 187.744 35.511L188.615 37.5378L190.808 37.7214C190.878 37.7265 190.939 37.7508 190.989 37.7943C191.039 37.8377 191.073 37.8895 191.092 37.9497C191.11 38.01 191.11 38.0703 191.093 38.1306C191.076 38.1909 191.039 38.2445 190.984 38.2914L189.322 39.7129L189.82 41.8243C189.842 41.8897 189.841 41.9562 189.817 42.0237C189.794 42.0913 189.757 42.1419 189.707 42.1755C189.657 42.2091 189.602 42.2292 189.542 42.2359C189.483 42.2426 189.417 42.2291 189.345 42.1954L187.445 41.0594Z" fill="#FFC619"/>
</g>
<g clip-path="url(#clip0_8_969)">
<path d="M50.7765 60.5901V62.8506H56.2318C56.087 64.1011 55.6525 65.0631 54.9766 65.6883C54.2042 66.4578 52.949 67.3236 50.7765 67.3236C47.4455 67.3236 44.8385 64.6302 44.8385 61.3116C44.8385 57.993 47.3972 55.2996 50.7765 55.2996C52.5628 55.2996 53.9145 56.021 54.8801 56.9348L56.4732 55.3477C55.1214 54.0491 53.2869 53.0391 50.7765 53.0391C46.1903 53.0391 42.3281 56.7425 42.3281 61.3116C42.3281 65.8807 46.1903 69.5841 50.7765 69.5841C53.2387 69.5841 55.1214 68.7665 56.5697 67.2755C58.0663 65.7845 58.5491 63.6683 58.5491 61.9849C58.5491 61.4559 58.5008 60.9749 58.4525 60.5901H50.7765Z" fill="#4285F4"/>
<path d="M65.3074 58.7144C62.3625 58.7144 59.9004 60.9749 59.9004 64.053C59.9004 67.1312 62.3142 69.3917 65.3074 69.3917C68.3005 69.3917 70.7144 67.1793 70.7144 64.1011C70.7144 60.9749 68.3005 58.7144 65.3074 58.7144ZM65.3074 67.3235C63.666 67.3235 62.2659 65.9769 62.2659 64.1011C62.2659 62.1773 63.666 60.8787 65.3074 60.8787C66.9488 60.8787 68.3488 62.1773 68.3488 64.1011C68.3488 65.9769 66.9488 67.3235 65.3074 67.3235Z" fill="#EA4335"/>
<path d="M91.7157 59.9168H91.6191C91.0881 59.2915 90.0742 58.7144 88.7708 58.7144C86.0673 58.7144 83.75 61.023 83.75 64.053C83.75 67.035 86.0673 69.3917 88.7708 69.3917C90.0742 69.3917 91.0881 68.8145 91.6191 68.1893H91.7157V68.9588C91.7157 70.9788 90.6053 72.085 88.8673 72.085C87.419 72.085 86.55 71.075 86.1638 70.1612L84.1362 71.0269C84.7155 72.4217 86.3087 74.2013 88.9156 74.2013C91.6674 74.2013 94.0329 72.566 94.0329 68.6221V59.0029H91.8122V59.9168H91.7157ZM89.0122 67.3235C87.3707 67.3235 86.1638 65.9288 86.1638 64.1011C86.1638 62.2254 87.419 60.8787 89.0122 60.8787C90.6053 60.8787 91.8605 62.2735 91.8605 64.1492C91.9088 65.9769 90.6536 67.3235 89.0122 67.3235Z" fill="#4285F4"/>
<path d="M77.3287 58.7144C74.3839 58.7144 71.9218 60.9749 71.9218 64.053C71.9218 67.1312 74.3356 69.3917 77.3287 69.3917C80.3219 69.3917 82.7357 67.1793 82.7357 64.1011C82.7357 60.9749 80.3219 58.7144 77.3287 58.7144ZM77.3287 67.3235C75.6873 67.3235 74.2873 65.9769 74.2873 64.1011C74.2873 62.1773 75.6873 60.8787 77.3287 60.8787C78.9701 60.8787 80.3702 62.1773 80.3702 64.1011C80.3702 65.9769 78.9701 67.3235 77.3287 67.3235Z" fill="#FBBC05"/>
<path d="M95.8184 53.2795H98.1356V69.4398H95.8184V53.2795Z" fill="#34A853"/>
<path d="M105.281 67.3235C104.074 67.3235 103.253 66.7945 102.674 65.6883L109.867 62.7544L109.626 62.1292C109.191 60.9268 107.791 58.7144 105.04 58.7144C102.288 58.7144 99.9705 60.8787 99.9705 64.053C99.9705 67.035 102.239 69.3917 105.281 69.3917C107.743 69.3917 109.143 67.9007 109.771 67.035L107.936 65.8326C107.309 66.7464 106.488 67.3235 105.281 67.3235ZM105.136 60.7344C106.102 60.7344 106.922 61.2153 107.164 61.8887L102.336 63.9087C102.288 61.6963 103.929 60.7344 105.136 60.7344Z" fill="#EA4335"/>
</g>
<path d="M122.13 58.7714C122.529 58.7746 122.927 58.8505 123.326 58.9992C123.724 59.1478 124.088 59.3945 124.417 59.7392C124.746 60.0808 125.01 60.5473 125.209 61.1387C125.408 61.7302 125.508 62.4718 125.508 63.3637C125.508 64.2271 125.426 64.9941 125.261 65.6646C125.1 66.3319 124.866 66.8949 124.559 67.3535C124.256 67.8121 123.885 68.16 123.449 68.3972C123.016 68.6344 122.525 68.753 121.978 68.753C121.434 68.753 120.949 68.6455 120.522 68.4304C120.098 68.2122 119.75 67.9101 119.478 67.5243C119.209 67.1353 119.037 66.6846 118.961 66.1722H120.119C120.223 66.6182 120.43 66.9866 120.74 67.2776C121.053 67.5654 121.466 67.7093 121.978 67.7093C122.728 67.7093 123.319 67.382 123.753 66.7273C124.189 66.0726 124.407 65.1475 124.407 63.952H124.331C124.154 64.2177 123.944 64.447 123.7 64.6399C123.457 64.8328 123.187 64.9815 122.889 65.0858C122.592 65.1902 122.276 65.2424 121.94 65.2424C121.384 65.2424 120.873 65.1048 120.408 64.8296C119.946 64.5513 119.576 64.1702 119.298 63.6863C119.023 63.1993 118.885 62.6426 118.885 62.0164C118.885 61.4218 119.018 60.8778 119.284 60.3844C119.553 59.8879 119.929 59.4925 120.413 59.1984C120.9 58.9043 121.472 58.7619 122.13 58.7714ZM122.13 59.8151C121.732 59.8151 121.373 59.9148 121.053 60.114C120.737 60.3101 120.486 60.5758 120.299 60.911C120.115 61.2431 120.024 61.6116 120.024 62.0164C120.024 62.4212 120.112 62.7897 120.289 63.1218C120.47 63.4507 120.715 63.7132 121.025 63.9093C121.338 64.1022 121.694 64.1987 122.092 64.1987C122.393 64.1987 122.673 64.1402 122.932 64.0231C123.191 63.903 123.417 63.7401 123.61 63.5345C123.806 63.3258 123.96 63.0901 124.07 62.8276C124.181 62.562 124.237 62.2852 124.237 61.9974C124.237 61.6179 124.145 61.2621 123.961 60.93C123.781 60.5979 123.531 60.3291 123.212 60.1235C122.896 59.9179 122.535 59.8151 122.13 59.8151ZM130.467 58.7714C130.865 58.7746 131.264 58.8505 131.662 58.9992C132.061 59.1478 132.424 59.3945 132.753 59.7392C133.082 60.0808 133.346 60.5473 133.546 61.1387C133.745 61.7302 133.845 62.4718 133.845 63.3637C133.845 64.2271 133.762 64.9941 133.598 65.6646C133.437 66.3319 133.202 66.8949 132.896 67.3535C132.592 67.8121 132.222 68.16 131.786 68.3972C131.352 68.6344 130.862 68.753 130.315 68.753C129.771 68.753 129.285 68.6455 128.858 68.4304C128.435 68.2122 128.087 67.9101 127.815 67.5243C127.546 67.1353 127.374 66.6846 127.298 66.1722H128.455C128.56 66.6182 128.767 66.9866 129.077 67.2776C129.39 67.5654 129.803 67.7093 130.315 67.7093C131.064 67.7093 131.656 67.382 132.089 66.7273C132.526 66.0726 132.744 65.1475 132.744 63.952H132.668C132.491 64.2177 132.281 64.447 132.037 64.6399C131.793 64.8328 131.523 64.9815 131.226 65.0858C130.928 65.1902 130.612 65.2424 130.277 65.2424C129.72 65.2424 129.21 65.1048 128.745 64.8296C128.283 64.5513 127.913 64.1702 127.634 63.6863C127.359 63.1993 127.222 62.6426 127.222 62.0164C127.222 61.4218 127.355 60.8778 127.62 60.3844C127.889 59.8879 128.265 59.4925 128.749 59.1984C129.236 58.9043 129.809 58.7619 130.467 58.7714ZM130.467 59.8151C130.068 59.8151 129.709 59.9148 129.39 60.114C129.074 60.3101 128.822 60.5758 128.635 60.911C128.452 61.2431 128.36 61.6116 128.36 62.0164C128.36 62.4212 128.449 62.7897 128.626 63.1218C128.806 63.4507 129.051 63.7132 129.361 63.9093C129.674 64.1022 130.03 64.1987 130.429 64.1987C130.729 64.1987 131.009 64.1402 131.268 64.0231C131.528 63.903 131.754 63.7401 131.947 63.5345C132.143 63.3258 132.296 63.0901 132.407 62.8276C132.518 62.562 132.573 62.2852 132.573 61.9974C132.573 61.6179 132.481 61.2621 132.298 60.93C132.118 60.5979 131.868 60.3291 131.548 60.1235C131.232 59.9179 130.872 59.8151 130.467 59.8151ZM138.879 68.753C138.164 68.753 137.556 68.5585 137.053 68.1695C136.55 67.7773 136.166 67.2096 135.9 66.4664C135.634 65.72 135.501 64.8186 135.501 63.7622C135.501 62.7122 135.634 61.8156 135.9 61.0723C136.169 60.3259 136.555 59.7566 137.057 59.3644C137.563 58.9691 138.171 58.7714 138.879 58.7714C139.588 58.7714 140.193 58.9691 140.696 59.3644C141.202 59.7566 141.588 60.3259 141.854 61.0723C142.123 61.8156 142.257 62.7122 142.257 63.7622C142.257 64.8186 142.124 65.72 141.858 66.4664C141.593 67.2096 141.209 67.7773 140.706 68.1695C140.203 68.5585 139.594 68.753 138.879 68.753ZM138.879 67.7093C139.588 67.7093 140.138 67.3677 140.53 66.6846C140.922 66.0014 141.118 65.0273 141.118 63.7622C141.118 62.9209 141.028 62.2046 140.848 61.6131C140.671 61.0217 140.415 60.571 140.079 60.2611C139.747 59.9511 139.347 59.7962 138.879 59.7962C138.177 59.7962 137.628 60.1425 137.233 60.8351C136.838 61.5246 136.64 62.5003 136.64 63.7622C136.64 64.6035 136.729 65.3183 136.906 65.9066C137.083 66.4948 137.337 66.9423 137.669 67.2491C138.005 67.5559 138.408 67.7093 138.879 67.7093ZM147.988 68.6202V58.9043H151.271C152.03 58.9043 152.653 59.0339 153.14 59.2933C153.627 59.5495 153.988 59.9021 154.222 60.3512C154.456 60.8003 154.573 61.3111 154.573 61.8836C154.573 62.456 154.456 62.9636 154.222 63.4064C153.988 63.8492 153.629 64.1971 153.145 64.4501C152.661 64.7 152.042 64.8249 151.29 64.8249H148.633V63.7622H151.252C151.77 63.7622 152.188 63.6863 152.504 63.5345C152.824 63.3827 153.055 63.1676 153.197 62.8893C153.342 62.6078 153.415 62.2726 153.415 61.8836C153.415 61.4945 153.342 61.1546 153.197 60.8636C153.051 60.5726 152.819 60.3481 152.499 60.1899C152.18 60.0286 151.758 59.948 151.233 59.948H149.164V68.6202H147.988ZM152.561 64.2556L154.952 68.6202H153.586L151.233 64.2556H152.561ZM159.358 68.772C158.656 68.772 158.05 68.617 157.541 68.3071C157.035 67.994 156.645 67.5575 156.369 66.9977C156.097 66.4347 155.961 65.78 155.961 65.0336C155.961 64.2872 156.097 63.6294 156.369 63.0601C156.645 62.4876 157.027 62.0417 157.518 61.7223C158.011 61.3997 158.587 61.2384 159.244 61.2384C159.624 61.2384 159.999 61.3016 160.369 61.4281C160.739 61.5546 161.076 61.7602 161.379 62.0449C161.683 62.3263 161.925 62.6995 162.105 63.1645C162.285 63.6294 162.376 64.2018 162.376 64.8818V65.3562H156.758V64.3884H161.237C161.237 63.9773 161.155 63.6104 160.99 63.2878C160.829 62.9652 160.598 62.7106 160.298 62.524C160 62.3374 159.649 62.2441 159.244 62.2441C158.798 62.2441 158.413 62.3548 158.087 62.5762C157.764 62.7944 157.516 63.0791 157.342 63.4301C157.168 63.7812 157.081 64.1576 157.081 64.5592V65.2044C157.081 65.7547 157.176 66.2212 157.366 66.6039C157.559 66.9835 157.826 67.2729 158.167 67.4721C158.509 67.6682 158.906 67.7662 159.358 67.7662C159.652 67.7662 159.918 67.7251 160.155 67.6429C160.396 67.5575 160.603 67.431 160.777 67.2634C160.951 67.0926 161.085 66.8807 161.18 66.6277L162.262 66.9313C162.148 67.2982 161.956 67.6208 161.688 67.8991C161.419 68.1742 161.087 68.3893 160.691 68.5443C160.296 68.6961 159.852 68.772 159.358 68.772ZM169.815 61.3332L167.121 68.6202H165.982L163.288 61.3332H164.502L166.514 67.14H166.589L168.601 61.3332H169.815ZM171.293 68.6202V61.3332H172.413V68.6202H171.293ZM171.863 60.1188C171.644 60.1188 171.456 60.0444 171.298 59.8958C171.143 59.7471 171.066 59.5684 171.066 59.3597C171.066 59.151 171.143 58.9723 171.298 58.8236C171.456 58.675 171.644 58.6006 171.863 58.6006C172.081 58.6006 172.267 58.675 172.422 58.8236C172.58 58.9723 172.66 59.151 172.66 59.3597C172.66 59.5684 172.58 59.7471 172.422 59.8958C172.267 60.0444 172.081 60.1188 171.863 60.1188ZM177.519 68.772C176.817 68.772 176.211 68.617 175.702 68.3071C175.196 67.994 174.805 67.5575 174.53 66.9977C174.258 66.4347 174.122 65.78 174.122 65.0336C174.122 64.2872 174.258 63.6294 174.53 63.0601C174.805 62.4876 175.188 62.0417 175.678 61.7223C176.171 61.3997 176.747 61.2384 177.405 61.2384C177.784 61.2384 178.159 61.3016 178.529 61.4281C178.899 61.5546 179.236 61.7602 179.54 62.0449C179.843 62.3263 180.085 62.6995 180.265 63.1645C180.446 63.6294 180.536 64.2018 180.536 64.8818V65.3562H174.919V64.3884H179.397C179.397 63.9773 179.315 63.6104 179.151 63.2878C178.989 62.9652 178.758 62.7106 178.458 62.524C178.161 62.3374 177.81 62.2441 177.405 62.2441C176.959 62.2441 176.573 62.3548 176.247 62.5762C175.925 62.7944 175.676 63.0791 175.502 63.4301C175.328 63.7812 175.241 64.1576 175.241 64.5592V65.2044C175.241 65.7547 175.336 66.2212 175.526 66.6039C175.719 66.9835 175.986 67.2729 176.328 67.4721C176.669 67.6682 177.066 67.7662 177.519 67.7662C177.813 67.7662 178.078 67.7251 178.316 67.6429C178.556 67.5575 178.763 67.431 178.937 67.2634C179.111 67.0926 179.246 66.8807 179.34 66.6277L180.422 66.9313C180.308 67.2982 180.117 67.6208 179.848 67.8991C179.579 68.1742 179.247 68.3893 178.852 68.5443C178.456 68.6961 178.012 68.772 177.519 68.772ZM183.89 68.6202L181.67 61.3332H182.846L184.421 66.9123H184.497L186.053 61.3332H187.249L188.786 66.8933H188.862L190.437 61.3332H191.613L189.393 68.6202H188.293L186.698 63.0221H186.585L184.991 68.6202H183.89ZM198.255 62.9652L197.249 63.2499C197.186 63.0822 197.093 62.9194 196.969 62.7612C196.849 62.5999 196.685 62.4671 196.476 62.3627C196.267 62.2583 196 62.2062 195.674 62.2062C195.228 62.2062 194.857 62.3089 194.559 62.5145C194.265 62.7169 194.118 62.9747 194.118 63.2878C194.118 63.5661 194.219 63.7859 194.422 63.9472C194.624 64.1085 194.941 64.243 195.371 64.3505L196.452 64.6162C197.104 64.7743 197.589 65.0162 197.909 65.342C198.228 65.6646 198.388 66.0805 198.388 66.5897C198.388 67.0072 198.268 67.3804 198.027 67.7093C197.79 68.0382 197.458 68.2976 197.031 68.4873C196.604 68.6771 196.108 68.772 195.541 68.772C194.798 68.772 194.183 68.6107 193.696 68.2881C193.209 67.9655 192.901 67.4942 192.771 66.8744L193.834 66.6087C193.935 67.0009 194.126 67.295 194.408 67.4911C194.692 67.6872 195.064 67.7852 195.523 67.7852C196.044 67.7852 196.459 67.6745 196.765 67.4531C197.075 67.2286 197.23 66.9597 197.23 66.6466C197.23 66.3936 197.142 66.1817 196.965 66.0109C196.788 65.837 196.516 65.7073 196.149 65.6219L194.934 65.3373C194.267 65.1791 193.777 64.934 193.464 64.6019C193.154 64.2667 192.999 63.8476 192.999 63.3447C192.999 62.9336 193.114 62.5699 193.345 62.2536C193.579 61.9373 193.897 61.6891 194.299 61.5088C194.703 61.3285 195.162 61.2384 195.674 61.2384C196.395 61.2384 196.962 61.3965 197.373 61.7128C197.787 62.029 198.081 62.4465 198.255 62.9652Z" fill="#949494"/>
</g>
<defs>
<filter id="filter0_d_8_969" x="0.6" y="0.6" width="231.159" height="114.001" filterUnits="userSpaceOnUse" color-interpolation-filters="sRGB">
<feFlood flood-opacity="0" result="BackgroundImageFix"/>
<feColorMatrix in="SourceAlpha" type="matrix" values="0 0 0 0 0 0 0 0 0 0 0 0 0 0 0 0 0 0 127 0" result="hardAlpha"/>
<feOffset dx="-5" dy="4"/>
<feGaussianBlur stdDeviation="10.2"/>
<feComposite in2="hardAlpha" operator="out"/>
<feColorMatrix type="matrix" values="0 0 0 0 0 0 0 0 0 0 0 0 0 0 0 0 0 0 0.11 0"/>
<feBlend mode="normal" in2="BackgroundImageFix" result="effect1_dropShadow_8_969"/>
<feBlend mode="normal" in="SourceGraphic" in2="effect1_dropShadow_8_969" result="shape"/>
</filter>
<clipPath id="clip0_8_969">
<rect width="67.5391" height="21.1622" fill="white" transform="translate(42.3281 53.0391)"/>
</clipPath>
</defs>
</svg>
