<svg width="15" height="15" viewBox="0 0 15 15" fill="none" xmlns="http://www.w3.org/2000/svg">
<path d="M14.625 1.42279V13.5772C14.625 13.8551 14.5146 14.1216 14.3181 14.3181C14.1216 14.5146 13.8551 14.625 13.5772 14.625H1.42279C1.1449 14.625 0.878391 14.5146 0.681892 14.3181C0.485392 14.1216 0.375 13.8551 0.375 13.5772L0.375 1.42279C0.375 1.1449 0.485392 0.878391 0.681892 0.681892C0.878391 0.485392 1.1449 0.375 1.42279 0.375L13.5772 0.375C13.8551 0.375 14.1216 0.485392 14.3181 0.681892C14.5146 0.878391 14.625 1.1449 14.625 1.42279ZM4.56618 5.82353H2.47059V12.5294H4.56618V5.82353ZM4.75478 3.51838C4.75588 3.35987 4.72576 3.20269 4.66611 3.05582C4.60647 2.90895 4.51848 2.77526 4.40718 2.6624C4.29587 2.54953 4.16342 2.4597 4.01739 2.39802C3.87136 2.33635 3.71462 2.30404 3.5561 2.30294H3.51838C3.19603 2.30294 2.88688 2.431 2.65894 2.65894C2.431 2.88688 2.30294 3.19603 2.30294 3.51838C2.30294 3.84074 2.431 4.14989 2.65894 4.37783C2.88688 4.60577 3.19603 4.73382 3.51838 4.73382C3.67691 4.73772 3.83465 4.71035 3.98259 4.65327C4.13053 4.59618 4.26578 4.51051 4.3806 4.40114C4.49542 4.29177 4.58756 4.16084 4.65176 4.01585C4.71597 3.87085 4.75097 3.71463 4.75478 3.5561V3.51838ZM12.5294 8.45559C12.5294 6.43963 11.2469 5.65588 9.97279 5.65588C9.55562 5.63499 9.14026 5.72385 8.76815 5.91358C8.39603 6.10332 8.08017 6.3873 7.85206 6.73721H7.79338V5.82353H5.82353V12.5294H7.91912V8.96272C7.88883 8.59743 8.00389 8.23494 8.23932 7.954C8.47474 7.67306 8.81151 7.49636 9.17647 7.46228H9.2561C9.9225 7.46228 10.4171 7.8814 10.4171 8.93757V12.5294H12.5126L12.5294 8.45559Z" fill="#5A5A5A"/>
</svg>
