<svg width="16" height="14" viewBox="0 0 16 14" fill="none" xmlns="http://www.w3.org/2000/svg">
<path d="M7.24854 10L10.9985 7L7.24854 4V6.25H0.498535V7.75H7.24854V10Z" fill="#1FC6FF"/>
<path d="M8.74929 0.249293C7.86243 0.246834 6.9839 0.420376 6.1646 0.759866C5.34529 1.09936 4.60149 1.59804 3.97629 2.22704L5.03679 3.28754C6.02829 2.29604 7.34679 1.74929 8.74929 1.74929C10.1518 1.74929 11.4703 2.29604 12.4618 3.28754C13.4533 4.27904 14 5.59754 14 7.00004C14 8.40254 13.4533 9.72104 12.4618 10.7125C11.4703 11.704 10.1518 12.2508 8.74929 12.2508C7.34679 12.2508 6.02829 11.704 5.03679 10.7125L3.97629 11.773C5.25054 13.048 6.94554 13.7508 8.74929 13.7508C10.553 13.7508 12.248 13.048 13.5223 11.773C14.7973 10.4988 15.5 8.80379 15.5 7.00004C15.5 5.19629 14.7973 3.50129 13.5223 2.22704C12.8971 1.59804 12.1533 1.09936 11.334 0.759866C10.5147 0.420376 9.63614 0.246834 8.74929 0.249293Z" fill="#1FC6FF"/>
</svg>
