<svg width="16" height="12" viewBox="0 0 16 12" fill="none" xmlns="http://www.w3.org/2000/svg">
<path d="M13.0492 1.05782L12.0892 1.80782L8.00167 4.84532L3.91417 1.77782L2.95417 1.02782C2.72801 0.840725 2.45193 0.724096 2.16014 0.692378C1.86834 0.660661 1.57365 0.715249 1.31258 0.849379C1.0515 0.983509 0.835518 1.19129 0.691378 1.44697C0.547238 1.70266 0.481279 1.99501 0.501673 2.28782V10.9803C0.501673 11.2508 0.609137 11.5103 0.800424 11.7016C0.991711 11.8929 1.25115 12.0003 1.52167 12.0003H3.91417V6.21032L8.00167 9.27782L12.0892 6.21032V12.0003H14.4817C14.7522 12.0003 15.0116 11.8929 15.2029 11.7016C15.3942 11.5103 15.5017 11.2508 15.5017 10.9803V2.28782C15.5158 1.99754 15.4452 1.70942 15.2986 1.45848C15.152 1.20755 14.9357 1.0046 14.6759 0.874314C14.4161 0.744027 14.1241 0.69201 13.8353 0.724587C13.5465 0.757164 13.2734 0.872931 13.0492 1.05782Z" fill="#5A5A5A"/>
</svg>
