<svg width="18" height="19" viewBox="0 0 18 19" fill="none" xmlns="http://www.w3.org/2000/svg">
<path d="M2.52301 18.2307C2.20251 18.2307 1.9301 18.1186 1.70576 17.8942C1.48143 17.6699 1.36926 17.3975 1.36926 17.077C1.36926 16.7565 1.48143 16.484 1.70576 16.2595C1.9301 16.0352 2.20251 15.923 2.52301 15.923H4.43076L1.86151 7.51524C1.41801 7.28458 1.05843 6.95 0.782763 6.5115C0.507096 6.073 0.369263 5.58841 0.369263 5.05774C0.369263 4.29491 0.636929 3.64583 1.17226 3.11049C1.70743 2.57533 2.35643 2.30774 3.11926 2.30774C3.7501 2.30774 4.30201 2.49524 4.77501 2.87024C5.24801 3.24524 5.57176 3.72441 5.74626 4.30774H9.17701V3.05774C9.17701 2.84491 9.24876 2.66666 9.39226 2.52299C9.53593 2.37949 9.71418 2.30774 9.92701 2.30774C10.0577 2.30774 10.1794 2.34108 10.2923 2.40775C10.4051 2.47441 10.4923 2.56799 10.5538 2.68849V2.82299L12.3115 1.18475C12.4552 1.04108 12.6215 0.951661 12.8105 0.916494C12.9997 0.881161 13.1846 0.910328 13.3653 1.00399L17.2078 2.78475C17.3693 2.86541 17.4843 2.98233 17.5528 3.13549C17.6214 3.28883 17.6205 3.44108 17.55 3.59225C17.4692 3.75391 17.3522 3.85749 17.199 3.90299C17.0458 3.94849 16.8936 3.93599 16.7423 3.86549L13.0463 2.15775L10.677 4.35774V5.75775L13.0463 7.90774L16.7423 6.2C16.8936 6.1295 17.0484 6.11958 17.2068 6.17025C17.3651 6.22091 17.4795 6.32183 17.55 6.47299C17.6307 6.63449 17.6342 6.78933 17.5605 6.9375C17.4868 7.08549 17.3693 7.19991 17.2078 7.28074L13.3653 9.09225C13.1846 9.18591 12.9997 9.21349 12.8105 9.17499C12.6215 9.13649 12.4552 9.04866 12.3115 8.9115L10.5538 7.29225V7.427C10.4923 7.527 10.4051 7.61541 10.2923 7.69225C10.1794 7.76925 10.0577 7.80774 9.92701 7.80774C9.71418 7.80774 9.53593 7.73591 9.39226 7.59224C9.24876 7.44874 9.17701 7.27058 9.17701 7.05774V5.80774H5.74626C5.69626 5.98591 5.62768 6.159 5.54051 6.327C5.45318 6.49483 5.34993 6.64866 5.23076 6.78849L10.1538 15.923H12.7155C13.036 15.923 13.3084 16.0352 13.5328 16.2595C13.7571 16.484 13.8693 16.7565 13.8693 17.077C13.8693 17.3975 13.7571 17.6699 13.5328 17.8942C13.3084 18.1186 13.036 18.2307 12.7155 18.2307H2.52301ZM3.11926 6.30774C3.46676 6.30774 3.76193 6.18624 4.00476 5.94324C4.24776 5.70024 4.36926 5.40508 4.36926 5.05774C4.36926 4.71024 4.24776 4.415 4.00476 4.172C3.76193 3.92916 3.46676 3.80774 3.11926 3.80774C2.77176 3.80774 2.4766 3.92916 2.23376 4.172C1.99076 4.415 1.86926 4.71024 1.86926 5.05774C1.86926 5.40508 1.99076 5.70024 2.23376 5.94324C2.4766 6.18624 2.77176 6.30774 3.11926 6.30774ZM5.98076 15.923H8.43076L4.01551 7.7115C3.96418 7.7435 3.88335 7.77074 3.77301 7.79324C3.66285 7.81574 3.56926 7.82058 3.49226 7.80774L5.98076 15.923Z" fill="#818181"/>
</svg>
