<svg width="43" height="43" viewBox="0 0 43 43" fill="none" xmlns="http://www.w3.org/2000/svg">
<rect width="43" height="43" rx="6" fill="#E5F7EC"/>
<mask id="mask0_181_369" style="mask-type:alpha" maskUnits="userSpaceOnUse" x="9" y="9" width="24" height="24">
<rect x="9" y="9" width="24" height="24" fill="#D9D9D9"/>
</mask>
<g mask="url(#mask0_181_369)">
<path d="M14.85 21L14.55 19.5C14.35 19.4167 14.1625 19.3292 13.9875 19.2375C13.8125 19.1458 13.6333 19.0333 13.45 18.9L12 19.35L11 17.65L12.15 16.65C12.1167 16.4333 12.1 16.2167 12.1 16C12.1 15.7833 12.1167 15.5667 12.15 15.35L11 14.35L12 12.65L13.45 13.1C13.6333 12.9667 13.8125 12.8542 13.9875 12.7625C14.1625 12.6708 14.35 12.5833 14.55 12.5L14.85 11H16.85L17.15 12.5C17.35 12.5833 17.5375 12.6708 17.7125 12.7625C17.8875 12.8542 18.0667 12.9667 18.25 13.1L19.7 12.65L20.7 14.35L19.55 15.35C19.5833 15.5667 19.6 15.7833 19.6 16C19.6 16.2167 19.5833 16.4333 19.55 16.65L20.7 17.65L19.7 19.35L18.25 18.9C18.0667 19.0333 17.8875 19.1458 17.7125 19.2375C17.5375 19.3292 17.35 19.4167 17.15 19.5L16.85 21H14.85ZM15.85 18C16.4 18 16.8708 17.8042 17.2625 17.4125C17.6542 17.0208 17.85 16.55 17.85 16C17.85 15.45 17.6542 14.9792 17.2625 14.5875C16.8708 14.1958 16.4 14 15.85 14C15.3 14 14.8292 14.1958 14.4375 14.5875C14.0458 14.9792 13.85 15.45 13.85 16C13.85 16.55 14.0458 17.0208 14.4375 17.4125C14.8292 17.8042 15.3 18 15.85 18ZM23.8 32L23.35 29.9C23.0667 29.8 22.8042 29.6792 22.5625 29.5375C22.3208 29.3958 22.0833 29.2333 21.85 29.05L19.85 29.7L18.45 27.3L20.05 25.9C20.0167 25.6 20 25.3 20 25C20 24.7 20.0167 24.4 20.05 24.1L18.45 22.7L19.85 20.3L21.85 20.95C22.0833 20.7667 22.3208 20.6042 22.5625 20.4625C22.8042 20.3208 23.0667 20.2 23.35 20.1L23.8 18H26.6L27.05 20.1C27.3333 20.2 27.5958 20.3208 27.8375 20.4625C28.0792 20.6042 28.3167 20.7667 28.55 20.95L30.55 20.3L31.95 22.7L30.35 24.1C30.3833 24.4 30.4 24.7 30.4 25C30.4 25.3 30.3833 25.6 30.35 25.9L31.95 27.3L30.55 29.7L28.55 29.05C28.3167 29.2333 28.0792 29.3958 27.8375 29.5375C27.5958 29.6792 27.3333 29.8 27.05 29.9L26.6 32H23.8ZM25.2 28C26.0333 28 26.7417 27.7083 27.325 27.125C27.9083 26.5417 28.2 25.8333 28.2 25C28.2 24.1667 27.9083 23.4583 27.325 22.875C26.7417 22.2917 26.0333 22 25.2 22C24.3667 22 23.6583 22.2917 23.075 22.875C22.4917 23.4583 22.2 24.1667 22.2 25C22.2 25.8333 22.4917 26.5417 23.075 27.125C23.6583 27.7083 24.3667 28 25.2 28Z" fill="#16B751"/>
</g>
</svg>
