<svg width="18" height="18" viewBox="0 0 18 18" fill="none" xmlns="http://www.w3.org/2000/svg">
<path d="M8.99958 10.8677L2.46624 17.401C2.2218 17.6455 1.91069 17.7677 1.53291 17.7677C1.15513 17.7677 0.844021 17.6455 0.599577 17.401C0.355132 17.1566 0.23291 16.8455 0.23291 16.4677C0.23291 16.0899 0.355132 15.7788 0.599577 15.5344L7.13291 9.00104L0.599577 2.46771C0.355132 2.22326 0.23291 1.91215 0.23291 1.53438C0.23291 1.1566 0.355132 0.845486 0.599577 0.601042C0.844021 0.356597 1.15513 0.234375 1.53291 0.234375C1.91069 0.234375 2.2218 0.356597 2.46624 0.601042L8.99958 7.13438L15.5329 0.601042C15.7774 0.356597 16.0885 0.234375 16.4662 0.234375C16.844 0.234375 17.1551 0.356597 17.3996 0.601042C17.644 0.845486 17.7662 1.1566 17.7662 1.53438C17.7662 1.91215 17.644 2.22326 17.3996 2.46771L10.8662 9.00104L17.3996 15.5344C17.644 15.7788 17.7662 16.0899 17.7662 16.4677C17.7662 16.8455 17.644 17.1566 17.3996 17.401C17.1551 17.6455 16.844 17.7677 16.4662 17.7677C16.0885 17.7677 15.7774 17.6455 15.5329 17.401L8.99958 10.8677Z" fill="black"/>
</svg>
