<svg width="115" height="25" viewBox="0 0 115 25" fill="none" xmlns="http://www.w3.org/2000/svg">
<g clip-path="url(#clip0_514_3770)">
<path d="M40.6871 13.9936L40.0083 15.9146H39.9517C39.8386 15.4814 39.6311 14.8223 39.2918 14.0312L35.6527 4.89676H32.089V19.4554H34.4459V10.4716C34.4459 9.90659 34.4459 9.26624 34.4271 8.47521C34.4082 8.0797 34.3705 7.77835 34.3516 7.55235H34.4082C34.5213 8.11736 34.6533 8.53171 34.7476 8.79539L39.1221 19.4177H40.7813L45.1181 8.70122C45.2123 8.45638 45.3066 7.96669 45.4009 7.55235H45.4575C45.4009 8.62588 45.3632 9.58641 45.3443 10.1703V19.3989H47.8521V4.85909H44.4204L40.6871 13.9936ZM50.2279 8.96489H52.6791V19.3989H50.2279V8.96489ZM51.4723 4.55775C51.0575 4.55775 50.7181 4.70842 50.4353 4.97209C50.1525 5.23577 50.0016 5.57478 50.0016 5.98913C50.0016 6.38464 50.1525 6.72365 50.4353 6.98733C50.7181 7.251 51.0575 7.38284 51.4723 7.38284C51.8872 7.38284 52.2454 7.23217 52.5094 6.98733C52.7922 6.72365 52.9431 6.38464 52.9431 5.98913C52.9431 5.59361 52.7922 5.2546 52.5094 4.97209C52.2643 4.70842 51.906 4.55775 51.4723 4.55775ZM61.3714 8.87072C60.9189 8.77655 60.4475 8.72005 59.995 8.72005C58.8825 8.72005 57.8643 8.96489 57.0158 9.45458C56.1673 9.94426 55.4885 10.6223 55.0549 11.4698C54.6023 12.3362 54.3761 13.3344 54.3761 14.4832C54.3761 15.4814 54.6023 16.3666 55.036 17.1765C55.4697 17.9675 56.0731 18.6079 56.8838 19.0411C57.6569 19.4742 58.562 19.7003 59.5802 19.7003C60.7492 19.7003 61.7485 19.4554 62.5405 19.0034L62.5593 18.9846V16.7245L62.465 16.7998C62.1068 17.0635 61.692 17.2895 61.2771 17.4213C60.8435 17.572 60.4475 17.6474 60.1081 17.6474C59.1276 17.6474 58.3546 17.3648 57.8078 16.7433C57.2421 16.1406 56.9593 15.3119 56.9593 14.2761C56.9593 13.2025 57.2421 12.355 57.8266 11.7335C58.4111 11.112 59.1842 10.7918 60.127 10.7918C60.9189 10.7918 61.7297 11.0555 62.465 11.5828L62.5593 11.6582V9.26624L62.5405 9.2474C62.2199 9.11556 61.8617 8.96489 61.3714 8.87072ZM69.4604 8.79539C68.857 8.79539 68.2914 8.98373 67.8011 9.37924C67.3863 9.71825 67.1035 10.2079 66.8583 10.7918H66.8395V8.96489H64.3883V19.3989H66.8395V14.0689C66.8395 13.1649 67.028 12.4115 67.4429 11.8653C67.8577 11.3003 68.3856 11.0178 69.0267 11.0178C69.253 11.0178 69.4792 11.0743 69.7621 11.112C70.0261 11.1873 70.2146 11.2626 70.3466 11.3568L70.4409 11.4321V8.98373L70.3843 8.96489C70.2146 8.85189 69.8752 8.79539 69.4604 8.79539ZM76.1352 8.73889C74.4194 8.73889 73.0429 9.2474 72.0813 10.2456C71.1008 11.2438 70.6294 12.6187 70.6294 14.3514C70.6294 15.9711 71.1197 17.2895 72.0624 18.25C73.0052 19.1917 74.2874 19.6814 75.8901 19.6814C77.5682 19.6814 78.907 19.1729 79.8686 18.1559C80.8491 17.1388 81.3204 15.7828 81.3204 14.1066C81.3204 12.4492 80.8679 11.1308 79.944 10.1703C79.0578 9.20973 77.7568 8.73889 76.1352 8.73889ZM78.0962 16.7622C77.6436 17.346 76.9271 17.6285 76.0409 17.6285C75.1547 17.6285 74.4382 17.346 73.9291 16.7245C73.42 16.1406 73.1749 15.2931 73.1749 14.2196C73.1749 13.1084 73.4389 12.2608 73.9291 11.6582C74.4382 11.0555 75.1359 10.7541 76.0221 10.7541C76.8894 10.7541 77.5682 11.0366 78.0585 11.6205C78.5487 12.2043 78.8127 13.0519 78.8127 14.1631C78.775 15.2931 78.5676 16.1783 78.0962 16.7622ZM86.7885 13.2967C86.0154 12.9765 85.5252 12.7317 85.2989 12.5245C85.1104 12.3362 85.0161 12.0725 85.0161 11.7335C85.0161 11.451 85.1292 11.1685 85.4121 10.9801C85.6949 10.7918 86.0154 10.6976 86.4868 10.6976C86.9016 10.6976 87.3353 10.773 87.7501 10.886C88.165 10.999 88.5421 11.1685 88.8438 11.3945L88.938 11.4698V9.17207L88.8815 9.15323C88.5986 9.04023 88.2215 8.92723 87.769 8.83306C87.3165 8.75772 86.9016 8.72005 86.5622 8.72005C85.3932 8.72005 84.4316 9.00256 83.6774 9.62408C82.9232 10.2079 82.5649 10.999 82.5649 11.9218C82.5649 12.4115 82.6403 12.8447 82.81 13.2025C82.9797 13.5604 83.2248 13.8994 83.5642 14.1819C83.9036 14.4456 84.3939 14.7469 85.0727 15.0294C85.6383 15.2743 86.072 15.4626 86.336 15.6133C86.6 15.764 86.7696 15.9335 86.9016 16.0653C86.9959 16.216 87.0525 16.4043 87.0525 16.6492C87.0525 17.346 86.5245 17.685 85.4498 17.685C85.035 17.685 84.6013 17.6097 84.0922 17.4402C83.5831 17.2707 83.1117 17.0258 82.7157 16.7433L82.6215 16.668V19.0599L82.678 19.0787C83.0363 19.2482 83.47 19.3612 83.9979 19.4931C84.5259 19.5872 84.9972 19.6626 85.4121 19.6626C86.6754 19.6626 87.7124 19.3801 88.4478 18.7586C89.202 18.1559 89.598 17.3837 89.598 16.3855C89.598 15.6886 89.4094 15.0671 88.9946 14.5962C88.4478 14.1442 87.769 13.6734 86.7885 13.2967ZM96.0654 8.73889C94.3495 8.73889 92.9731 9.2474 92.0115 10.2456C91.0498 11.2438 90.5596 12.6187 90.5596 14.3514C90.5596 15.9711 91.0498 17.2895 91.9926 18.25C92.9354 19.1917 94.2175 19.6814 95.8202 19.6814C97.4984 19.6814 98.8371 19.1729 99.7987 18.1559C100.779 17.1388 101.251 15.7828 101.251 14.1066C101.251 12.4492 100.798 11.1308 99.8742 10.1703C98.988 9.20973 97.6869 8.73889 96.0654 8.73889ZM98.0075 16.7622C97.5549 17.346 96.8384 17.6285 95.9522 17.6285C95.0472 17.6285 94.3495 17.346 93.8404 16.7245C93.3313 16.1406 93.0862 15.2931 93.0862 14.2196C93.0862 13.1084 93.3502 12.2608 93.8404 11.6582C94.3495 11.0555 95.0472 10.7541 95.9334 10.7541C96.7819 10.7541 97.4795 11.0366 97.9698 11.6205C98.46 12.2043 98.724 13.0519 98.724 14.1631C98.724 15.2931 98.4789 16.1783 98.0075 16.7622ZM114.355 10.9801V8.96489H111.885V5.87612L111.81 5.89496L109.472 6.59181L109.415 6.61065V8.96489H105.719V7.64652C105.719 7.04383 105.87 6.57298 106.134 6.27164C106.398 5.97029 106.794 5.81962 107.284 5.81962C107.624 5.81962 107.982 5.89496 108.378 6.06446L108.472 6.12096V3.99273L108.416 3.97389C108.076 3.86089 107.624 3.78555 107.039 3.78555C106.304 3.78555 105.663 3.95506 105.078 4.23757C104.494 4.55775 104.06 4.99093 103.74 5.57478C103.419 6.1398 103.249 6.78015 103.249 7.51468V8.96489H101.533V10.9613H103.249V19.3989H105.719V10.9801H109.415V16.3478C109.415 18.5514 110.452 19.6626 112.526 19.6626C112.866 19.6626 113.224 19.6061 113.563 19.5496C113.921 19.4742 114.185 19.3801 114.336 19.3047L114.355 19.2859V17.2707L114.261 17.346C114.11 17.4402 113.978 17.5155 113.752 17.572C113.563 17.6285 113.393 17.6474 113.261 17.6474C112.771 17.6474 112.432 17.5343 112.187 17.2518C111.96 16.9882 111.847 16.555 111.847 15.9146V10.9801H114.355Z" fill="#737373"/>
<path d="M0.487305 0H12.0457V11.5452H0.487305V0Z" fill="#F25022"/>
<path d="M13.2525 -3.05176e-05H24.8108V11.5452H13.2525V-3.05176e-05Z" fill="#7FBA00"/>
<path d="M0.487244 12.7504H12.0456V24.2956H0.487244V12.7504Z" fill="#00A4EF"/>
<path d="M13.2525 12.7504H24.8108V24.2956H13.2525V12.7504Z" fill="#FFB900"/>
</g>
<defs>
<clipPath id="clip0_514_3770">
<rect width="113.887" height="24.2958" fill="white" transform="translate(0.487305)"/>
</clipPath>
</defs>
</svg>
