<svg width="20" height="18" viewBox="0 0 20 18" fill="none" xmlns="http://www.w3.org/2000/svg">
<g clip-path="url(#clip0_555_1323)">
<path d="M18.0999 10.3393C18.0999 7.3175 16.5932 4.85657 13.9816 3.74328C13.6887 3.61771 13.4292 3.6345 13.2784 3.78514C13.1529 3.90236 13.1362 4.13671 13.2282 4.38785C13.5044 5.08257 13.6384 5.86943 13.6384 6.78178C13.6384 10.5737 11.2612 13.0179 7.54465 13.0179C6.59878 13.0179 5.53572 12.8421 4.95816 12.5575C4.66519 12.4152 4.4057 12.4152 4.25503 12.5491C4.08762 12.6914 4.06251 12.9509 4.18807 13.2773C5.20927 15.8471 7.90458 17.5714 10.9682 17.5714C15.0363 17.5714 18.0999 14.5664 18.0999 10.3393ZM10.4492 4.04464C10.4492 3.88557 10.3404 3.77678 10.173 3.76007C7.93808 3.48378 7.87944 3.375 7.51117 1.10657C7.48606 0.930784 7.39398 0.821999 7.23494 0.821999C7.0759 0.821999 6.97545 0.930784 6.95034 1.07307C6.51507 3.35828 6.52344 3.48378 4.28852 3.76007C4.1211 3.77678 4.01229 3.88557 4.01229 4.04464C4.01229 4.19528 4.1211 4.30414 4.28014 4.32921C6.54856 4.61386 6.62389 4.69757 6.95034 7.01621C6.96709 7.1585 7.0759 7.26728 7.23494 7.26728C7.38561 7.26728 7.48606 7.1585 7.51117 7.01621C7.95479 4.69757 7.95479 4.62221 10.1897 4.32921C10.3404 4.30414 10.4492 4.19528 10.4492 4.04464ZM4.78237 8.04578C4.78237 7.94528 4.72378 7.89507 4.63171 7.87836C3.23382 7.61886 3.20034 7.62721 2.92412 6.17078C2.90737 6.07871 2.84878 6.01171 2.74834 6.01171C2.64789 6.01171 2.58929 6.07871 2.57255 6.17078C2.27959 7.62721 2.2461 7.577 0.864964 7.87836C0.772888 7.89507 0.714294 7.94528 0.714294 8.04578C0.714294 8.14621 0.772888 8.20478 0.864964 8.22157C2.2461 8.5145 2.27959 8.46428 2.57255 9.92078C2.58929 10.0212 2.64789 10.0798 2.74834 10.0798C2.84878 10.0798 2.90737 10.0212 2.92412 9.92078C3.21709 8.46428 3.23382 8.481 4.63171 8.22157C4.72378 8.20478 4.78237 8.14621 4.78237 8.04578Z" fill="#828282"/>
</g>
<defs>
<clipPath id="clip0_555_1323">
<rect width="16.7494" height="18.7416" fill="white" transform="translate(0.714294 17.5714) rotate(-90)"/>
</clipPath>
</defs>
</svg>
