<svg width="134" height="74" viewBox="0 0 134 74" fill="none" xmlns="http://www.w3.org/2000/svg">
<path d="M55.623 28.3416L113.194 46.0025C114.394 46.3705 114.994 46.5545 115.381 46.9286C115.721 47.2577 115.948 47.6859 116.03 48.152C116.123 48.6819 115.938 49.2818 115.57 50.4816L111.173 64.816C110.805 66.0158 110.621 66.6157 110.247 67.0023C109.918 67.3424 109.49 67.5696 109.024 67.6513C108.494 67.7442 107.894 67.5602 106.694 67.1921L49.1228 49.5312L55.623 28.3416Z" fill="#E8E8E8"/>
<path d="M61.8265 47.0664L58.5834 46.0715L61.5193 36.5009L64.8279 37.5159C65.7781 37.8074 66.5355 38.2494 67.1003 38.8419C67.6691 39.4322 68.0279 40.1405 68.1766 40.9667C68.3254 41.7929 68.2473 42.7029 67.9425 43.6967C67.6366 44.6937 67.1884 45.4936 66.5979 46.0964C66.0105 46.7002 65.3106 47.0871 64.4983 47.2572C63.6891 47.4282 62.7985 47.3646 61.8265 47.0664ZM60.7773 45.1033L62.2026 45.5405C62.8693 45.7451 63.4627 45.7942 63.9827 45.6878C64.5037 45.5784 64.9509 45.315 65.3243 44.8978C65.6987 44.4775 65.9981 43.9013 66.2227 43.1692C66.4473 42.4371 66.5215 41.7951 66.4454 41.2434C66.3701 40.6886 66.1497 40.2239 65.784 39.8493C65.4224 39.4725 64.9176 39.1847 64.2696 38.9859L62.7929 38.5329L60.7773 45.1033ZM72.1306 39.7561L69.1947 49.3267L67.4609 48.7949L70.3969 39.2243L72.1306 39.7561ZM77.7442 44.3567C77.8258 43.9352 77.7394 43.5611 77.4852 43.2343C77.2341 42.9084 76.8515 42.6666 76.3374 42.5089C75.976 42.3981 75.6493 42.3575 75.3573 42.3872C75.0653 42.4169 74.8221 42.5042 74.6276 42.6491C74.4332 42.794 74.2976 42.9859 74.2209 43.2248C74.1598 43.4242 74.1519 43.611 74.1973 43.7851C74.2459 43.9602 74.3338 44.1235 74.4612 44.2751C74.5895 44.4235 74.7397 44.5616 74.9118 44.6894C75.084 44.8172 75.261 44.9346 75.4429 45.0415L76.2714 45.5411C76.6069 45.7361 76.9194 45.9563 77.2088 46.2019C77.5013 46.4484 77.7465 46.7213 77.9444 47.0207C78.1455 47.3209 78.2766 47.6492 78.3377 48.0054C78.3989 48.3616 78.3659 48.7469 78.2388 49.1612C78.0668 49.722 77.772 50.1718 77.3544 50.5107C76.9378 50.8465 76.4217 51.0512 75.806 51.1248C75.1944 51.1962 74.5054 51.1144 73.739 50.8793C72.9944 50.6509 72.3833 50.3373 71.9057 49.9385C71.4313 49.5407 71.1077 49.0734 70.935 48.5363C70.7654 48.0003 70.7656 47.4107 70.9356 46.7675L72.6413 47.2907C72.564 47.6317 72.5817 47.9405 72.6946 48.2172C72.8074 48.4938 72.992 48.7311 73.2483 48.929C73.5077 49.1279 73.8181 49.2827 74.1794 49.3936C74.5564 49.5092 74.9038 49.5545 75.2218 49.5293C75.5437 49.5019 75.8168 49.4119 76.0409 49.259C76.266 49.1031 76.4221 48.8886 76.5094 48.6154C76.5827 48.3652 76.5726 48.1371 76.479 47.9311C76.3863 47.722 76.2274 47.5233 76.0023 47.335C75.7812 47.1444 75.5127 46.953 75.1968 46.7606L74.1939 46.1462C73.4679 45.7019 72.9389 45.2039 72.6071 44.6522C72.2794 44.0983 72.2206 43.4787 72.4309 42.7933C72.6038 42.2294 72.908 41.7824 73.3433 41.4524C73.7817 41.1233 74.3015 40.9232 74.9028 40.852C75.5051 40.7777 76.1411 40.8433 76.8109 41.0487C77.4901 41.2571 78.0488 41.558 78.4871 41.9515C78.9295 42.3429 79.2331 42.7922 79.3979 43.2995C79.5636 43.8037 79.5685 44.3267 79.4125 44.8685L77.7442 44.3567ZM88.4395 48.2922L86.6918 47.756C86.7299 47.4541 86.7158 47.172 86.6497 46.9097C86.5846 46.6443 86.4762 46.4031 86.3246 46.1862C86.173 45.9693 85.9814 45.7827 85.7498 45.6264C85.5223 45.468 85.2622 45.3439 84.9693 45.254C84.449 45.0944 83.9478 45.0838 83.4656 45.2223C82.9844 45.3575 82.5532 45.6411 82.1719 46.0729C81.7915 46.5016 81.491 47.0758 81.2702 47.7955C81.0456 48.5276 80.9701 49.1793 81.0437 49.7507C81.1213 50.3199 81.3203 50.7934 81.6407 51.1712C81.9652 51.5468 82.386 51.8139 82.9032 51.9726C83.1898 52.0605 83.4692 52.1053 83.7414 52.107C84.0176 52.1065 84.2784 52.0621 84.5236 51.9737C84.772 51.8863 84.9982 51.7546 85.2021 51.5786C85.4092 51.4035 85.5823 51.1839 85.7213 50.9197L87.4661 51.4652C87.2612 51.9 86.9885 52.2834 86.6481 52.6152C86.3108 52.9481 85.9209 53.2136 85.4783 53.4119C85.0366 53.607 84.5559 53.7186 84.036 53.7466C83.5171 53.7715 82.9726 53.6965 82.4024 53.5216C81.5613 53.2635 80.8702 52.8385 80.3292 52.2465C79.7882 51.6544 79.4404 50.9325 79.2859 50.0806C79.1313 49.2288 79.2117 48.2888 79.5271 47.2608C79.8435 46.2295 80.3055 45.4067 80.9133 44.7921C81.5221 44.1744 82.2164 43.7721 82.9963 43.5853C83.7763 43.3985 84.5837 43.4332 85.4186 43.6893C85.9514 43.8527 86.4238 44.0794 86.8359 44.3695C87.248 44.6595 87.5887 45.0043 87.8581 45.404C88.1285 45.8005 88.3149 46.2429 88.4174 46.731C88.5239 47.2171 88.5313 47.7375 88.4395 48.2922ZM97.4437 52.757C97.1274 53.7882 96.6633 54.6121 96.0514 55.2289C95.4436 55.8434 94.7482 56.2437 93.9652 56.4295C93.1852 56.6163 92.3762 56.5812 91.5382 56.3241C90.7001 56.067 90.0091 55.642 89.4649 55.049C88.9249 54.4539 88.574 53.731 88.4123 52.8803C88.2546 52.0275 88.3335 51.0871 88.6489 50.059C88.9652 49.0278 89.4273 48.2049 90.0351 47.5903C90.6469 46.9736 91.3428 46.5718 92.1228 46.385C92.9058 46.1991 93.7164 46.2347 94.5544 46.4918C95.3925 46.7489 96.082 47.1735 96.623 47.7655C97.1671 48.3585 97.518 49.0814 97.6757 49.9342C97.8374 50.7848 97.7601 51.7258 97.4437 52.757ZM95.7007 52.2222C95.9233 51.4963 95.9974 50.8493 95.9229 50.281C95.8525 49.7106 95.657 49.2366 95.3366 48.8588C95.0172 48.4778 94.5973 48.2076 94.077 48.048C93.5568 47.8884 93.0576 47.8767 92.5795 48.013C92.1023 48.1461 91.6731 48.4286 91.2918 48.8604C90.9146 49.29 90.6146 49.8678 90.392 50.5937C90.1693 51.3196 90.0932 51.9678 90.1636 52.5381C90.2381 53.1064 90.4351 53.581 90.7545 53.9619C91.075 54.3397 91.4953 54.6084 92.0156 54.768C92.5358 54.9276 93.0346 54.9408 93.5117 54.8077C93.9898 54.6714 94.4175 54.3885 94.7947 53.9588C95.176 53.527 95.478 52.9481 95.7007 52.2222ZM105.926 50.1234L107.66 50.6552L105.741 56.9079C105.531 57.5933 105.184 58.1464 104.701 58.5673C104.22 58.9891 103.644 59.2571 102.971 59.3713C102.3 59.4823 101.575 59.4183 100.796 59.1794C100.014 58.9395 99.376 58.5853 98.8823 58.1169C98.3896 57.6453 98.0626 57.1002 97.9013 56.4815C97.74 55.8628 97.7645 55.2107 97.9747 54.5253L99.8928 48.2726L101.627 48.8045L99.7529 54.9123C99.6306 55.3111 99.6089 55.693 99.6877 56.058C99.7698 56.4241 99.944 56.7451 100.21 57.0211C100.478 57.294 100.831 57.4978 101.27 57.6326C101.71 57.7673 102.116 57.7967 102.491 57.7207C102.869 57.6425 103.194 57.4744 103.464 57.2164C103.734 56.9583 103.93 56.6299 104.052 56.2312L105.926 50.1234Z" fill="white"/>
<path d="M41.8154 38.1161C40.9008 36.6351 41.4983 34.6876 43.086 33.9743L55.6235 28.3414L49.0376 49.8105L41.8154 38.1161Z" fill="#E8E8E8"/>
<circle cx="44.7697" cy="36.4216" r="1.59875" transform="rotate(17.0542 44.7697 36.4216)" fill="white"/>
<path d="M55.3894 27.5701L123.546 44.4659C124.764 44.7679 125.373 44.9188 125.779 45.2712C126.137 45.5812 126.387 45.9964 126.494 46.4574C126.616 46.9814 126.465 47.5904 126.163 48.8085L122.555 63.3618C122.253 64.5798 122.102 65.1889 121.75 65.5954C121.44 65.9529 121.025 66.2032 120.564 66.3102C120.04 66.432 119.431 66.281 118.213 65.979L50.0563 49.0832L55.3894 27.5701Z" fill="#3DDB7F"/>
<path d="M67.2549 39.2845L66.6099 40.4441L60.314 38.8833L60.9637 37.725L67.2549 39.2845ZM62.2696 45.8445L59.9388 41.0263L60.1952 39.9719L61.8368 40.3788C62.229 40.4761 62.5724 40.4924 62.8671 40.4278C63.1657 40.3608 63.4124 40.2256 63.6073 40.022C63.806 39.8162 63.9454 39.5519 64.0254 39.2293C64.1453 38.7453 64.0994 38.321 63.8877 37.9563C63.676 37.5916 63.2569 37.3316 62.6307 37.1763L60.8467 36.7341L61.5802 35.3598L62.9941 35.7103C63.7912 35.9079 64.4201 36.1947 64.8808 36.5708C65.3455 36.9445 65.6522 37.3865 65.801 37.8968C65.953 38.4078 65.9549 38.9623 65.8067 39.5601C65.6758 40.0883 65.4625 40.5357 65.1668 40.9022C64.8711 41.2687 64.4832 41.5335 64.003 41.6964C63.5228 41.8594 62.9364 41.9021 62.2439 41.8244L62.1823 41.8293L64.2693 46.2496L64.2481 46.335L62.2696 45.8445ZM67.8524 36.9147L67.1932 38.0908L62.0929 36.8063L62.7474 35.6491L67.8524 36.9147ZM69.4113 47.7559C68.7787 47.5991 68.2419 47.3401 67.801 46.979C67.3608 46.6147 67.0454 46.1874 66.8548 45.697C66.6673 45.2073 66.6307 44.6913 66.745 44.1489L68.453 44.5723C68.3859 44.9786 68.4775 45.3472 68.7279 45.6778C68.9791 46.0053 69.3245 46.2236 69.7641 46.3326C70.1089 46.418 70.4353 46.415 70.7434 46.3235C71.0514 46.232 71.3179 46.0647 71.5426 45.8216C71.7674 45.5786 71.9229 45.2763 72.0091 44.915C72.1032 44.5488 72.1065 44.2038 72.0189 43.88C71.9314 43.5561 71.77 43.2794 71.5348 43.0499C71.3004 42.8172 71.0045 42.6565 70.647 42.5679C70.3568 42.4926 70.0572 42.4754 69.7483 42.5164C69.4393 42.5573 69.1803 42.6475 68.9711 42.787L67.4464 42.1321L69.1961 37.2477L74.8325 38.645L74.4679 40.1158L70.288 39.0796L69.3695 41.5865L69.4264 41.6006C69.6592 41.4333 69.9574 41.3209 70.3208 41.2633C70.685 41.2025 71.0633 41.2207 71.4555 41.318C72.0438 41.4638 72.5343 41.7331 72.9271 42.126C73.3207 42.5156 73.5904 42.9853 73.7361 43.5351C73.8818 44.0849 73.8774 44.6714 73.723 45.2945C73.5638 45.9366 73.2732 46.4722 72.8512 46.9014C72.4332 47.3283 71.926 47.6205 71.3295 47.7782C70.7371 47.9335 70.0977 47.9261 69.4113 47.7559ZM77.3985 49.7913C76.6172 49.5977 75.9957 49.2337 75.5339 48.6996C75.076 48.163 74.7897 47.4827 74.6751 46.6586C74.5643 45.8321 74.6403 44.8891 74.903 43.8295C75.1688 42.7706 75.5426 41.9064 76.0241 41.2368C76.5097 40.5649 77.0794 40.1018 77.7333 39.8476C78.3904 39.5941 79.108 39.5639 79.8861 39.7568C80.6642 39.9496 81.2845 40.3116 81.7471 40.8426C82.2098 41.3736 82.4972 42.0492 82.6095 42.8693C82.7249 43.6903 82.6517 44.629 82.3898 45.6854C82.1263 46.7482 81.7511 47.6187 81.264 48.297C80.7808 48.9729 80.2103 49.4392 79.5524 49.6958C78.8977 49.9532 78.1798 49.985 77.3985 49.7913ZM77.7666 48.3063C78.3739 48.4569 78.9272 48.2767 79.4265 47.766C79.9297 47.2528 80.326 46.4127 80.6154 45.2455C80.8067 44.4738 80.8868 43.8054 80.8556 43.2403C80.8245 42.6753 80.6947 42.2234 80.4664 41.8848C80.2389 41.5431 79.9243 41.3224 79.5226 41.2228C78.9185 41.073 78.3664 41.2551 77.8663 41.7691C77.367 42.2798 76.9723 43.1136 76.6822 44.2705C76.4869 45.0447 76.4029 45.7154 76.4301 46.2829C76.4605 46.8511 76.5894 47.3061 76.8169 47.6478C77.0452 47.9865 77.3618 48.2059 77.7666 48.3063ZM85.6418 51.8348C84.8605 51.6412 84.239 51.2772 83.7772 50.7431C83.3193 50.2065 83.033 49.5262 82.9183 48.7021C82.8076 47.8756 82.8836 46.9326 83.1463 45.873C83.4121 44.8141 83.7858 43.9499 84.2674 43.2803C84.753 42.6084 85.3227 42.1453 85.9766 41.8911C86.6337 41.6376 87.3513 41.6074 88.1294 41.8003C88.9075 41.9931 89.5278 42.3551 89.9904 42.8861C90.453 43.4171 90.7405 44.0927 90.8528 44.9128C90.9682 45.7338 90.895 46.6725 90.6331 47.7289C90.3696 48.7917 89.9944 49.6622 89.5073 50.3405C89.0241 51.0164 88.4536 51.4827 87.7957 51.7393C87.141 51.9967 86.4231 52.0285 85.6418 51.8348ZM86.0099 50.3498C86.6172 50.5004 87.1705 50.3202 87.6698 49.8095C88.173 49.2963 88.5693 48.4562 88.8587 47.289C89.05 46.5173 89.1301 45.8489 89.0989 45.2838C89.0678 44.7188 88.938 44.2669 88.7097 43.9283C88.4822 43.5866 88.1676 43.3659 87.7659 43.2663C87.1618 43.1165 86.6097 43.2986 86.1096 43.8126C85.6103 44.3233 85.2156 45.1571 84.9255 46.314C84.7302 47.0882 84.6462 47.7589 84.6734 48.3264C84.7038 48.8946 84.8327 49.3496 85.0602 49.6913C85.2885 50.03 85.6051 50.2494 86.0099 50.3498ZM102.967 50.7764C102.708 51.8234 102.289 52.6715 101.712 53.3207C101.139 53.9676 100.466 54.4052 99.6943 54.6335C98.9257 54.8627 98.116 54.8718 97.2652 54.6609C96.4143 54.4499 95.7011 54.0633 95.1254 53.5009C94.5536 52.9361 94.1638 52.2335 93.9558 51.3929C93.7518 50.55 93.7792 49.6067 94.0379 48.5629C94.2975 47.516 94.7139 46.6691 95.2872 46.0222C95.8645 45.373 96.5374 44.9338 97.3059 44.7046C98.0777 44.4763 98.889 44.4675 99.7398 44.6785C100.591 44.8894 101.302 45.2757 101.875 45.8373C102.451 46.3996 102.84 47.1023 103.044 47.9452C103.252 48.7857 103.227 49.7295 102.967 50.7764ZM101.197 50.3377C101.38 49.6007 101.419 48.9506 101.313 48.3873C101.212 47.8216 100.991 47.3589 100.65 46.9991C100.31 46.6362 99.8764 46.3893 99.3481 46.2584C98.8199 46.1274 98.3208 46.143 97.8509 46.3052C97.3817 46.4642 96.9686 46.7697 96.6115 47.2217C96.2583 47.6713 95.9903 48.2646 95.8076 49.0016C95.6249 49.7386 95.5843 50.3899 95.6858 50.9556C95.7913 51.5189 96.0139 51.982 96.3537 52.3449C96.6942 52.7047 97.1286 52.95 97.6568 53.0809C98.1851 53.2119 98.6837 53.1979 99.1529 53.0389C99.6228 52.8767 100.034 52.5708 100.388 52.1212C100.745 51.6692 101.015 51.0747 101.197 50.3377ZM102.759 55.8817L105.168 46.165L111.392 47.7081L111.027 49.1836L106.562 48.0769L105.908 50.7148L109.946 51.7157L109.58 53.1913L105.542 52.1904L104.519 56.318L102.759 55.8817ZM109.919 57.6567L112.328 47.9401L118.553 49.4832L118.187 50.9587L113.722 49.8519L113.068 52.4899L117.106 53.4908L116.74 54.9663L112.703 53.9654L111.679 58.0931L109.919 57.6567Z" fill="white"/>
<path d="M42.137 38.0845C41.1429 36.6558 41.6331 34.6786 43.1794 33.8796L55.3907 27.57L49.9872 49.3674L42.137 38.0845Z" fill="#3DDB7F"/>
<circle cx="44.9919" cy="36.2311" r="1.59875" transform="rotate(13.9229 44.9919 36.2311)" fill="white"/>
<path d="M45.3773 36.2663C57.7685 32.0952 80.0481 20.367 70.0364 6.82267C57.5217 -10.1077 18.1419 17.496 3.42004 8.29486" stroke="black" stroke-width="0.736092" stroke-dasharray="1.47 1.47"/>
<circle cx="3.05252" cy="8.29495" r="2.94437" fill="black"/>
</svg>
