<svg width="74" height="88" viewBox="0 0 74 88" fill="none" xmlns="http://www.w3.org/2000/svg">
<g filter="url(#filter0_b_53_21)">
<path fill-rule="evenodd" clip-rule="evenodd" d="M45.693 73.5795C45.9645 73.1241 46.4074 72.7974 46.9183 72.6556C62.5364 68.3205 74 53.999 74 37C74 16.5655 57.4345 0 37 0C16.5655 0 0 16.5655 0 37C0 53.5797 10.9051 67.6124 25.9338 72.3167C26.4176 72.4682 26.8344 72.7867 27.0939 73.2221L34.7821 86.1184C35.5578 87.4195 37.4422 87.4195 38.2179 86.1184L45.693 73.5795Z" fill="url(#paint0_linear_53_21)" fill-opacity="0.27"/>
</g>
<rect x="6" y="6" width="62" height="62" rx="31" fill="white"/>
<path fill-rule="evenodd" clip-rule="evenodd" d="M61.6075 34.3043C61.518 33.1254 61.2151 31.5659 60.7629 30.0662C59.8325 26.9684 58.215 24.1205 56.0309 21.7348C54.8848 20.4992 53.5895 19.3501 51.6585 17.9966C50.1865 17.2702 48.7391 16.4947 47.3189 15.6716C46.3847 15.1419 45.2685 14.4927 43.7926 14.0226C42.0427 13.6096 40.2539 13.383 38.4562 13.3466C36.7102 13.2869 34.9598 13.4362 33.272 13.7585C31.4932 14.0525 30.0159 14.5226 28.0565 14.9941C23.6244 16.9072 20.1892 19.7918 17.2344 23.6195C6.92573 38.0126 16.2406 58.1764 33.4526 60.5596C36.2864 60.9431 39.1203 60.7953 41.8019 60.1775L43.7016 59.6776C43.7613 59.6478 43.8523 59.6179 43.912 59.6179L46.0833 58.7942C46.2027 58.7345 46.2937 58.7046 46.4146 58.6464L47.3189 58.2346C49.054 57.3783 50.6828 56.3215 52.1718 55.0859C50.8164 56.3174 49.3423 57.4116 47.7711 58.3525L47.8606 58.4122C48.1635 58.3226 48.4336 58.2346 48.7351 58.1764C48.7351 58.1764 48.7351 58.6464 48.6754 58.5584C48.1934 58.9121 48.947 58.5882 49.911 58.0868C50.8765 57.5869 51.8107 56.9676 52.6538 56.2618C53.8909 55.2321 54.9758 54.1129 56.5129 52.2893C58.0798 49.551 60.0406 47.1663 60.945 43.9579C61.2464 43.1043 61.5165 42.1045 61.6986 41.0733C61.8776 40.0436 62 38.9841 62 37.8947C61.9702 36.8054 61.8493 35.6861 61.6075 34.3043ZM39.3009 58.5002C44.5761 57.675 49.0067 54.762 52.624 50.7881C53.6193 49.345 54.4028 48.0199 55.3668 46.5783C56.5726 43.6341 56.483 41.0151 56.874 39.1617C57.3575 35.804 56.2114 33.097 55.2474 30.2124C53.77 26.8563 51.8107 24.3552 48.3739 22.4123C39.6918 17.055 27.8759 18.5547 22.2396 26.5623C22.2097 26.5623 22.0575 26.7683 21.7561 27.1801C22.1485 25.5326 23.1439 24.5612 24.1377 23.618C27.0925 21.205 30.5292 19.2904 34.4479 18.3503C38.88 17.8787 43.2793 18.3503 47.2279 20.2634C53.1373 23.618 57.0561 28.8888 58.0499 35.1265V40.8972C56.8143 50.3464 48.6754 57.5287 39.3009 58.5002ZM60.9748 37.0113C60.7629 23.1778 46.9876 13.8466 33.5735 15.7313C29.6547 16.7013 25.3734 18.6442 22.3291 21.3527C20.8517 22.3227 20.1593 24.1194 18.682 25.561C12.7725 34.1864 13.7992 45.2248 21.1532 51.9371C22.0965 52.8697 23.1037 53.7354 24.1676 54.5277C18.0194 50.8463 15.2452 45.2815 14.2812 38.514C14.2812 36.0995 14.7632 33.7148 15.2751 31.3018C18.7133 20.7335 29.5339 13.0512 41.3214 14.9941C43.2808 15.4657 45.2401 15.9656 47.2309 16.4372C49.7021 17.4071 52.1435 18.8502 54.1028 20.7648C56.0622 22.6764 57.5396 25.0909 59.0169 27.4741C60.0108 29.3887 60.4943 31.8017 60.9763 33.7148C61.0658 34.8042 61.0658 35.9234 60.9763 37.0128L60.9748 37.0113Z" fill="black"/>
<path fill-rule="evenodd" clip-rule="evenodd" d="M48.7962 35.3923C48.6455 34.5686 48.4037 33.9209 48.1635 33.0091C47.198 31.0065 45.7818 29.447 43.912 28.1219C36.9191 23.5018 27.3028 27.9458 26.2791 35.8355C25.8881 38.9559 27.0029 41.9584 28.9921 44.255C28.3892 43.6357 27.7266 42.9895 27.2745 42.2523L27.2148 42.312C27.2745 42.4881 27.5162 42.606 27.5759 42.7821C27.5759 42.7821 27.3342 42.7821 27.3954 42.7522C27.2148 42.5478 27.3655 42.8716 27.6356 43.3119C27.8774 43.7536 28.1788 44.1669 28.5399 44.549C29.0533 45.1086 29.595 45.6085 30.4993 46.286C31.8274 46.962 33.0019 47.8454 34.5389 48.2573C34.9612 48.3767 35.4432 48.4931 35.9267 48.5811C36.4386 48.6706 36.9206 48.7005 37.4638 48.7005C37.9757 48.7005 38.5188 48.6408 39.1814 48.5214C39.8647 48.4409 40.54 48.3037 41.2005 48.111C42.6757 47.667 44.0347 46.9026 45.1804 45.8726C45.7534 45.3443 46.5682 44.6668 47.1995 43.7834C47.7128 42.7836 47.7725 42.2822 48.0143 41.8405C48.2545 41.3987 48.556 40.8988 48.7679 40.2213C48.9406 39.4176 49.0415 38.6001 49.0693 37.7785C49.0395 36.9547 48.9798 36.1593 48.7977 35.3938L48.7962 35.3923ZM41.6213 29.9186C42.6465 30.5066 42.7972 30.5946 42.254 30.2126C43.039 30.3887 43.521 30.8304 44.003 31.2721C45.1789 32.5972 46.1429 34.1567 46.6249 35.9519C46.8965 37.9829 46.6846 40.0139 45.8116 41.8106C44.2447 44.5475 41.7422 46.3725 38.7576 46.8724C38.4263 46.8724 38.0652 46.8724 37.7324 46.9023C38.577 46.7546 39.1202 46.2248 40.6573 45.6652C42.3137 45.0772 44.1836 42.3404 45.0894 40.7496C47.7412 36.422 44.6059 32.4197 41.6213 29.9186ZM35.9551 46.9306C31.3738 46.4606 27.846 42.7224 27.364 38.3948C27.7848 40.8093 29.2324 42.6627 31.1917 44.3117C31.8856 44.7534 32.9093 45.3712 33.6033 45.8129C34.7792 46.2546 35.4716 46.7262 36.6177 46.9321L35.9551 46.9306ZM48.2829 39.0723C48.0739 39.9855 47.862 40.8675 47.6501 41.7808C47.198 42.9 46.5354 44.0475 45.6311 44.9593C44.7268 45.8726 43.5807 46.5785 42.4361 47.256C41.5318 47.726 40.3857 47.9618 39.4515 48.1961C38.9083 48.2558 38.2756 48.02 37.7324 47.9917C44.4253 47.8141 49.0066 41.6047 48.0128 35.452C47.5293 33.6568 46.5652 32.0958 45.3893 30.5364C44.9073 29.8589 43.9717 29.447 43.2792 28.7695C39.0889 26.1506 33.5436 26.6803 30.3784 30.1245C29.9346 30.5771 29.5213 31.0587 29.1413 31.5661C30.8306 29.0934 33.5436 27.3578 36.7982 26.8564C37.9443 26.8266 39.1202 27.034 40.2648 27.2399C45.3296 28.7695 49.0977 33.6568 48.2829 39.0738V39.0723Z" fill="#D7DF23"/>
<defs>
<filter id="filter0_b_53_21" x="-4.4" y="-4.4" width="82.8" height="95.8942" filterUnits="userSpaceOnUse" color-interpolation-filters="sRGB">
<feFlood flood-opacity="0" result="BackgroundImageFix"/>
<feGaussianBlur in="BackgroundImageFix" stdDeviation="2.2"/>
<feComposite in2="SourceAlpha" operator="in" result="effect1_backgroundBlur_53_21"/>
<feBlend mode="normal" in="SourceGraphic" in2="effect1_backgroundBlur_53_21" result="shape"/>
</filter>
<linearGradient id="paint0_linear_53_21" x1="37" y1="77.5" x2="37" y2="87.0942" gradientUnits="userSpaceOnUse">
<stop stop-color="#A1A547"/>
<stop offset="1" stop-color="#F6FF3B"/>
</linearGradient>
</defs>
</svg>
