<svg width="84" height="32" viewBox="0 0 84 32" fill="none" xmlns="http://www.w3.org/2000/svg">
<g filter="url(#filter0_d_8_550)">
<rect width="82" height="24" transform="translate(2)" fill="white"/>
<path d="M11.73 17V8.761L9.84 9.916V8.054L11.73 6.92H13.452V17H11.73ZM21.7047 17.21C20.9907 17.21 20.3607 17.0583 19.8147 16.755C19.2687 16.447 18.8417 16.02 18.5337 15.474C18.2303 14.928 18.0787 14.298 18.0787 13.584V10.336C18.0787 9.622 18.2303 8.992 18.5337 8.446C18.8417 7.9 19.2687 7.47533 19.8147 7.172C20.3607 6.864 20.9907 6.71 21.7047 6.71C22.4187 6.71 23.0463 6.864 23.5877 7.172C24.1337 7.47533 24.5607 7.9 24.8687 8.446C25.1767 8.992 25.3307 9.622 25.3307 10.336V13.584C25.3307 14.298 25.1767 14.928 24.8687 15.474C24.5607 16.02 24.1337 16.447 23.5877 16.755C23.0463 17.0583 22.4187 17.21 21.7047 17.21ZM21.7047 15.607C22.0593 15.607 22.3813 15.523 22.6707 15.355C22.96 15.1823 23.1887 14.9537 23.3567 14.669C23.5247 14.3797 23.6087 14.0577 23.6087 13.703V10.21C23.6087 9.85067 23.5247 9.52867 23.3567 9.244C23.1887 8.95467 22.96 8.726 22.6707 8.558C22.3813 8.38533 22.0593 8.299 21.7047 8.299C21.35 8.299 21.028 8.38533 20.7387 8.558C20.4493 8.726 20.2207 8.95467 20.0527 9.244C19.8847 9.52867 19.8007 9.85067 19.8007 10.21V13.703C19.8007 14.0577 19.8847 14.3797 20.0527 14.669C20.2207 14.9537 20.4493 15.1823 20.7387 15.355C21.028 15.523 21.35 15.607 21.7047 15.607ZM30.6535 17L29.5335 15.88L38.5005 6.92L39.6205 8.047L30.6535 17ZM37.5205 17.21C37.0585 17.21 36.6362 17.098 36.2535 16.874C35.8755 16.6453 35.5722 16.342 35.3435 15.964C35.1148 15.5813 35.0005 15.1567 35.0005 14.69C35.0005 14.2327 35.1172 13.8127 35.3505 13.43C35.5838 13.0473 35.8918 12.7417 36.2745 12.513C36.6572 12.2843 37.0725 12.17 37.5205 12.17C37.9825 12.17 38.4048 12.2843 38.7875 12.513C39.1702 12.737 39.4735 13.0403 39.6975 13.423C39.9262 13.801 40.0405 14.2233 40.0405 14.69C40.0405 15.1567 39.9262 15.5813 39.6975 15.964C39.4735 16.342 39.1702 16.6453 38.7875 16.874C38.4048 17.098 37.9825 17.21 37.5205 17.21ZM37.5205 15.768C37.7118 15.768 37.8892 15.719 38.0525 15.621C38.2205 15.523 38.3535 15.3923 38.4515 15.229C38.5495 15.0657 38.5985 14.886 38.5985 14.69C38.5985 14.494 38.5495 14.3143 38.4515 14.151C38.3535 13.9877 38.2205 13.857 38.0525 13.759C37.8892 13.661 37.7118 13.612 37.5205 13.612C37.3245 13.612 37.1448 13.661 36.9815 13.759C36.8182 13.857 36.6852 13.9877 36.5825 14.151C36.4845 14.3143 36.4355 14.494 36.4355 14.69C36.4355 14.886 36.4845 15.0657 36.5825 15.229C36.6852 15.3923 36.8182 15.523 36.9815 15.621C37.1448 15.719 37.3245 15.768 37.5205 15.768ZM31.6335 11.75C31.1715 11.75 30.7492 11.638 30.3665 11.414C29.9838 11.1853 29.6782 10.882 29.4495 10.504C29.2255 10.1213 29.1135 9.69667 29.1135 9.23C29.1135 8.77267 29.2302 8.35267 29.4635 7.97C29.6968 7.58733 30.0048 7.28167 30.3875 7.053C30.7702 6.82433 31.1855 6.71 31.6335 6.71C32.0955 6.71 32.5155 6.82433 32.8935 7.053C33.2762 7.277 33.5818 7.58033 33.8105 7.963C34.0392 8.341 34.1535 8.76333 34.1535 9.23C34.1535 9.69667 34.0392 10.1213 33.8105 10.504C33.5818 10.882 33.2762 11.1853 32.8935 11.414C32.5155 11.638 32.0955 11.75 31.6335 11.75ZM31.6335 10.308C31.8295 10.308 32.0092 10.259 32.1725 10.161C32.3358 10.063 32.4665 9.93233 32.5645 9.769C32.6625 9.60567 32.7115 9.426 32.7115 9.23C32.7115 9.034 32.6625 8.85433 32.5645 8.691C32.4665 8.52767 32.3358 8.397 32.1725 8.299C32.0092 8.201 31.8295 8.152 31.6335 8.152C31.4375 8.152 31.2578 8.201 31.0945 8.299C30.9312 8.397 30.8005 8.52767 30.7025 8.691C30.6045 8.85433 30.5555 9.034 30.5555 9.23C30.5555 9.426 30.6045 9.60567 30.7025 9.769C30.8005 9.93233 30.9312 10.063 31.0945 10.161C31.2578 10.259 31.4375 10.308 31.6335 10.308ZM52.8447 17.21C51.8367 17.21 50.9734 16.9907 50.2547 16.552C49.5361 16.1087 48.9831 15.4927 48.5957 14.704C48.2131 13.9153 48.0217 13.0007 48.0217 11.96C48.0217 10.9193 48.2131 10.0047 48.5957 9.216C48.9831 8.42733 49.5361 7.81367 50.2547 7.375C50.9734 6.93167 51.8367 6.71 52.8447 6.71C53.8527 6.71 54.7161 6.93167 55.4347 7.375C56.1581 7.81367 56.7111 8.42733 57.0937 9.216C57.4811 10.0047 57.6747 10.9193 57.6747 11.96C57.6747 13.0007 57.4811 13.9153 57.0937 14.704C56.7111 15.4927 56.1581 16.1087 55.4347 16.552C54.7161 16.9907 53.8527 17.21 52.8447 17.21ZM52.8447 15.621C53.5214 15.6257 54.0837 15.4763 54.5317 15.173C54.9844 14.8697 55.3227 14.4427 55.5467 13.892C55.7754 13.3413 55.8897 12.6973 55.8897 11.96C55.8897 11.2227 55.7754 10.5833 55.5467 10.042C55.3227 9.496 54.9844 9.07133 54.5317 8.768C54.0837 8.46467 53.5214 8.30833 52.8447 8.299C52.1681 8.29433 51.6057 8.44367 51.1577 8.747C50.7097 9.05033 50.3714 9.47733 50.1427 10.028C49.9187 10.5787 49.8067 11.2227 49.8067 11.96C49.8067 12.6973 49.9187 13.339 50.1427 13.885C50.3667 14.4263 50.7027 14.8487 51.1507 15.152C51.6034 15.4553 52.1681 15.6117 52.8447 15.621ZM61.028 17V6.92H67.097V8.607H62.715V11.12H66.257V12.8H62.715V17H61.028ZM70.3162 17V6.92H76.3852V8.607H72.0032V11.12H75.5452V12.8H72.0032V17H70.3162Z" fill="black"/>
</g>
<path d="M76 32L84 24H76V32Z" fill="#909090"/>
<defs>
<filter id="filter0_d_8_550" x="0" y="0" width="84" height="26" filterUnits="userSpaceOnUse" color-interpolation-filters="sRGB">
<feFlood flood-opacity="0" result="BackgroundImageFix"/>
<feColorMatrix in="SourceAlpha" type="matrix" values="0 0 0 0 0 0 0 0 0 0 0 0 0 0 0 0 0 0 127 0" result="hardAlpha"/>
<feOffset dx="-2" dy="2"/>
<feComposite in2="hardAlpha" operator="out"/>
<feColorMatrix type="matrix" values="0 0 0 0 0 0 0 0 0 0 0 0 0 0 0 0 0 0 1 0"/>
<feBlend mode="normal" in2="BackgroundImageFix" result="effect1_dropShadow_8_550"/>
<feBlend mode="normal" in="SourceGraphic" in2="effect1_dropShadow_8_550" result="shape"/>
</filter>
</defs>
</svg>
