<svg width="194" height="95" viewBox="0 0 194 95" fill="none" xmlns="http://www.w3.org/2000/svg">
<g clip-path="url(#clip0_514_4270)">
<rect x="0.7099" width="192.921" height="94.4686" rx="9.6745" fill="#9747FF"/>
<g clip-path="url(#clip1_514_4270)">
<path opacity="0.2" d="M-14.6952 34.5713V-69.7995H16.1687C33.3154 -69.7995 41.5159 -61.5989 41.5159 -44.4523V9.2241C41.5159 26.3707 33.3154 34.5713 16.1687 34.5713H-14.6952ZM10.652 -48.9253V13.6971H13.3358C15.2741 13.6971 16.1687 12.8025 16.1687 10.7151V-46.0924C16.1687 -48.0307 15.2741 -48.9253 13.3358 -48.9253H10.652ZM101.093 34.5713H76.1936L75.0008 21.5995H63.9673L62.9236 34.5713H41.0057L54.723 -69.7995H87.3762L101.093 34.5713ZM69.484 -40.4266L65.9056 0.427137H73.0625L69.484 -40.4266ZM133.969 34.5713H108.622V-48.1798H95.3519V-69.7995H147.239V-48.1798H133.969V34.5713ZM201.708 34.5713H176.808L175.615 21.5995H164.581L163.538 34.5713H141.62L155.337 -69.7995H187.99L201.708 34.5713ZM170.098 -40.4266L166.52 0.427137H173.677L170.098 -40.4266Z" fill="#CFAAFF"/>
<path opacity="0.2" d="M24.2987 81.1222C30.3168 84.8355 32.2375 89.7012 32.2375 97.1278V110.829C32.2375 123.761 25.9633 130.035 13.0308 130.035H4.06765C-8.86488 130.035 -15.1391 123.761 -15.1391 110.829V96.3596H5.98832V110.829C5.98832 111.981 6.5005 112.493 7.65291 112.493H9.0614C10.2138 112.493 10.726 111.981 10.726 110.829V99.3046C10.726 97.7681 10.2138 96.9998 8.93335 96.2315L-7.20029 86.6282C-13.3464 82.9149 -15.1391 78.0492 -15.1391 70.6226V58.0742C-15.1391 45.1416 -8.86488 38.8674 4.06765 38.8674H12.7747C25.7072 38.8674 31.9814 45.1416 31.9814 58.0742V71.2628H10.854V58.0742C10.854 56.9218 10.3418 56.4096 9.18945 56.4096H7.909C6.75659 56.4096 6.24441 56.9218 6.24441 58.0742V68.3177C6.24441 69.8543 6.75659 70.6226 8.03704 71.3908L24.2987 81.1222ZM61.7589 87.1403H83.2704V110.829C83.2704 123.761 76.9962 130.035 64.0637 130.035H54.3322C41.3997 130.035 35.1255 123.761 35.1255 110.829V58.0742C35.1255 45.1416 41.3997 38.8674 54.3322 38.8674H64.0637C76.9962 38.8674 83.0143 45.1416 83.0143 58.0742V79.0735H61.5028V58.4583C61.5028 57.3059 60.9906 56.7937 59.8382 56.7937H58.5577C57.4053 56.7937 56.8931 57.3059 56.8931 58.4583V110.444C56.8931 111.597 57.4053 112.109 58.5577 112.109H60.0943C61.2467 112.109 61.7589 111.597 61.7589 110.444V87.1403ZM108.795 39.6357V129.267H87.0277V39.6357H108.795ZM112.784 39.6357H151.197V58.2022H134.551V74.5919H150.557V93.1584H134.551V110.701H151.453V129.267H112.784V39.6357ZM201.026 129.267H181.051L172.344 93.0304L172.6 129.267H154.673V39.6357H175.545L183.099 71.903V39.6357H201.026V129.267ZM231.193 87.1403H252.705V110.829C252.705 123.761 246.431 130.035 233.498 130.035H223.767C210.834 130.035 204.56 123.761 204.56 110.829V58.0742C204.56 45.1416 210.834 38.8674 223.767 38.8674H233.498C246.431 38.8674 252.449 45.1416 252.449 58.0742V79.0735H230.937V58.4583C230.937 57.3059 230.425 56.7937 229.273 56.7937H227.992C226.84 56.7937 226.327 57.3059 226.327 58.4583V110.444C226.327 111.597 226.84 112.109 227.992 112.109H229.529C230.681 112.109 231.193 111.597 231.193 110.444V87.1403ZM256.334 39.6357H294.747V58.2022H278.102V74.5919H294.107V93.1584H278.102V110.701H295.004V129.267H256.334V39.6357Z" fill="#CFAAFF"/>
<path d="M12.2513 22.5037L14.0598 16.7673H15.466L17.2746 22.5037H16.2867L14.6454 17.3568H14.8605L13.2392 22.5037H12.2513ZM13.2591 21.2608V20.3645H16.2707V21.2608H13.2591ZM19.1899 22.5037V16.7673H20.15V21.6034H22.6835V22.5037H19.1899ZM24.5535 22.5037V16.7673H25.5135V21.6034H28.0471V22.5037H24.5535ZM34.577 22.6232C34.0034 22.6232 33.5121 22.4984 33.1031 22.2487C32.6941 21.9964 32.3794 21.6459 32.159 21.197C31.9412 20.7482 31.8323 20.2277 31.8323 19.6355C31.8323 19.0432 31.9412 18.5227 32.159 18.0739C32.3794 17.6251 32.6941 17.2758 33.1031 17.0262C33.5121 16.7739 34.0034 16.6477 34.577 16.6477C35.2383 16.6477 35.7894 16.8137 36.2302 17.1457C36.6711 17.475 36.9805 17.9198 37.1584 18.4802L36.1904 18.7471C36.0788 18.3727 35.8889 18.0805 35.6207 17.8707C35.3525 17.6583 35.0046 17.552 34.577 17.552C34.1919 17.552 33.8706 17.6383 33.613 17.811C33.358 17.9836 33.1655 18.2266 33.0353 18.54C32.9079 18.8507 32.8428 19.2159 32.8402 19.6355C32.8402 20.0551 32.9039 20.4216 33.0314 20.7349C33.1615 21.0457 33.3554 21.2873 33.613 21.46C33.8706 21.6326 34.1919 21.7189 34.577 21.7189C35.0046 21.7189 35.3525 21.6127 35.6207 21.4002C35.8889 21.1877 36.0788 20.8956 36.1904 20.5238L37.1584 20.7907C36.9805 21.3511 36.6711 21.7972 36.2302 22.1292C35.7894 22.4585 35.2383 22.6232 34.577 22.6232ZM41.5745 22.6232C41.0008 22.6232 40.5095 22.4984 40.1005 22.2487C39.6916 21.9964 39.3769 21.6459 39.1564 21.197C38.9387 20.7482 38.8298 20.2277 38.8298 19.6355C38.8298 19.0432 38.9387 18.5227 39.1564 18.0739C39.3769 17.6251 39.6916 17.2758 40.1005 17.0262C40.5095 16.7739 41.0008 16.6477 41.5745 16.6477C42.1481 16.6477 42.6394 16.7739 43.0484 17.0262C43.4601 17.2758 43.7748 17.6251 43.9925 18.0739C44.213 18.5227 44.3232 19.0432 44.3232 19.6355C44.3232 20.2277 44.213 20.7482 43.9925 21.197C43.7748 21.6459 43.4601 21.9964 43.0484 22.2487C42.6394 22.4984 42.1481 22.6232 41.5745 22.6232ZM41.5745 21.7189C41.9596 21.7215 42.2796 21.6366 42.5345 21.4639C42.7921 21.2913 42.9847 21.0483 43.1122 20.7349C43.2423 20.4216 43.3074 20.0551 43.3074 19.6355C43.3074 19.2159 43.2423 18.852 43.1122 18.5439C42.9847 18.2332 42.7921 17.9916 42.5345 17.8189C42.2796 17.6463 41.9596 17.5573 41.5745 17.552C41.1894 17.5494 40.8694 17.6344 40.6144 17.807C40.3595 17.9796 40.1669 18.2226 40.0368 18.536C39.9093 18.8494 39.8456 19.2159 39.8456 19.6355C39.8456 20.0551 39.9093 20.4202 40.0368 20.731C40.1643 21.039 40.3555 21.2794 40.6104 21.452C40.8681 21.6246 41.1894 21.7136 41.5745 21.7189ZM48.542 22.6232C48.0852 22.6232 47.6829 22.5302 47.335 22.3443C46.9897 22.1584 46.7188 21.8968 46.5223 21.5595C46.3285 21.2223 46.2315 20.8266 46.2315 20.3724V16.7752L47.2035 16.7673V20.3485C47.2035 20.5636 47.2394 20.7562 47.3111 20.9261C47.3854 21.0961 47.485 21.2409 47.6098 21.3604C47.7347 21.4772 47.8781 21.5662 48.0401 21.6273C48.2021 21.6883 48.3694 21.7189 48.542 21.7189C48.7199 21.7189 48.8886 21.6883 49.0479 21.6273C49.2099 21.5635 49.3533 21.4732 49.4782 21.3564C49.603 21.2369 49.7012 21.0921 49.773 20.9222C49.8447 20.7522 49.8805 20.561 49.8805 20.3485V16.7673H50.8525V20.3724C50.8525 20.8266 50.7542 21.2223 50.5577 21.5595C50.3639 21.8968 50.093 22.1584 49.7451 22.3443C49.3998 22.5302 48.9988 22.6232 48.542 22.6232ZM53.0812 22.5037V16.7673H55.4514C55.5072 16.7673 55.5789 16.7699 55.6665 16.7752C55.7542 16.7779 55.8352 16.7858 55.9095 16.7991C56.2415 16.8496 56.515 16.9598 56.7302 17.1298C56.9479 17.2997 57.1086 17.5148 57.2122 17.7751C57.3184 18.0327 57.3715 18.3195 57.3715 18.6356C57.3715 19.103 57.2533 19.5053 57.017 19.8426C56.7806 20.1772 56.4181 20.3844 55.9294 20.4641L55.5191 20.4999H54.0412V22.5037H53.0812ZM56.3756 22.5037L55.2443 20.1693L56.2202 19.9541L57.4631 22.5037H56.3756ZM54.0412 19.6036H55.4116C55.4647 19.6036 55.5244 19.6009 55.5908 19.5956C55.6572 19.5903 55.7183 19.5797 55.7741 19.5638C55.9334 19.5239 56.0582 19.4535 56.1485 19.3526C56.2415 19.2517 56.3066 19.1375 56.3437 19.01C56.3836 18.8826 56.4035 18.7577 56.4035 18.6356C56.4035 18.5134 56.3836 18.3886 56.3437 18.2611C56.3066 18.131 56.2415 18.0155 56.1485 17.9145C56.0582 17.8136 55.9334 17.7432 55.7741 17.7034C55.7183 17.6875 55.6572 17.6782 55.5908 17.6755C55.5244 17.6702 55.4647 17.6676 55.4116 17.6676H54.0412V19.6036ZM61.5795 22.6232C61.1598 22.6232 60.7814 22.5501 60.4441 22.4041C60.1095 22.258 59.8333 22.0495 59.6155 21.7786C59.4004 21.5051 59.2636 21.1811 59.2052 20.8066L60.2011 20.6553C60.2861 20.9952 60.4601 21.2581 60.723 21.444C60.9886 21.6299 61.294 21.7229 61.6392 21.7229C61.8437 21.7229 62.0362 21.691 62.2168 21.6273C62.3974 21.5635 62.5435 21.4706 62.655 21.3484C62.7692 21.2262 62.8263 21.0762 62.8263 20.8983C62.8263 20.8186 62.8131 20.7456 62.7865 20.6792C62.7599 20.6101 62.7201 20.549 62.667 20.4959C62.6165 20.4428 62.5501 20.395 62.4678 20.3525C62.3881 20.3074 62.2952 20.2689 62.189 20.237L60.707 19.7988C60.5796 19.7616 60.4415 19.7125 60.2927 19.6514C60.1467 19.5877 60.0073 19.5013 59.8745 19.3925C59.7443 19.2809 59.6368 19.1402 59.5518 18.9702C59.4695 18.7976 59.4283 18.5851 59.4283 18.3328C59.4283 17.9637 59.5213 17.6543 59.7072 17.4046C59.8957 17.1523 60.148 16.9638 60.464 16.839C60.7827 16.7141 61.1359 16.6531 61.5237 16.6557C61.9167 16.6584 62.2673 16.7261 62.5754 16.8589C62.8834 16.989 63.141 17.1789 63.3482 17.4285C63.5553 17.6782 63.7014 17.9796 63.7864 18.3328L62.7546 18.5121C62.7121 18.3102 62.6298 18.1389 62.5076 17.9982C62.3881 17.8548 62.2407 17.7459 62.0655 17.6715C61.8928 17.5972 61.7083 17.5573 61.5117 17.552C61.3205 17.5494 61.1426 17.5786 60.9779 17.6397C60.8159 17.6981 60.6845 17.7831 60.5836 17.8946C60.4853 18.0062 60.4362 18.1363 60.4362 18.285C60.4362 18.4258 60.4787 18.5413 60.5636 18.6316C60.6486 18.7192 60.7535 18.7896 60.8783 18.8427C61.0058 18.8932 61.1346 18.9357 61.2648 18.9702L62.2925 19.257C62.4333 19.2942 62.5913 19.3447 62.7666 19.4084C62.9419 19.4721 63.1105 19.5611 63.2725 19.6753C63.4345 19.7895 63.5673 19.9395 63.6709 20.1254C63.7771 20.3113 63.8302 20.5477 63.8302 20.8345C63.8302 21.132 63.7678 21.3936 63.643 21.6193C63.5208 21.8424 63.3548 22.0283 63.145 22.177C62.9352 22.3257 62.6949 22.4373 62.424 22.5116C62.1558 22.586 61.8742 22.6232 61.5795 22.6232ZM65.8079 22.5037V16.7673H69.5126V17.6676H66.7679V19.0817H69.0346V19.982H66.7679V21.6034H69.5126V22.5037H65.8079Z" fill="white"/>
<path d="M18.3034 61.2344H13.315V47.1624H18.3446C19.7601 47.1624 20.9785 47.4441 22 48.0075C23.0215 48.5664 23.8071 49.3703 24.3568 50.4193C24.9111 51.4683 25.1882 52.7234 25.1882 54.1846C25.1882 55.6505 24.9111 56.9102 24.3568 57.9637C23.8071 59.0173 23.017 59.8258 21.9863 60.3892C20.9602 60.9527 19.7326 61.2344 18.3034 61.2344ZM16.2902 58.6852H18.1797C19.0592 58.6852 19.799 58.5295 20.3991 58.218C21.0037 57.9019 21.4572 57.414 21.7595 56.7544C22.0665 56.0902 22.2199 55.2336 22.2199 54.1846C22.2199 53.1448 22.0665 52.2951 21.7595 51.6355C21.4572 50.9758 21.006 50.4903 20.4059 50.1788C19.8059 49.8673 19.0661 49.7116 18.1866 49.7116H16.2902V58.6852ZM29.5727 61.4336C28.8994 61.4336 28.2993 61.3168 27.7725 61.0832C27.2457 60.845 26.8289 60.4946 26.522 60.0319C26.2196 59.5647 26.0685 58.9829 26.0685 58.2867C26.0685 57.7003 26.1761 57.2079 26.3914 56.8094C26.6067 56.4109 26.8999 56.0902 27.2709 55.8474C27.642 55.6047 28.0634 55.4214 28.5352 55.2978C29.0116 55.1741 29.5109 55.087 30.0331 55.0366C30.6469 54.9725 31.1416 54.913 31.5173 54.858C31.8929 54.7985 32.1654 54.7114 32.3349 54.5969C32.5044 54.4824 32.5891 54.3129 32.5891 54.0884V54.0472C32.5891 53.612 32.4517 53.2754 32.1769 53.0372C31.9066 52.799 31.5218 52.6799 31.0225 52.6799C30.4958 52.6799 30.0766 52.7967 29.7651 53.0303C29.4536 53.2593 29.2475 53.5479 29.1467 53.896L26.4395 53.6762C26.5769 53.0349 26.8472 52.4806 27.2503 52.0134C27.6534 51.5416 28.1733 51.1797 28.81 50.9277C29.4513 50.6712 30.1934 50.543 31.0363 50.543C31.6226 50.543 32.1837 50.6117 32.7197 50.7491C33.2602 50.8865 33.7389 51.0995 34.1558 51.3881C34.5772 51.6767 34.9093 52.0477 35.1521 52.5012C35.3948 52.9501 35.5162 53.4884 35.5162 54.1159V61.2344H32.7403V59.7708H32.6579C32.4884 60.1006 32.2616 60.3915 31.9776 60.6435C31.6936 60.8908 31.3523 61.0855 30.9538 61.2275C30.5553 61.3649 30.0949 61.4336 29.5727 61.4336ZM30.411 59.4135C30.8416 59.4135 31.2218 59.3288 31.5516 59.1593C31.8814 58.9852 32.1402 58.7516 32.328 58.4585C32.5159 58.1653 32.6098 57.8332 32.6098 57.4621V56.3422C32.5181 56.4017 32.3922 56.4567 32.2318 56.5071C32.0761 56.5529 31.8997 56.5964 31.7028 56.6376C31.5058 56.6743 31.3088 56.7086 31.1119 56.7407C30.9149 56.7682 30.7362 56.7934 30.5759 56.8163C30.2324 56.8667 29.9323 56.9468 29.6758 57.0568C29.4193 57.1667 29.22 57.3156 29.078 57.5034C28.936 57.6866 28.865 57.9156 28.865 58.1905C28.865 58.589 29.0093 58.8936 29.2979 59.1043C29.5911 59.3105 29.9621 59.4135 30.411 59.4135ZM42.6268 50.6804V52.8791H36.2711V50.6804H42.6268ZM37.714 48.1518H40.6411V57.9912C40.6411 58.2615 40.6823 58.4722 40.7648 58.6234C40.8472 58.7699 40.9618 58.873 41.1083 58.9326C41.2595 58.9921 41.4336 59.0219 41.6305 59.0219C41.768 59.0219 41.9054 59.0104 42.0428 58.9875C42.1802 58.96 42.2856 58.9394 42.3589 58.9257L42.8192 61.1038C42.6727 61.1496 42.4665 61.2023 42.2008 61.2619C41.9352 61.326 41.6122 61.3649 41.232 61.3787C40.5266 61.4062 39.9082 61.3122 39.3768 61.097C38.85 60.8817 38.4401 60.5473 38.1469 60.0938C37.8537 59.6403 37.7094 59.0677 37.714 58.376V48.1518ZM46.7692 61.4336C46.0958 61.4336 45.4957 61.3168 44.9689 61.0832C44.4421 60.845 44.0253 60.4946 43.7184 60.0319C43.4161 59.5647 43.2649 58.9829 43.2649 58.2867C43.2649 57.7003 43.3725 57.2079 43.5878 56.8094C43.8031 56.4109 44.0963 56.0902 44.4673 55.8474C44.8384 55.6047 45.2598 55.4214 45.7316 55.2978C46.208 55.1741 46.7073 55.087 47.2295 55.0366C47.8433 54.9725 48.3381 54.913 48.7137 54.858C49.0893 54.7985 49.3618 54.7114 49.5313 54.5969C49.7008 54.4824 49.7856 54.3129 49.7856 54.0884V54.0472C49.7856 53.612 49.6481 53.2754 49.3733 53.0372C49.103 52.799 48.7183 52.6799 48.219 52.6799C47.6922 52.6799 47.273 52.7967 46.9615 53.0303C46.6501 53.2593 46.4439 53.5479 46.3431 53.896L43.6359 53.6762C43.7734 53.0349 44.0436 52.4806 44.4467 52.0134C44.8498 51.5416 45.3697 51.1797 46.0065 50.9277C46.6478 50.6712 47.3898 50.543 48.2327 50.543C48.819 50.543 49.3802 50.6117 49.9161 50.7491C50.4566 50.8865 50.9353 51.0995 51.3522 51.3881C51.7736 51.6767 52.1057 52.0477 52.3485 52.5012C52.5913 52.9501 52.7127 53.4884 52.7127 54.1159V61.2344H49.9367V59.7708H49.8543C49.6848 60.1006 49.458 60.3915 49.174 60.6435C48.89 60.8908 48.5488 61.0855 48.1502 61.2275C47.7517 61.3649 47.2914 61.4336 46.7692 61.4336ZM47.6074 59.4135C48.038 59.4135 48.4182 59.3288 48.748 59.1593C49.0778 58.9852 49.3367 58.7516 49.5245 58.4585C49.7123 58.1653 49.8062 57.8332 49.8062 57.4621V56.3422C49.7146 56.4017 49.5886 56.4567 49.4283 56.5071C49.2725 56.5529 49.0962 56.5964 48.8992 56.6376C48.7022 56.6743 48.5053 56.7086 48.3083 56.7407C48.1113 56.7682 47.9327 56.7934 47.7723 56.8163C47.4288 56.8667 47.1287 56.9468 46.8722 57.0568C46.6157 57.1667 46.4164 57.3156 46.2744 57.5034C46.1324 57.6866 46.0614 57.9156 46.0614 58.1905C46.0614 58.589 46.2057 58.8936 46.4943 59.1043C46.7875 59.3105 47.1585 59.4135 47.6074 59.4135ZM20.9488 71.2095C20.8938 70.6552 20.6579 70.2246 20.241 69.9177C19.8242 69.6108 19.2585 69.4573 18.5439 69.4573C18.0583 69.4573 17.6483 69.526 17.3139 69.6635C16.9796 69.7963 16.723 69.9818 16.5444 70.22C16.3703 70.4582 16.2833 70.7285 16.2833 71.0308C16.2741 71.2827 16.3268 71.5026 16.4413 71.6904C16.5604 71.8782 16.723 72.0409 16.9292 72.1783C17.1353 72.3111 17.3735 72.4279 17.6438 72.5287C17.914 72.6249 18.2026 72.7073 18.5095 72.7761L19.7738 73.0784C20.3876 73.2158 20.951 73.399 21.4641 73.6281C21.9771 73.8571 22.4215 74.1388 22.7971 74.4732C23.1727 74.8076 23.4636 75.2016 23.6697 75.655C23.8804 76.1085 23.9881 76.6285 23.9927 77.2148C23.9881 78.076 23.7682 78.8226 23.333 79.4548C22.9024 80.0823 22.2795 80.5702 21.4641 80.9183C20.6533 81.2619 19.6753 81.4336 18.5301 81.4336C17.3941 81.4336 16.4047 81.2596 15.5618 80.9114C14.7235 80.5633 14.0685 80.048 13.5967 79.3654C13.1295 78.6783 12.8844 77.8286 12.8615 76.8163H15.7405C15.7725 77.2881 15.9077 77.682 16.1459 77.9981C16.3886 78.3096 16.7116 78.5455 17.1147 78.7058C17.5224 78.8616 17.9827 78.9394 18.4958 78.9394C18.9997 78.9394 19.4371 78.8661 19.8082 78.7196C20.1838 78.573 20.4747 78.3691 20.6808 78.108C20.8869 77.8469 20.99 77.5469 20.99 77.2079C20.99 76.8918 20.8961 76.6262 20.7083 76.4109C20.525 76.1956 20.2548 76.0123 19.8975 75.8612C19.5448 75.71 19.1119 75.5726 18.5988 75.4489L17.0666 75.0641C15.8802 74.7755 14.9434 74.3243 14.2563 73.7105C13.5692 73.0967 13.2279 72.2699 13.2325 71.2301C13.2279 70.378 13.4547 69.6337 13.9128 68.997C14.3754 68.3602 15.0098 67.8632 15.8161 67.5059C16.6223 67.1486 17.5384 66.97 18.5645 66.97C19.6089 66.97 20.5205 67.1486 21.2992 67.5059C22.0825 67.8632 22.6917 68.3602 23.1269 68.997C23.5621 69.6337 23.7865 70.3712 23.8003 71.2095H20.9488ZM29.9335 81.4405C28.8524 81.4405 27.9225 81.2115 27.1438 80.7534C26.3697 80.2907 25.7742 79.6494 25.3573 78.8295C24.9451 78.0095 24.7389 77.0659 24.7389 75.9986C24.7389 74.9176 24.9473 73.9693 25.3642 73.154C25.7856 72.334 26.3834 71.695 27.1575 71.2369C27.9317 70.7743 28.8524 70.543 29.9197 70.543C30.8405 70.543 31.6467 70.7102 32.3383 71.0445C33.03 71.3789 33.5774 71.8485 33.9805 72.4531C34.3836 73.0578 34.6058 73.7678 34.647 74.5832H31.8849C31.807 74.0564 31.6009 73.6327 31.2665 73.312C30.9366 72.9868 30.5038 72.8242 29.9678 72.8242C29.5143 72.8242 29.1181 72.9478 28.7791 73.1952C28.4447 73.438 28.1836 73.793 27.9958 74.2602C27.808 74.7275 27.7141 75.2932 27.7141 75.9574C27.7141 76.6307 27.8057 77.2033 27.9889 77.6751C28.1768 78.147 28.4401 78.5066 28.7791 78.7539C29.1181 79.0013 29.5143 79.1249 29.9678 79.1249C30.3022 79.1249 30.6023 79.0562 30.8679 78.9188C31.1382 78.7814 31.3604 78.5821 31.5344 78.321C31.7131 78.0553 31.8299 77.737 31.8849 77.3659H34.647C34.6012 78.1722 34.3814 78.8822 33.9874 79.496C33.598 80.1052 33.0598 80.5816 32.3727 80.9252C31.6856 81.2687 30.8725 81.4405 29.9335 81.4405ZM35.7472 81.2344V70.6804H38.6743V81.2344H35.7472ZM37.2176 69.3199C36.7824 69.3199 36.4091 69.1756 36.0976 68.887C35.7907 68.5939 35.6372 68.2434 35.6372 67.8357C35.6372 67.4326 35.7907 67.0868 36.0976 66.7982C36.4091 66.505 36.7824 66.3585 37.2176 66.3585C37.6527 66.3585 38.0238 66.505 38.3307 66.7982C38.6422 67.0868 38.7979 67.4326 38.7979 67.8357C38.7979 68.2434 38.6422 68.5939 38.3307 68.887C38.0238 69.1756 37.6527 69.3199 37.2176 69.3199ZM45.0548 81.4405C43.9692 81.4405 43.0347 81.2206 42.2514 80.7809C41.4727 80.3366 40.8726 79.709 40.4512 78.8982C40.0298 78.0828 39.819 77.1186 39.819 76.0055C39.819 74.9198 40.0298 73.967 40.4512 73.1471C40.8726 72.3271 41.4658 71.6881 42.2308 71.2301C43.0004 70.772 43.9028 70.543 44.938 70.543C45.6343 70.543 46.2825 70.6552 46.8825 70.8796C47.4872 71.0995 48.014 71.4316 48.4629 71.8759C48.9164 72.3203 49.2691 72.8791 49.521 73.5525C49.773 74.2213 49.8989 75.0046 49.8989 75.9024V76.7063H40.9871V74.8924H47.1436C47.1436 74.4709 47.052 74.0976 46.8688 73.7724C46.6856 73.4471 46.4313 73.1929 46.1061 73.0097C45.7854 72.8219 45.4121 72.728 44.9861 72.728C44.5418 72.728 44.1478 72.831 43.8043 73.0372C43.4653 73.2387 43.1996 73.5113 43.0072 73.8548C42.8148 74.1938 42.7164 74.5717 42.7118 74.9886V76.7132C42.7118 77.2354 42.808 77.6866 43.0004 78.0668C43.1973 78.447 43.4745 78.7402 43.8318 78.9463C44.1891 79.1524 44.6128 79.2555 45.1029 79.2555C45.4281 79.2555 45.7259 79.2097 45.9962 79.1181C46.2664 79.0265 46.4977 78.889 46.6901 78.7058C46.8825 78.5226 47.0291 78.2981 47.1299 78.0324L49.8371 78.2111C49.6997 78.8616 49.418 79.4296 48.992 79.9151C48.5705 80.3961 48.0254 80.7717 47.3566 81.042C46.6924 81.3077 45.9252 81.4405 45.0548 81.4405ZM53.9622 75.1328V81.2344H51.0351V70.6804H53.8248V72.5424H53.9485C54.1821 71.9286 54.5738 71.4431 55.1234 71.0858C55.6731 70.7239 56.3396 70.543 57.1229 70.543C57.8558 70.543 58.4949 70.7033 59.04 71.0239C59.5851 71.3446 60.0088 71.8027 60.3111 72.3981C60.6134 72.9891 60.7646 73.6945 60.7646 74.5144V81.2344H57.8375V75.0366C57.8421 74.3908 57.6772 73.8869 57.3428 73.525C57.0084 73.1586 56.5481 72.9753 55.9617 72.9753C55.5678 72.9753 55.2196 73.0601 54.9173 73.2296C54.6196 73.399 54.3859 73.6464 54.2165 73.9716C54.0516 74.2923 53.9668 74.6794 53.9622 75.1328ZM67.0662 81.4405C65.9851 81.4405 65.0552 81.2115 64.2765 80.7534C63.5023 80.2907 62.9069 79.6494 62.49 78.8295C62.0777 78.0095 61.8716 77.0659 61.8716 75.9986C61.8716 74.9176 62.08 73.9693 62.4969 73.154C62.9183 72.334 63.5161 71.695 64.2902 71.2369C65.0644 70.7743 65.9851 70.543 67.0524 70.543C67.9731 70.543 68.7793 70.7102 69.471 71.0445C70.1627 71.3789 70.7101 71.8485 71.1132 72.4531C71.5163 73.0578 71.7385 73.7678 71.7797 74.5832H69.0175C68.9397 74.0564 68.7335 73.6327 68.3991 73.312C68.0693 72.9868 67.6365 72.8242 67.1005 72.8242C66.647 72.8242 66.2508 72.9478 65.9118 73.1952C65.5774 73.438 65.3163 73.793 65.1285 74.2602C64.9407 74.7275 64.8468 75.2932 64.8468 75.9574C64.8468 76.6307 64.9384 77.2033 65.1216 77.6751C65.3094 78.147 65.5728 78.5066 65.9118 78.7539C66.2508 79.0013 66.647 79.1249 67.1005 79.1249C67.4349 79.1249 67.7349 79.0562 68.0006 78.9188C68.2709 78.7814 68.4931 78.5821 68.6671 78.321C68.8458 78.0553 68.9626 77.737 69.0175 77.3659H71.7797C71.7339 78.1722 71.514 78.8822 71.1201 79.496C70.7307 80.1052 70.1925 80.5816 69.5054 80.9252C68.8183 81.2687 68.0052 81.4405 67.0662 81.4405ZM77.6896 81.4405C76.604 81.4405 75.6695 81.2206 74.8862 80.7809C74.1075 80.3366 73.5074 79.709 73.086 78.8982C72.6646 78.0828 72.4539 77.1186 72.4539 76.0055C72.4539 74.9198 72.6646 73.967 73.086 73.1471C73.5074 72.3271 74.1006 71.6881 74.8656 71.2301C75.6352 70.772 76.5376 70.543 77.5728 70.543C78.2691 70.543 78.9173 70.6552 79.5173 70.8796C80.122 71.0995 80.6488 71.4316 81.0977 71.8759C81.5512 72.3203 81.9039 72.8791 82.1558 73.5525C82.4078 74.2213 82.5337 75.0046 82.5337 75.9024V76.7063H73.6219V74.8924H79.7784C79.7784 74.4709 79.6868 74.0976 79.5036 73.7724C79.3204 73.4471 79.0661 73.1929 78.7409 73.0097C78.4202 72.8219 78.0469 72.728 77.6209 72.728C77.1766 72.728 76.7826 72.831 76.4391 73.0372C76.1001 73.2387 75.8344 73.5113 75.642 73.8548C75.4496 74.1938 75.3512 74.5717 75.3466 74.9886V76.7132C75.3466 77.2354 75.4428 77.6866 75.6352 78.0668C75.8321 78.447 76.1093 78.7402 76.4666 78.9463C76.8239 79.1524 77.2476 79.2555 77.7377 79.2555C78.063 79.2555 78.3607 79.2097 78.631 79.1181C78.9012 79.0265 79.1326 78.889 79.3249 78.7058C79.5173 78.5226 79.6639 78.2981 79.7647 78.0324L82.4719 78.2111C82.3345 78.8616 82.0528 79.4296 81.6268 79.9151C81.2053 80.3961 80.6602 80.7717 79.9914 81.042C79.3272 81.3077 78.56 81.4405 77.6896 81.4405Z" fill="white"/>
</g>
</g>
<defs>
<clipPath id="clip0_514_4270">
<rect x="0.7099" width="192.921" height="94.4686" rx="9.6745" fill="white"/>
</clipPath>
<clipPath id="clip1_514_4270">
<rect width="192.921" height="94.4686" fill="white" transform="translate(0.7099)"/>
</clipPath>
</defs>
</svg>
