<svg width="22" height="20" viewBox="0 0 22 20" fill="none" xmlns="http://www.w3.org/2000/svg">
<path d="M10.7841 19.2839L1.65767 10.1575C0.929688 9.42951 0.444368 8.58315 0.201698 7.61843C-0.0350401 6.6537 -0.032081 5.6949 0.210578 4.74201C0.453238 3.7832 0.935608 2.94868 1.65767 2.23846C2.39749 1.51047 3.24089 1.02811 4.18786 0.791371C5.14074 0.54871 6.09067 0.54871 7.03764 0.791371C7.99053 1.03403 8.83688 1.51639 9.5767 2.23846L10.7841 3.41033L11.9915 2.23846C12.7372 1.51639 13.5836 1.03403 14.5305 0.791371C15.4775 0.54871 16.4245 0.54871 17.3714 0.791371C18.3243 1.02811 19.1707 1.51047 19.9105 2.23846C20.6326 2.94868 21.1149 3.7832 21.3576 4.74201C21.6003 5.6949 21.6003 6.6537 21.3576 7.61843C21.1209 8.58315 20.6385 9.42951 19.9105 10.1575L10.7841 19.2839Z" fill="#ED0047"/>
</svg>
