<svg width="4" height="8" viewBox="0 0 4 8" fill="none" xmlns="http://www.w3.org/2000/svg">
<path d="M0.41 7.24219C0.298167 7.24219 0.201917 7.20519 0.12125 7.13119C0.0404168 7.05719 0 6.95961 0 6.83844V1.16144C0 1.04027 0.0412503 0.94269 0.12375 0.86869C0.20625 0.79469 0.3025 0.75769 0.4125 0.75769C0.44 0.75769 0.534583 0.801273 0.69625 0.88844L3.373 3.56544C3.43467 3.62694 3.48217 3.69336 3.5155 3.76469C3.54883 3.83602 3.5655 3.91444 3.5655 3.99994C3.5655 4.08544 3.54883 4.16386 3.5155 4.23519C3.48217 4.30652 3.43467 4.37302 3.373 4.43469L0.69575 7.11194C0.658916 7.14877 0.616 7.17969 0.567 7.20469C0.518167 7.22969 0.465833 7.24219 0.41 7.24219Z" fill="black"/>
</svg>
