<svg width="7" height="10" viewBox="0 0 7 10" fill="none" xmlns="http://www.w3.org/2000/svg">
<path d="M6.73996 5.1069C6.80103 5.06485 6.85096 5.00859 6.88545 4.94295C6.91995 4.87732 6.93797 4.80429 6.93797 4.73015C6.93797 4.656 6.91995 4.58297 6.88545 4.51734C6.85096 4.45171 6.80103 4.39544 6.73996 4.3534L0.781625 0.228396C0.712901 0.180649 0.632406 0.15265 0.548886 0.147439C0.465366 0.142228 0.382014 0.160006 0.307889 0.19884C0.233763 0.237675 0.171697 0.296082 0.128435 0.367713C0.0851725 0.439345 0.0623684 0.521464 0.0625002 0.605146L0.0625005 8.85515C0.0628454 8.93864 0.0859428 9.02045 0.129309 9.09179C0.172674 9.16314 0.234668 9.22131 0.308622 9.26005C0.382577 9.2988 0.465694 9.31665 0.549036 9.31169C0.632377 9.30673 0.71279 9.27914 0.781625 9.2319L6.73996 5.1069Z" fill="#878787"/>
</svg>
