<svg width="43" height="43" viewBox="0 0 43 43" fill="none" xmlns="http://www.w3.org/2000/svg">
<rect width="43" height="43" rx="6" fill="#DEDEDE"/>
<mask id="mask0_181_388" style="mask-type:alpha" maskUnits="userSpaceOnUse" x="9" y="9" width="24" height="24">
<rect x="9" y="9" width="24" height="24" fill="#D9D9D9"/>
</mask>
<g mask="url(#mask0_181_388)">
<path d="M19.5 24H22.5L21.925 20.775C22.2583 20.6083 22.5208 20.3667 22.7125 20.05C22.9042 19.7333 23 19.3833 23 19C23 18.45 22.8042 17.9792 22.4125 17.5875C22.0208 17.1958 21.55 17 21 17C20.45 17 19.9792 17.1958 19.5875 17.5875C19.1958 17.9792 19 18.45 19 19C19 19.3833 19.0958 19.7333 19.2875 20.05C19.4792 20.3667 19.7417 20.6083 20.075 20.775L19.5 24ZM21 31C18.6833 30.4167 16.7708 29.0875 15.2625 27.0125C13.7542 24.9375 13 22.6333 13 20.1V14L21 11L29 14V20.1C29 22.6333 28.2458 24.9375 26.7375 27.0125C25.2292 29.0875 23.3167 30.4167 21 31Z" fill="black"/>
</g>
</svg>
