<svg width="159" height="159" viewBox="0 0 159 159" fill="none" xmlns="http://www.w3.org/2000/svg">
<g filter="url(#filter0_d_514_4211)">
<path d="M153 82.4907V82.5093C111.044 83.152 77.152 117.044 76.5093 159H76.4907C75.848 117.044 41.9564 83.152 0 82.5093V82.4907C41.9564 81.848 75.848 47.9564 76.4907 6H76.5091C77.1518 47.9565 111.044 81.8481 153 82.4907Z" fill="#FFDC22"/>
</g>
<mask id="mask0_514_4211" style="mask-type:alpha" maskUnits="userSpaceOnUse" x="0" y="6" width="153" height="153">
<path d="M153 82.4907V82.5093C111.044 83.152 77.152 117.044 76.5093 159H76.4907C75.848 117.044 41.9564 83.152 0 82.5093V82.4907C41.9564 81.848 75.848 47.9564 76.4907 6H76.5091C77.1518 47.9565 111.044 81.8481 153 82.4907Z" fill="#FFDC22"/>
</mask>
<g mask="url(#mask0_514_4211)">
<path d="M107.511 39.3191L116.79 46.5889L55.6907 124.577L46.4115 117.307L107.511 39.3191Z" fill="white" style="mix-blend-mode:soft-light"/>
<path d="M118.581 47.9918L121.837 50.5426L60.7373 128.531L57.4815 125.98L118.581 47.9918Z" fill="white" style="mix-blend-mode:soft-light"/>
</g>
<defs>
<filter id="filter0_d_514_4211" x="0" y="0.488639" width="158.511" height="158.511" filterUnits="userSpaceOnUse" color-interpolation-filters="sRGB">
<feFlood flood-opacity="0" result="BackgroundImageFix"/>
<feColorMatrix in="SourceAlpha" type="matrix" values="0 0 0 0 0 0 0 0 0 0 0 0 0 0 0 0 0 0 127 0" result="hardAlpha"/>
<feOffset dx="5.51136" dy="-5.51136"/>
<feComposite in2="hardAlpha" operator="out"/>
<feColorMatrix type="matrix" values="0 0 0 0 0 0 0 0 0 0 0 0 0 0 0 0 0 0 0.05 0"/>
<feBlend mode="normal" in2="BackgroundImageFix" result="effect1_dropShadow_514_4211"/>
<feBlend mode="normal" in="SourceGraphic" in2="effect1_dropShadow_514_4211" result="shape"/>
</filter>
</defs>
</svg>
