<svg width="55" height="55" viewBox="0 0 55 55" fill="none" xmlns="http://www.w3.org/2000/svg">
<g filter="url(#filter0_d_514_4224)">
<path d="M53 28.4968V28.5032C38.4661 28.7258 26.7259 40.4661 26.5032 55H26.4968C26.2742 40.4661 14.5339 28.7258 0 28.5032V28.4968C14.5339 28.2742 26.2742 16.5339 26.4968 2H26.5032C26.7258 16.5339 38.466 28.2742 53 28.4968Z" fill="#FFDC22"/>
</g>
<mask id="mask0_514_4224" style="mask-type:alpha" maskUnits="userSpaceOnUse" x="0" y="2" width="53" height="53">
<path d="M53 28.4968V28.5032C38.4661 28.7258 26.7259 40.4661 26.5032 55H26.4968C26.2742 40.4661 14.5339 28.7258 0 28.5032V28.4968C14.5339 28.2742 26.2742 16.5339 26.4968 2H26.5032C26.7258 16.5339 38.466 28.2742 53 28.4968Z" fill="#FFDC22"/>
</mask>
<g mask="url(#mask0_514_4224)">
<path d="M37.2424 13.542L40.4568 16.0603L19.2915 43.0759L16.0772 40.5576L37.2424 13.542Z" fill="white" style="mix-blend-mode:soft-light"/>
<path d="M41.0771 16.5463L42.205 17.4299L21.0397 44.4455L19.9119 43.5618L41.0771 16.5463Z" fill="white" style="mix-blend-mode:soft-light"/>
</g>
<defs>
<filter id="filter0_d_514_4224" x="0" y="0.0908357" width="54.9092" height="54.9092" filterUnits="userSpaceOnUse" color-interpolation-filters="sRGB">
<feFlood flood-opacity="0" result="BackgroundImageFix"/>
<feColorMatrix in="SourceAlpha" type="matrix" values="0 0 0 0 0 0 0 0 0 0 0 0 0 0 0 0 0 0 127 0" result="hardAlpha"/>
<feOffset dx="1.90916" dy="-1.90916"/>
<feComposite in2="hardAlpha" operator="out"/>
<feColorMatrix type="matrix" values="0 0 0 0 0 0 0 0 0 0 0 0 0 0 0 0 0 0 0.05 0"/>
<feBlend mode="normal" in2="BackgroundImageFix" result="effect1_dropShadow_514_4224"/>
<feBlend mode="normal" in="SourceGraphic" in2="effect1_dropShadow_514_4224" result="shape"/>
</filter>
</defs>
</svg>
