<svg width="19" height="19" viewBox="0 0 19 19" fill="none" xmlns="http://www.w3.org/2000/svg">
<path d="M9.76287 14.0653C12.0899 14.0653 14.0234 12.1317 14.0234 9.79629C14.0234 7.45257 12.0899 5.51897 9.76287 5.51897C7.43584 5.51897 5.50224 7.45257 5.50224 9.79629C5.50224 12.1317 7.43584 14.0653 9.76287 14.0653ZM9.77122 3.97042C10.1647 3.97042 10.4911 3.64397 10.4911 3.24219L10.4911 1.44252C10.4911 1.04074 10.1647 0.714287 9.77122 0.714287C9.36944 0.714287 9.04301 1.04074 9.04301 1.44252L9.04301 3.24219C9.04301 3.64397 9.36944 3.97042 9.77122 3.97042ZM13.8728 5.68639C14.1574 5.96262 14.6177 5.97099 14.9024 5.68639L16.183 4.40569C16.4593 4.12947 16.4593 3.66072 16.183 3.37612C15.9068 3.09989 15.4464 3.09989 15.1619 3.37612L13.8728 4.66518C13.5966 4.94978 13.5966 5.41016 13.8728 5.68639ZM15.572 9.79629C15.572 10.1897 15.9068 10.5162 16.3002 10.5162L18.0999 10.5162C18.4933 10.5162 18.8198 10.1897 18.8198 9.79629C18.8198 9.40293 18.4933 9.06807 18.0999 9.06807L16.3002 9.06807C15.9068 9.06807 15.572 9.40293 15.572 9.79629ZM13.8728 13.9063C13.5966 14.1909 13.5966 14.6512 13.8728 14.9274L15.1619 16.2249C15.4464 16.4927 15.9068 16.4844 16.183 16.2165C16.4593 15.9319 16.4593 15.4716 16.183 15.1953L14.894 13.9063C14.6177 13.6384 14.1574 13.6384 13.8728 13.9063ZM9.77122 15.6222C9.36944 15.6222 9.04301 15.9486 9.04301 16.3421L9.04301 18.1501C9.04301 18.5435 9.36944 18.87 9.77122 18.87C10.1647 18.87 10.4911 18.5435 10.4911 18.1501L10.4911 16.3421C10.4911 15.9486 10.1647 15.6222 9.77122 15.6222ZM5.66128 13.9063C5.37668 13.6384 4.90793 13.6384 4.63171 13.9063L3.35102 15.1869C3.07479 15.4631 3.07479 15.9236 3.34264 16.2081C3.61887 16.476 4.08762 16.4844 4.37222 16.2165L5.65291 14.9274C5.92914 14.6512 5.92914 14.1909 5.66128 13.9063ZM3.96207 9.79629C3.96207 9.40293 3.62724 9.06807 3.23382 9.06807L1.43416 9.06807C1.04075 9.06807 0.714294 9.40293 0.714294 9.79629C0.714294 10.1897 1.04075 10.5162 1.43416 10.5162L3.23382 10.5162C3.62724 10.5162 3.96207 10.1897 3.96207 9.79629ZM5.65291 5.68639C5.92914 5.41853 5.92914 4.94141 5.66128 4.66518L4.38059 3.37612C4.10436 3.10826 3.63561 3.09989 3.35938 3.37612C3.08316 3.66072 3.08316 4.12947 3.35102 4.39732L4.63171 5.68639C4.90793 5.96262 5.36831 5.96262 5.65291 5.68639Z" fill="#F5F5F7"/>
</svg>
