<svg width="43" height="43" viewBox="0 0 43 43" fill="none" xmlns="http://www.w3.org/2000/svg">
<rect width="43" height="43" rx="6" fill="#DEDEDE"/>
<mask id="mask0_181_406" style="mask-type:alpha" maskUnits="userSpaceOnUse" x="9" y="9" width="24" height="24">
<rect x="9" y="9" width="24" height="24" fill="#D9D9D9"/>
</mask>
<g mask="url(#mask0_181_406)">
<path d="M21 31C19.6333 31 18.3417 30.7375 17.125 30.2125C15.9083 29.6875 14.8458 28.9708 13.9375 28.0625C13.0292 27.1542 12.3125 26.0917 11.7875 24.875C11.2625 23.6583 11 22.3667 11 21C11 19.6167 11.2625 18.3208 11.7875 17.1125C12.3125 15.9042 13.0292 14.8458 13.9375 13.9375C14.8458 13.0292 15.9083 12.3125 17.125 11.7875C18.3417 11.2625 19.6333 11 21 11C22.3833 11 23.6792 11.2625 24.8875 11.7875C26.0958 12.3125 27.1542 13.0292 28.0625 13.9375C28.9708 14.8458 29.6875 15.9042 30.2125 17.1125C30.7375 18.3208 31 19.6167 31 21C31 22.3667 30.7375 23.6583 30.2125 24.875C29.6875 26.0917 28.9708 27.1542 28.0625 28.0625C27.1542 28.9708 26.0958 29.6875 24.8875 30.2125C23.6792 30.7375 22.3833 31 21 31ZM21 28.95C21.4333 28.35 21.8083 27.725 22.125 27.075C22.4417 26.425 22.7 25.7333 22.9 25H19.1C19.3 25.7333 19.5583 26.425 19.875 27.075C20.1917 27.725 20.5667 28.35 21 28.95ZM18.4 28.55C18.1 28 17.8375 27.4292 17.6125 26.8375C17.3875 26.2458 17.2 25.6333 17.05 25H14.1C14.5833 25.8333 15.1875 26.5583 15.9125 27.175C16.6375 27.7917 17.4667 28.25 18.4 28.55ZM23.6 28.55C24.5333 28.25 25.3625 27.7917 26.0875 27.175C26.8125 26.5583 27.4167 25.8333 27.9 25H24.95C24.8 25.6333 24.6125 26.2458 24.3875 26.8375C24.1625 27.4292 23.9 28 23.6 28.55ZM13.25 23H16.65C16.6 22.6667 16.5625 22.3375 16.5375 22.0125C16.5125 21.6875 16.5 21.35 16.5 21C16.5 20.65 16.5125 20.3125 16.5375 19.9875C16.5625 19.6625 16.6 19.3333 16.65 19H13.25C13.1667 19.3333 13.1042 19.6625 13.0625 19.9875C13.0208 20.3125 13 20.65 13 21C13 21.35 13.0208 21.6875 13.0625 22.0125C13.1042 22.3375 13.1667 22.6667 13.25 23ZM18.65 23H23.35C23.4 22.6667 23.4375 22.3375 23.4625 22.0125C23.4875 21.6875 23.5 21.35 23.5 21C23.5 20.65 23.4875 20.3125 23.4625 19.9875C23.4375 19.6625 23.4 19.3333 23.35 19H18.65C18.6 19.3333 18.5625 19.6625 18.5375 19.9875C18.5125 20.3125 18.5 20.65 18.5 21C18.5 21.35 18.5125 21.6875 18.5375 22.0125C18.5625 22.3375 18.6 22.6667 18.65 23ZM25.35 23H28.75C28.8333 22.6667 28.8958 22.3375 28.9375 22.0125C28.9792 21.6875 29 21.35 29 21C29 20.65 28.9792 20.3125 28.9375 19.9875C28.8958 19.6625 28.8333 19.3333 28.75 19H25.35C25.4 19.3333 25.4375 19.6625 25.4625 19.9875C25.4875 20.3125 25.5 20.65 25.5 21C25.5 21.35 25.4875 21.6875 25.4625 22.0125C25.4375 22.3375 25.4 22.6667 25.35 23ZM24.95 17H27.9C27.4167 16.1667 26.8125 15.4417 26.0875 14.825C25.3625 14.2083 24.5333 13.75 23.6 13.45C23.9 14 24.1625 14.5708 24.3875 15.1625C24.6125 15.7542 24.8 16.3667 24.95 17ZM19.1 17H22.9C22.7 16.2667 22.4417 15.575 22.125 14.925C21.8083 14.275 21.4333 13.65 21 13.05C20.5667 13.65 20.1917 14.275 19.875 14.925C19.5583 15.575 19.3 16.2667 19.1 17ZM14.1 17H17.05C17.2 16.3667 17.3875 15.7542 17.6125 15.1625C17.8375 14.5708 18.1 14 18.4 13.45C17.4667 13.75 16.6375 14.2083 15.9125 14.825C15.1875 15.4417 14.5833 16.1667 14.1 17Z" fill="black"/>
</g>
</svg>
