<svg width="194" height="96" viewBox="0 0 194 96" fill="none" xmlns="http://www.w3.org/2000/svg">
<g clip-path="url(#clip0_514_4277)">
<rect y="0.759766" width="193.49" height="94.4686" rx="9.6745" fill="#FFAB00"/>
<g clip-path="url(#clip1_514_4277)">
<path opacity="0.2" d="M32.0202 -70.747V33.6238H6.9712V-28.7005L0.559853 33.6238H-20.6125L-27.0239 -29.5951V33.6238H-46.7052V-70.747H-11.3682L-7.4916 -20.9472L-3.46588 -70.747H32.0202ZM93.691 33.6238H68.7911L67.5983 20.652H56.5648L55.5211 33.6238H33.6032L47.3205 -70.747H79.9737L93.691 33.6238ZM62.0815 -41.3741L58.5031 -0.520373H65.6599L62.0815 -41.3741ZM124.811 -15.4305H149.86V12.1532C149.86 27.2124 142.554 34.5184 127.495 34.5184H116.163C101.104 34.5184 93.7981 27.2124 93.7981 12.1532V-49.2764C93.7981 -64.3356 101.104 -71.6416 116.163 -71.6416H127.495C142.554 -71.6416 149.562 -64.3356 149.562 -49.2764V-24.8239H124.513V-48.8291C124.513 -50.171 123.917 -50.7674 122.575 -50.7674H121.084C119.742 -50.7674 119.145 -50.171 119.145 -48.8291V11.7059C119.145 13.0478 119.742 13.6442 121.084 13.6442H122.873C124.215 13.6442 124.811 13.0478 124.811 11.7059V-15.4305ZM179.433 -30.0424H185.099V-70.747H210.446V33.6238H185.099V-8.42273H179.433V33.6238H154.086V-70.747H179.433V-30.0424ZM240.446 -70.747V33.6238H215.099V-70.747H240.446ZM299.065 33.6238H275.805L265.666 -8.57183L265.964 33.6238H245.09V-70.747H269.394L278.191 -33.1735V-70.747H299.065V33.6238ZM303.479 -70.747H348.209V-49.1273H328.826V-30.0424H347.463V-8.42273H328.826V12.0041H348.507V33.6238H303.479V-70.747Z" fill="#FFE75C"/>
<path opacity="0.2" d="M-47.021 38.6882H-25.2534V109.753H-10.2722V128.32H-47.021V38.6882ZM-8.13242 38.6882H30.281V57.2547H13.6352V73.6444H29.6408V92.2109H13.6352V109.753H30.5371V128.32H-8.13242V38.6882ZM82.9265 128.32H61.543L60.5186 117.18H51.0433L50.147 128.32H31.3244L43.1045 38.6882H71.1463L82.9265 128.32ZM55.781 63.913L52.7079 98.9973H58.854L55.781 63.913ZM122.56 87.2172C129.475 88.8818 132.42 92.7231 132.42 99.8936V128.32H110.652V97.973C110.652 96.8206 110.14 96.3084 108.988 96.3084H106.043V128.32H84.2749V38.6882H113.085C126.018 38.6882 132.292 44.9624 132.292 57.8949V72.492C132.292 80.943 128.706 85.1685 122.56 87.2172ZM110.524 58.5351C110.524 57.3827 110.012 56.8706 108.86 56.8706H106.043V78.5101H108.86C110.012 78.5101 110.524 77.998 110.524 76.8456V58.5351ZM182.27 128.32H162.295L153.588 92.0829L153.844 128.32H135.918V38.6882H156.789L164.344 70.9555V38.6882H182.27V128.32ZM207.956 38.6882V128.32H186.189V38.6882H207.956ZM258.297 128.32H238.322L229.615 92.0829L229.871 128.32H211.945V38.6882H232.816L240.371 70.9555V38.6882H258.297V128.32ZM288.977 95.284H286.032V77.7419H310.488V109.881C310.488 122.814 304.214 129.088 291.281 129.088H281.038C268.105 129.088 261.831 122.814 261.831 109.881V57.1266C261.831 44.1941 268.105 37.9199 281.038 37.9199H291.025C303.958 37.9199 310.232 44.1941 310.232 57.1266V73.0042H288.721V57.5108C288.721 56.3584 288.208 55.8462 286.928 55.8462H285.263C284.111 55.8462 283.599 56.3584 283.599 57.5108V109.369C283.599 110.649 284.111 111.162 285.263 111.162H287.312C288.464 111.162 288.977 110.649 288.977 109.497V95.284Z" fill="#FFE75C"/>
<path d="M11.5414 23.2632L13.35 17.5268H14.7562L16.5648 23.2632H15.5768L13.9356 18.1164H14.1507L12.5294 23.2632H11.5414ZM12.5493 22.0203V21.124H15.5609V22.0203H12.5493ZM18.4801 23.2632V17.5268H19.4401V22.3629H21.9737V23.2632H18.4801ZM23.8436 23.2632V17.5268H24.8037V22.3629H27.3373V23.2632H23.8436ZM33.8672 23.3827C33.2935 23.3827 32.8022 23.2579 32.3932 23.0082C31.9842 22.7559 31.6695 22.4054 31.4491 21.9566C31.2313 21.5077 31.1225 20.9872 31.1225 20.395C31.1225 19.8027 31.2313 19.2822 31.4491 18.8334C31.6695 18.3846 31.9842 18.0354 32.3932 17.7857C32.8022 17.5334 33.2935 17.4073 33.8672 17.4073C34.5284 17.4073 35.0795 17.5733 35.5204 17.9052C35.9612 18.2345 36.2706 18.6794 36.4486 19.2397L35.4805 19.5066C35.369 19.1322 35.1791 18.84 34.9109 18.6302C34.6426 18.4178 34.2947 18.3115 33.8672 18.3115C33.4821 18.3115 33.1607 18.3979 32.9031 18.5705C32.6482 18.7431 32.4556 18.9861 32.3255 19.2995C32.198 19.6102 32.133 19.9754 32.1303 20.395C32.1303 20.8146 32.1941 21.1811 32.3215 21.4945C32.4517 21.8052 32.6455 22.0469 32.9031 22.2195C33.1607 22.3921 33.4821 22.4784 33.8672 22.4784C34.2947 22.4784 34.6426 22.3722 34.9109 22.1597C35.1791 21.9473 35.369 21.6551 35.4805 21.2833L36.4486 21.5502C36.2706 22.1106 35.9612 22.5568 35.5204 22.8887C35.0795 23.218 34.5284 23.3827 33.8672 23.3827ZM40.8646 23.3827C40.291 23.3827 39.7997 23.2579 39.3907 23.0082C38.9817 22.7559 38.667 22.4054 38.4466 21.9566C38.2288 21.5077 38.1199 20.9872 38.1199 20.395C38.1199 19.8027 38.2288 19.2822 38.4466 18.8334C38.667 18.3846 38.9817 18.0354 39.3907 17.7857C39.7997 17.5334 40.291 17.4073 40.8646 17.4073C41.4383 17.4073 41.9296 17.5334 42.3386 17.7857C42.7502 18.0354 43.0649 18.3846 43.2827 18.8334C43.5031 19.2822 43.6133 19.8027 43.6133 20.395C43.6133 20.9872 43.5031 21.5077 43.2827 21.9566C43.0649 22.4054 42.7502 22.7559 42.3386 23.0082C41.9296 23.2579 41.4383 23.3827 40.8646 23.3827ZM40.8646 22.4784C41.2497 22.4811 41.5697 22.3961 41.8247 22.2235C42.0823 22.0508 42.2748 21.8078 42.4023 21.4945C42.5324 21.1811 42.5975 20.8146 42.5975 20.395C42.5975 19.9754 42.5324 19.6115 42.4023 19.3035C42.2748 18.9927 42.0823 18.7511 41.8247 18.5785C41.5697 18.4058 41.2497 18.3169 40.8646 18.3115C40.4796 18.3089 40.1595 18.3939 39.9046 18.5665C39.6496 18.7391 39.4571 18.9821 39.327 19.2955C39.1995 19.6089 39.1358 19.9754 39.1358 20.395C39.1358 20.8146 39.1995 21.1798 39.327 21.4905C39.4544 21.7985 39.6457 22.0389 39.9006 22.2115C40.1582 22.3841 40.4796 22.4731 40.8646 22.4784ZM47.8322 23.3827C47.3754 23.3827 46.973 23.2897 46.6251 23.1038C46.2799 22.9179 46.009 22.6563 45.8125 22.3191C45.6186 21.9818 45.5217 21.5861 45.5217 21.1319V17.5347L46.4937 17.5268V21.108C46.4937 21.3232 46.5295 21.5157 46.6012 21.6857C46.6756 21.8556 46.7752 22.0004 46.9 22.1199C47.0248 22.2367 47.1682 22.3257 47.3302 22.3868C47.4922 22.4479 47.6596 22.4784 47.8322 22.4784C48.0101 22.4784 48.1787 22.4479 48.3381 22.3868C48.5001 22.323 48.6435 22.2328 48.7683 22.1159C48.8931 21.9964 48.9914 21.8517 49.0631 21.6817C49.1348 21.5117 49.1707 21.3205 49.1707 21.108V17.5268H50.1427V21.1319C50.1427 21.5861 50.0444 21.9818 49.8479 22.3191C49.654 22.6563 49.3831 22.9179 49.0352 23.1038C48.69 23.2897 48.289 23.3827 47.8322 23.3827ZM52.3713 23.2632V17.5268H54.7416C54.7973 17.5268 54.869 17.5294 54.9567 17.5347C55.0443 17.5374 55.1253 17.5454 55.1997 17.5586C55.5317 17.6091 55.8052 17.7193 56.0203 17.8893C56.2381 18.0593 56.3988 18.2744 56.5023 18.5346C56.6086 18.7922 56.6617 19.0791 56.6617 19.3951C56.6617 19.8625 56.5435 20.2648 56.3071 20.6021C56.0708 20.9368 55.7083 21.1439 55.2196 21.2236L54.8093 21.2594H53.3314V23.2632H52.3713ZM55.6658 23.2632L54.5344 20.9288L55.5104 20.7137L56.7533 23.2632H55.6658ZM53.3314 20.3631H54.7017C54.7549 20.3631 54.8146 20.3605 54.881 20.3551C54.9474 20.3498 55.0085 20.3392 55.0642 20.3233C55.2236 20.2834 55.3484 20.2131 55.4387 20.1121C55.5317 20.0112 55.5967 19.897 55.6339 19.7696C55.6737 19.6421 55.6937 19.5173 55.6937 19.3951C55.6937 19.2729 55.6737 19.1481 55.6339 19.0206C55.5967 18.8905 55.5317 18.775 55.4387 18.6741C55.3484 18.5731 55.2236 18.5028 55.0642 18.4629C55.0085 18.447 54.9474 18.4377 54.881 18.435C54.8146 18.4297 54.7549 18.4271 54.7017 18.4271H53.3314V20.3631ZM60.8696 23.3827C60.45 23.3827 60.0716 23.3097 59.7343 23.1636C59.3997 23.0175 59.1235 22.8091 58.9057 22.5382C58.6906 22.2646 58.5538 21.9406 58.4954 21.5662L59.4913 21.4148C59.5763 21.7547 59.7502 22.0176 60.0131 22.2035C60.2787 22.3894 60.5841 22.4824 60.9294 22.4824C61.1339 22.4824 61.3264 22.4505 61.507 22.3868C61.6876 22.323 61.8337 22.2301 61.9452 22.1079C62.0594 21.9858 62.1165 21.8357 62.1165 21.6578C62.1165 21.5781 62.1032 21.5051 62.0767 21.4387C62.0501 21.3696 62.0103 21.3086 61.9571 21.2554C61.9067 21.2023 61.8403 21.1545 61.758 21.112C61.6783 21.0669 61.5853 21.0284 61.4791 20.9965L59.9972 20.5583C59.8697 20.5211 59.7316 20.472 59.5829 20.4109C59.4368 20.3472 59.2974 20.2609 59.1646 20.152C59.0345 20.0404 58.9269 19.8997 58.842 19.7297C58.7596 19.5571 58.7185 19.3446 58.7185 19.0923C58.7185 18.7232 58.8114 18.4138 58.9973 18.1642C59.1859 17.9119 59.4382 17.7233 59.7542 17.5985C60.0729 17.4737 60.4261 17.4126 60.8138 17.4152C61.2069 17.4179 61.5575 17.4856 61.8655 17.6184C62.1736 17.7485 62.4312 17.9384 62.6383 18.1881C62.8455 18.4377 62.9916 18.7391 63.0765 19.0923L62.0448 19.2716C62.0023 19.0698 61.92 18.8985 61.7978 18.7577C61.6783 18.6143 61.5309 18.5054 61.3556 18.4311C61.183 18.3567 60.9984 18.3169 60.8019 18.3115C60.6107 18.3089 60.4327 18.3381 60.2681 18.3992C60.1061 18.4576 59.9746 18.5426 59.8737 18.6541C59.7755 18.7657 59.7263 18.8958 59.7263 19.0445C59.7263 19.1853 59.7688 19.3008 59.8538 19.3911C59.9388 19.4787 60.0437 19.5491 60.1685 19.6022C60.296 19.6527 60.4248 19.6952 60.5549 19.7297L61.5827 20.0165C61.7234 20.0537 61.8815 20.1042 62.0567 20.1679C62.232 20.2317 62.4007 20.3206 62.5627 20.4348C62.7247 20.549 62.8574 20.6991 62.961 20.885C63.0672 21.0709 63.1204 21.3072 63.1204 21.594C63.1204 21.8915 63.058 22.1531 62.9331 22.3788C62.811 22.6019 62.645 22.7878 62.4352 22.9365C62.2254 23.0852 61.985 23.1968 61.7141 23.2712C61.4459 23.3455 61.1644 23.3827 60.8696 23.3827ZM65.098 23.2632V17.5268H68.8028V18.4271H66.0581V19.8413H68.3248V20.7416H66.0581V22.3629H68.8028V23.2632H65.098Z" fill="white"/>
<path d="M12.6051 47.9219H16.2743L20.1496 57.3765H20.3145L24.1898 47.9219H27.859V61.9939H24.9731V52.8347H24.8563L21.2146 61.9252H19.2495L15.6078 52.8004H15.491V61.9939H12.6051V47.9219ZM32.4908 62.1932C31.8175 62.1932 31.2174 62.0763 30.6906 61.8427C30.1638 61.6045 29.747 61.2541 29.4401 60.7915C29.1377 60.3242 28.9866 59.7425 28.9866 59.0462C28.9866 58.4599 29.0942 57.9674 29.3095 57.5689C29.5248 57.1704 29.818 56.8497 30.189 56.607C30.5601 56.3642 30.9815 56.181 31.4533 56.0573C31.9297 55.9336 32.429 55.8466 32.9512 55.7962C33.565 55.732 34.0597 55.6725 34.4354 55.6175C34.811 55.558 35.0835 55.4709 35.253 55.3564C35.4225 55.2419 35.5072 55.0724 35.5072 54.848V54.8067C35.5072 54.3716 35.3698 54.0349 35.095 53.7967C34.8247 53.5585 34.4399 53.4394 33.9406 53.4394C33.4138 53.4394 32.9947 53.5562 32.6832 53.7898C32.3717 54.0188 32.1656 54.3074 32.0648 54.6556L29.3576 54.4357C29.495 53.7944 29.7653 53.2401 30.1684 52.7729C30.5715 52.3011 31.0914 51.9392 31.7281 51.6873C32.3694 51.4307 33.1115 51.3025 33.9544 51.3025C34.5407 51.3025 35.1018 51.3712 35.6378 51.5086C36.1783 51.646 36.657 51.859 37.0739 52.1476C37.4953 52.4362 37.8274 52.8072 38.0702 53.2607C38.3129 53.7096 38.4343 54.2479 38.4343 54.8754V61.9939H35.6584V60.5304H35.576C35.4065 60.8602 35.1797 61.151 34.8957 61.403C34.6117 61.6503 34.2704 61.845 33.8719 61.987C33.4734 62.1244 33.013 62.1932 32.4908 62.1932ZM33.3291 60.1731C33.7597 60.1731 34.1399 60.0883 34.4697 59.9188C34.7995 59.7448 35.0583 59.5111 35.2461 59.218C35.434 58.9248 35.5279 58.5927 35.5279 58.2217V57.1017C35.4362 57.1612 35.3103 57.2162 35.1499 57.2666C34.9942 57.3124 34.8178 57.3559 34.6209 57.3971C34.4239 57.4338 34.2269 57.4681 34.03 57.5002C33.833 57.5277 33.6543 57.5529 33.494 57.5758C33.1505 57.6262 32.8504 57.7063 32.5939 57.8163C32.3374 57.9262 32.1381 58.0751 31.9961 58.2629C31.8541 58.4461 31.7831 58.6752 31.7831 58.95C31.7831 59.3485 31.9274 59.6531 32.216 59.8639C32.5092 60.07 32.8802 60.1731 33.3291 60.1731ZM44.6998 62.2C43.6188 62.2 42.6889 61.971 41.9101 61.5129C41.136 61.0503 40.5405 60.409 40.1237 59.589C39.7114 58.7691 39.5053 57.8254 39.5053 56.7581C39.5053 55.6771 39.7137 54.7289 40.1305 53.9135C40.552 53.0935 41.1497 52.4545 41.9239 51.9965C42.698 51.5338 43.6188 51.3025 44.6861 51.3025C45.6068 51.3025 46.413 51.4697 47.1047 51.8041C47.7964 52.1385 48.3438 52.608 48.7469 53.2126C49.15 53.8173 49.3721 54.5273 49.4134 55.3427H46.6512C46.5733 54.8159 46.3672 54.3922 46.0328 54.0715C45.703 53.7463 45.2701 53.5837 44.7342 53.5837C44.2807 53.5837 43.8844 53.7074 43.5455 53.9547C43.2111 54.1975 42.95 54.5525 42.7622 55.0197C42.5743 55.487 42.4804 56.0527 42.4804 56.7169C42.4804 57.3903 42.5721 57.9629 42.7553 58.4347C42.9431 58.9065 43.2065 59.2661 43.5455 59.5134C43.8844 59.7608 44.2807 59.8845 44.7342 59.8845C45.0686 59.8845 45.3686 59.8158 45.6343 59.6783C45.9045 59.5409 46.1267 59.3417 46.3008 59.0806C46.4794 58.8149 46.5962 58.4965 46.6512 58.1255H49.4134C49.3676 58.9317 49.1477 59.6417 48.7537 60.2555C48.3644 60.8647 47.8261 61.3411 47.139 61.6847C46.4519 62.0283 45.6389 62.2 44.6998 62.2ZM53.4406 55.8924V61.9939H50.5135V47.9219H53.3581V53.302H53.4818C53.72 52.679 54.1048 52.1911 54.6362 51.8384C55.1675 51.4811 55.834 51.3025 56.6356 51.3025C57.3686 51.3025 58.0076 51.4628 58.5527 51.7835C59.1024 52.0995 59.5284 52.5553 59.8307 53.1508C60.1376 53.7417 60.2888 54.4494 60.2842 55.274V61.9939H57.3571V55.7962C57.3617 55.1457 57.1968 54.6395 56.8624 54.2777C56.5326 53.9158 56.0699 53.7348 55.4744 53.7348C55.0759 53.7348 54.7232 53.8196 54.4163 53.9891C54.114 54.1586 53.8758 54.4059 53.7017 54.7312C53.5322 55.0518 53.4452 55.4389 53.4406 55.8924ZM61.8138 61.9939V51.4399H64.7409V61.9939H61.8138ZM63.2842 50.0794C62.849 50.0794 62.4757 49.9351 62.1642 49.6465C61.8573 49.3534 61.7038 49.003 61.7038 48.5953C61.7038 48.1922 61.8573 47.8463 62.1642 47.5577C62.4757 47.2646 62.849 47.118 63.2842 47.118C63.7194 47.118 64.0904 47.2646 64.3973 47.5577C64.7088 47.8463 64.8645 48.1922 64.8645 48.5953C64.8645 49.003 64.7088 49.3534 64.3973 49.6465C64.0904 49.9351 63.7194 50.0794 63.2842 50.0794ZM69.2387 55.8924V61.9939H66.3117V51.4399H69.1013V53.302H69.225C69.4586 52.6881 69.8503 52.2026 70.4 51.8453C70.9496 51.4834 71.6161 51.3025 72.3994 51.3025C73.1324 51.3025 73.7714 51.4628 74.3165 51.7835C74.8616 52.1041 75.2853 52.5622 75.5876 53.1577C75.89 53.7486 76.0411 54.454 76.0411 55.274V61.9939H73.114V55.7962C73.1186 55.1503 72.9537 54.6464 72.6193 54.2845C72.2849 53.9181 71.8246 53.7348 71.2382 53.7348C70.8443 53.7348 70.4962 53.8196 70.1938 53.9891C69.8961 54.1586 69.6625 54.4059 69.493 54.7312C69.3281 55.0518 69.2433 55.4389 69.2387 55.8924ZM82.3839 62.2C81.2983 62.2 80.3638 61.9802 79.5805 61.5404C78.8018 61.0961 78.2017 60.4685 77.7803 59.6577C77.3588 58.8424 77.1481 57.8781 77.1481 56.765C77.1481 55.6794 77.3588 54.7266 77.7803 53.9066C78.2017 53.0867 78.7949 52.4477 79.5599 51.9896C80.3294 51.5315 81.2318 51.3025 82.2671 51.3025C82.9634 51.3025 83.6115 51.4147 84.2116 51.6392C84.8163 51.859 85.343 52.1911 85.792 52.6355C86.2454 53.0798 86.5982 53.6386 86.8501 54.312C87.102 54.9808 87.228 55.7641 87.228 56.6619V57.4658H78.3162V55.6519H84.4727C84.4727 55.2305 84.3811 54.8571 84.1979 54.5319C84.0146 54.2067 83.7604 53.9524 83.4352 53.7692C83.1145 53.5814 82.7412 53.4875 82.3152 53.4875C81.8709 53.4875 81.4769 53.5905 81.1334 53.7967C80.7944 53.9982 80.5287 54.2708 80.3363 54.6143C80.1439 54.9533 80.0454 55.3312 80.0409 55.7481V57.4727C80.0409 57.9949 80.137 58.4461 80.3294 58.8263C80.5264 59.2065 80.8035 59.4997 81.1608 59.7058C81.5181 59.912 81.9419 60.015 82.432 60.015C82.7572 60.015 83.055 59.9692 83.3252 59.8776C83.5955 59.786 83.8268 59.6486 84.0192 59.4653C84.2116 59.2821 84.3582 59.0576 84.459 58.792L87.1662 58.9706C87.0288 59.6211 86.747 60.1891 86.321 60.6746C85.8996 61.1556 85.3545 61.5312 84.6857 61.8015C84.0215 62.0672 83.2542 62.2 82.3839 62.2ZM12.6051 81.9939V67.9219H15.5803V79.5409H21.6131V81.9939H12.6051ZM27.5643 82.2C26.4786 82.2 25.5442 81.9802 24.7609 81.5404C23.9821 81.0961 23.3821 80.4685 22.9606 79.6577C22.5392 78.8424 22.3285 77.8781 22.3285 76.765C22.3285 75.6794 22.5392 74.7266 22.9606 73.9066C23.3821 73.0867 23.9753 72.4477 24.7402 71.9896C25.5098 71.5315 26.4122 71.3025 27.4475 71.3025C28.1437 71.3025 28.7919 71.4147 29.392 71.6392C29.9966 71.859 30.5234 72.1911 30.9723 72.6355C31.4258 73.0798 31.7785 73.6386 32.0305 74.312C32.2824 74.9808 32.4084 75.7641 32.4084 76.6619V77.4658H23.4966V75.6519H29.6531C29.6531 75.2305 29.5615 74.8571 29.3782 74.5319C29.195 74.2067 28.9408 73.9524 28.6155 73.7692C28.2949 73.5814 27.9216 73.4875 27.4955 73.4875C27.0512 73.4875 26.6573 73.5905 26.3137 73.7967C25.9747 73.9982 25.7091 74.2708 25.5167 74.6143C25.3243 74.9533 25.2258 75.3312 25.2212 75.7481V77.4727C25.2212 77.9949 25.3174 78.4461 25.5098 78.8263C25.7068 79.2065 25.9839 79.4997 26.3412 79.7058C26.6985 79.912 27.1222 80.015 27.6124 80.015C27.9376 80.015 28.2353 79.9692 28.5056 79.8776C28.7759 79.786 29.0072 79.6486 29.1996 79.4653C29.392 79.2821 29.5386 79.0576 29.6393 78.792L32.3465 78.9706C32.2091 79.6211 31.9274 80.1891 31.5014 80.6746C31.08 81.1556 30.5349 81.5312 29.8661 81.8015C29.2019 82.0672 28.4346 82.2 27.5643 82.2ZM36.5541 82.1932C35.8808 82.1932 35.2807 82.0763 34.7539 81.8427C34.2271 81.6045 33.8103 81.2541 33.5034 80.7915C33.201 80.3242 33.0499 79.7425 33.0499 79.0462C33.0499 78.4599 33.1575 77.9674 33.3728 77.5689C33.5881 77.1704 33.8813 76.8497 34.2523 76.607C34.6233 76.3642 35.0448 76.181 35.5166 76.0573C35.993 75.9336 36.4923 75.8466 37.0145 75.7962C37.6283 75.732 38.123 75.6725 38.4986 75.6175C38.8743 75.558 39.1468 75.4709 39.3163 75.3564C39.4858 75.2419 39.5705 75.0724 39.5705 74.848V74.8067C39.5705 74.3716 39.4331 74.0349 39.1583 73.7967C38.888 73.5585 38.5032 73.4394 38.0039 73.4394C37.4771 73.4394 37.058 73.5562 36.7465 73.7898C36.435 74.0188 36.2289 74.3074 36.1281 74.6556L33.4209 74.4357C33.5583 73.7944 33.8286 73.2401 34.2317 72.7729C34.6348 72.3011 35.1547 71.9392 35.7914 71.6873C36.4327 71.4307 37.1748 71.3025 38.0177 71.3025C38.604 71.3025 39.1651 71.3712 39.7011 71.5086C40.2416 71.646 40.7203 71.859 41.1371 72.1476C41.5586 72.4362 41.8907 72.8072 42.1334 73.2607C42.3762 73.7096 42.4976 74.2479 42.4976 74.8754V81.9939H39.7217V80.5304H39.6392C39.4698 80.8602 39.243 81.151 38.959 81.403C38.675 81.6503 38.3337 81.845 37.9352 81.987C37.5367 82.1244 37.0763 82.1932 36.5541 82.1932ZM37.3924 80.1731C37.823 80.1731 38.2032 80.0883 38.533 79.9188C38.8628 79.7448 39.1216 79.5111 39.3094 79.218C39.4972 78.9248 39.5911 78.5927 39.5911 78.2217V77.1017C39.4995 77.1612 39.3736 77.2162 39.2132 77.2666C39.0575 77.3124 38.8811 77.3559 38.6842 77.3971C38.4872 77.4338 38.2902 77.4681 38.0932 77.5002C37.8963 77.5277 37.7176 77.5529 37.5573 77.5758C37.2137 77.6262 36.9137 77.7063 36.6572 77.8163C36.4007 77.9262 36.2014 78.0751 36.0594 78.2629C35.9174 78.4461 35.8464 78.6752 35.8464 78.95C35.8464 79.3485 35.9907 79.6531 36.2793 79.8639C36.5724 80.07 36.9435 80.1731 37.3924 80.1731ZM43.9946 81.9939V71.4399H46.8323V73.2814H46.9423C47.1346 72.6263 47.4576 72.1316 47.9111 71.7972C48.3646 71.4582 48.8868 71.2887 49.4777 71.2887C49.6243 71.2887 49.7823 71.2979 49.9518 71.3162C50.1213 71.3345 50.2702 71.3597 50.3984 71.3918V73.9891C50.261 73.9478 50.0709 73.9112 49.8281 73.8791C49.5853 73.8471 49.3632 73.831 49.1616 73.831C48.731 73.831 48.3462 73.9249 48.0073 74.1128C47.6729 74.296 47.4072 74.5525 47.2102 74.8823C47.0178 75.2121 46.9216 75.5923 46.9216 76.0229V81.9939H43.9946ZM54.0649 75.8924V81.9939H51.1378V71.4399H53.9275V73.302H54.0512C54.2848 72.6881 54.6764 72.2026 55.2261 71.8453C55.7758 71.4834 56.4423 71.3025 57.2256 71.3025C57.9585 71.3025 58.5975 71.4628 59.1426 71.7835C59.6877 72.1041 60.1115 72.5622 60.4138 73.1577C60.7161 73.7486 60.8673 74.454 60.8673 75.274V81.9939H57.9402V75.7962C57.9448 75.1503 57.7799 74.6464 57.4455 74.2845C57.1111 73.9181 56.6507 73.7348 56.0644 73.7348C55.6704 73.7348 55.3223 73.8196 55.02 73.9891C54.7222 74.1586 54.4886 74.4059 54.3191 74.7312C54.1542 75.0518 54.0695 75.4389 54.0649 75.8924ZM62.4003 81.9939V71.4399H65.3274V81.9939H62.4003ZM63.8707 70.0794C63.4355 70.0794 63.0622 69.9351 62.7507 69.6465C62.4438 69.3534 62.2903 69.003 62.2903 68.5953C62.2903 68.1922 62.4438 67.8463 62.7507 67.5577C63.0622 67.2646 63.4355 67.118 63.8707 67.118C64.3059 67.118 64.6769 67.2646 64.9838 67.5577C65.2953 67.8463 65.4511 68.1922 65.4511 68.5953C65.4511 69.003 65.2953 69.3534 64.9838 69.6465C64.6769 69.9351 64.3059 70.0794 63.8707 70.0794ZM69.8253 75.8924V81.9939H66.8982V71.4399H69.6878V73.302H69.8115C70.0451 72.6881 70.4368 72.2026 70.9865 71.8453C71.5362 71.4834 72.2027 71.3025 72.986 71.3025C73.7189 71.3025 74.3579 71.4628 74.903 71.7835C75.4481 72.1041 75.8718 72.5622 76.1741 73.1577C76.4765 73.7486 76.6276 74.454 76.6276 75.274V81.9939H73.7006V75.7962C73.7051 75.1503 73.5402 74.6464 73.2058 74.2845C72.8714 73.9181 72.4111 73.7348 71.8247 73.7348C71.4308 73.7348 71.0827 73.8196 70.7803 73.9891C70.4826 74.1586 70.249 74.4059 70.0795 74.7312C69.9146 75.0518 69.8298 75.4389 69.8253 75.8924ZM82.9155 86.1715C81.9672 86.1715 81.1542 86.041 80.4762 85.7799C79.8028 85.5233 79.2669 85.1729 78.8684 84.7286C78.4699 84.2843 78.211 83.785 78.0919 83.2307L80.7992 82.8665C80.8816 83.0772 81.0122 83.2742 81.1908 83.4574C81.3695 83.6407 81.6054 83.7873 81.8985 83.8972C82.1963 84.0117 82.5582 84.069 82.9842 84.069C83.6209 84.069 84.1454 83.9132 84.5576 83.6017C84.9745 83.2948 85.1829 82.7795 85.1829 82.0557V80.125H85.0592C84.931 80.4181 84.7386 80.6953 84.4821 80.9564C84.2255 81.2175 83.8957 81.4305 83.4926 81.5954C83.0895 81.7603 82.6085 81.8427 82.0497 81.8427C81.2572 81.8427 80.5358 81.6595 79.8853 81.293C79.2394 80.922 78.7241 80.3563 78.3393 79.5959C77.9591 78.8309 77.769 77.8644 77.769 76.6963C77.769 75.5007 77.9637 74.5021 78.353 73.7005C78.7424 72.8989 79.26 72.2988 79.9059 71.9003C80.5564 71.5017 81.2687 71.3025 82.0428 71.3025C82.6337 71.3025 83.1285 71.4033 83.527 71.6048C83.9255 71.8018 84.2462 72.0491 84.4889 72.3469C84.7363 72.64 84.9264 72.9286 85.0592 73.2126H85.1692V71.4399H88.0756V82.097C88.0756 82.9948 87.8558 83.746 87.416 84.3507C86.9763 84.9553 86.367 85.4088 85.5883 85.7112C84.8142 86.0181 83.9232 86.1715 82.9155 86.1715ZM82.9773 79.644C83.4491 79.644 83.8476 79.5272 84.1729 79.2936C84.5027 79.0554 84.7546 78.7164 84.9287 78.2766C85.1073 77.8323 85.1967 77.3009 85.1967 76.6825C85.1967 76.0641 85.1096 75.5282 84.9356 75.0747C84.7615 74.6166 84.5095 74.2616 84.1797 74.0097C83.8499 73.7577 83.4491 73.6318 82.9773 73.6318C82.4963 73.6318 82.0909 73.7623 81.7611 74.0234C81.4313 74.2799 81.1816 74.6372 81.0122 75.0953C80.8427 75.5534 80.7579 76.0825 80.7579 76.6825C80.7579 77.2918 80.8427 77.8186 81.0122 78.2629C81.1862 78.7026 81.4359 79.0439 81.7611 79.2867C82.0909 79.5249 82.4963 79.644 82.9773 79.644Z" fill="white"/>
</g>
</g>
<defs>
<clipPath id="clip0_514_4277">
<rect y="0.759766" width="193.49" height="94.4686" rx="9.6745" fill="white"/>
</clipPath>
<clipPath id="clip1_514_4277">
<rect width="193.49" height="94.4686" fill="white" transform="translate(0 0.759766)"/>
</clipPath>
</defs>
</svg>
